%TF.GenerationSoftware,KiCad,Pcbnew,10.0.0*%
%TF.CreationDate,2026-08-25T21:09:23-04:00*%
%TF.ProjectId,ataconso-rev-b,61746163-6f6e-4736-9f2d-7265762d622e,rev?*%
%TF.SameCoordinates,Original*%
%TF.FileFunction,Copper,L2,Bot*%
%TF.FilePolarity,Positive*%
%FSLAX46Y46*%
G04 Gerber Fmt 4.6, Leading zero omitted, Abs format (unit mm)*
G04 Created by KiCad (PCBNEW 10.0.0) date 2026-08-25 21:09:23*
%MOMM*%
%LPD*%
G01*
G04 APERTURE LIST*
G04 Aperture macros list*
%AMRoundRect*
0 Rectangle with rounded corners*
0 $1 Rounding radius*
0 $2 $3 $4 $5 $6 $7 $8 $9 X,Y pos of 4 corners*
0 Add a 4 corners polygon primitive as box body*
4,1,4,$2,$3,$4,$5,$6,$7,$8,$9,$2,$3,0*
0 Add four circle primitives for the rounded corners*
1,1,$1+$1,$2,$3*
1,1,$1+$1,$4,$5*
1,1,$1+$1,$6,$7*
1,1,$1+$1,$8,$9*
0 Add four rect primitives between the rounded corners*
20,1,$1+$1,$2,$3,$4,$5,0*
20,1,$1+$1,$4,$5,$6,$7,0*
20,1,$1+$1,$6,$7,$8,$9,0*
20,1,$1+$1,$8,$9,$2,$3,0*%
G04 Aperture macros list end*
%TA.AperFunction,ComponentPad*%
%ADD10C,1.600000*%
%TD*%
%TA.AperFunction,ComponentPad*%
%ADD11C,1.620000*%
%TD*%
%TA.AperFunction,ComponentPad*%
%ADD12R,1.500000X1.500000*%
%TD*%
%TA.AperFunction,ComponentPad*%
%ADD13R,1.800000X1.800000*%
%TD*%
%TA.AperFunction,ComponentPad*%
%ADD14C,1.800000*%
%TD*%
%TA.AperFunction,ComponentPad*%
%ADD15RoundRect,0.250000X-0.950000X-0.550000X0.950000X-0.550000X0.950000X0.550000X-0.950000X0.550000X0*%
%TD*%
%TA.AperFunction,ComponentPad*%
%ADD16O,2.400000X1.600000*%
%TD*%
%TA.AperFunction,ComponentPad*%
%ADD17RoundRect,0.249999X0.850001X-0.850001X0.850001X0.850001X-0.850001X0.850001X-0.850001X-0.850001X0*%
%TD*%
%TA.AperFunction,ComponentPad*%
%ADD18C,2.200000*%
%TD*%
%TA.AperFunction,ComponentPad*%
%ADD19RoundRect,0.250000X-0.550000X-0.550000X0.550000X-0.550000X0.550000X0.550000X-0.550000X0.550000X0*%
%TD*%
%TA.AperFunction,ComponentPad*%
%ADD20R,3.500000X3.500000*%
%TD*%
%TA.AperFunction,ComponentPad*%
%ADD21RoundRect,0.750000X-1.000000X0.750000X-1.000000X-0.750000X1.000000X-0.750000X1.000000X0.750000X0*%
%TD*%
%TA.AperFunction,ComponentPad*%
%ADD22RoundRect,0.875000X-0.875000X0.875000X-0.875000X-0.875000X0.875000X-0.875000X0.875000X0.875000X0*%
%TD*%
%TA.AperFunction,ComponentPad*%
%ADD23RoundRect,0.250001X-1.149999X1.149999X-1.149999X-1.149999X1.149999X-1.149999X1.149999X1.149999X0*%
%TD*%
%TA.AperFunction,ComponentPad*%
%ADD24C,2.800000*%
%TD*%
%TA.AperFunction,Conductor*%
%ADD25C,0.400000*%
%TD*%
G04 APERTURE END LIST*
D10*
%TO.P,C2,2*%
%TO.N,GND*%
X61000000Y-72000000D03*
%TO.P,C2,1*%
%TO.N,Net-(U1-CONT)*%
X58500000Y-72000000D03*
%TD*%
%TO.P,C3,2*%
%TO.N,GND*%
X66000000Y-131000000D03*
%TO.P,C3,1*%
%TO.N,Net-(U2-DISCH)*%
X63500000Y-131000000D03*
%TD*%
%TO.P,C4,2*%
%TO.N,GND*%
X60500000Y-127000000D03*
%TO.P,C4,1*%
%TO.N,Net-(U2-CONT)*%
X58000000Y-127000000D03*
%TD*%
%TO.P,C1,1*%
%TO.N,Net-(U1-THRES)*%
X52500000Y-72000000D03*
%TO.P,C1,2*%
%TO.N,GND*%
X55000000Y-72000000D03*
%TD*%
D11*
%TO.P,RV2,1,1_1*%
%TO.N,unconnected-(RV2-Pad1)*%
X62500000Y-119495000D03*
%TO.P,RV2,2,2_2*%
%TO.N,VCC*%
X67500000Y-116995000D03*
%TO.P,RV2,3,3_3*%
%TO.N,Net-(R2-Pad1)*%
X62500000Y-114495000D03*
%TD*%
D10*
%TO.P,R1,1*%
%TO.N,VCC*%
X67000000Y-85000000D03*
%TO.P,R1,2*%
%TO.N,Net-(U1-DISCH)*%
X67000000Y-95160000D03*
%TD*%
D12*
%TO.P,SW1,1,A_1*%
%TO.N,unconnected-(SW1-A-Pad1)*%
X67000000Y-58080000D03*
%TO.P,SW1,2,B_2*%
%TO.N,Net-(SW1-B)*%
X67000000Y-55540000D03*
%TO.P,SW1,3,C_3*%
%TO.N,Net-(D1-A)*%
X67000000Y-53000000D03*
%TD*%
D13*
%TO.P,D2,1,K_1*%
%TO.N,Net-(D2-K)*%
X63730000Y-66000000D03*
D14*
%TO.P,D2,2,A_2*%
%TO.N,VCC*%
X66270000Y-66000000D03*
%TD*%
D15*
%TO.P,U2,1,GND_1*%
%TO.N,GND*%
X53190000Y-100190000D03*
D16*
%TO.P,U2,2,TRIG_2*%
%TO.N,Net-(U1-OUT)*%
X53190000Y-102730000D03*
%TO.P,U2,3,OUT_3*%
%TO.N,Net-(U2-OUT)*%
X53190000Y-105270000D03*
%TO.P,U2,4,~{RST}_4*%
%TO.N,VCC*%
X53190000Y-107810000D03*
%TO.P,U2,5,CONT_5*%
%TO.N,Net-(U2-CONT)*%
X60810000Y-107810000D03*
%TO.P,U2,6,THRES_6*%
%TO.N,Net-(U2-DISCH)*%
X60810000Y-105270000D03*
%TO.P,U2,7,DISCH_7*%
X60810000Y-102730000D03*
%TO.P,U2,8,VCC_8*%
%TO.N,VCC*%
X60810000Y-100190000D03*
%TD*%
D10*
%TO.P,R2,1*%
%TO.N,Net-(R2-Pad1)*%
X53000000Y-126000000D03*
%TO.P,R2,2*%
%TO.N,Net-(U2-DISCH)*%
X53000000Y-136160000D03*
%TD*%
D15*
%TO.P,U1,1,GND_1*%
%TO.N,GND*%
X53000000Y-85190000D03*
D16*
%TO.P,U1,2,TRIG_2*%
%TO.N,Net-(U1-THRES)*%
X53000000Y-87730000D03*
%TO.P,U1,3,OUT_3*%
%TO.N,Net-(U1-OUT)*%
X53000000Y-90270000D03*
%TO.P,U1,4,~{RST}_4*%
%TO.N,VCC*%
X53000000Y-92810000D03*
%TO.P,U1,5,CONT_5*%
%TO.N,Net-(U1-CONT)*%
X60620000Y-92810000D03*
%TO.P,U1,6,THRES_6*%
%TO.N,Net-(U1-THRES)*%
X60620000Y-90270000D03*
%TO.P,U1,7,DISCH_7*%
%TO.N,Net-(U1-DISCH)*%
X60620000Y-87730000D03*
%TO.P,U1,8,VCC_8*%
%TO.N,VCC*%
X60620000Y-85190000D03*
%TD*%
D17*
%TO.P,D1,1,K_1*%
%TO.N,VCC*%
X67000000Y-109160000D03*
D18*
%TO.P,D1,2,A_2*%
%TO.N,Net-(D1-A)*%
X67000000Y-99000000D03*
%TD*%
D19*
%TO.P,C5,1*%
%TO.N,Net-(U2-OUT)*%
X52000000Y-145000000D03*
D10*
%TO.P,C5,2*%
%TO.N,Net-(J1-Pin_1)*%
X54500000Y-145000000D03*
%TD*%
D11*
%TO.P,RV1,1,1_1*%
%TO.N,unconnected-(RV1-Pad1)*%
X53000000Y-119500000D03*
%TO.P,RV1,2,2_2*%
%TO.N,Net-(U1-DISCH)*%
X58000000Y-117000000D03*
%TO.P,RV1,3,3_3*%
%TO.N,Net-(U1-THRES)*%
X53000000Y-114500000D03*
%TD*%
D20*
%TO.P,J2,1*%
%TO.N,Net-(SW1-B)*%
X56957500Y-65000000D03*
D21*
%TO.P,J2,2*%
%TO.N,GND*%
X56957500Y-59000000D03*
D22*
%TO.P,J2,3*%
X52257500Y-62000000D03*
%TD*%
D10*
%TO.P,R3,1*%
%TO.N,Net-(D2-K)*%
X65080000Y-79000000D03*
%TO.P,R3,2*%
%TO.N,GND*%
X54920000Y-79000000D03*
%TD*%
D23*
%TO.P,J1,1,Pin_1_1*%
%TO.N,Net-(J1-Pin_1)*%
X65000000Y-141000000D03*
D24*
%TO.P,J1,2,Pin_2_2*%
%TO.N,GND*%
X65000000Y-146000000D03*
%TD*%
%TO.N,Net-(D1-A)*%
D25*
X67000000Y-53000000D02*
X60000000Y-60000000D01*
X60000000Y-60000000D02*
X60000000Y-68000000D01*
X60000000Y-68000000D02*
X69000000Y-77000000D01*
X69000000Y-77000000D02*
X69000000Y-97000000D01*
X69000000Y-97000000D02*
X67000000Y-99000000D01*
%TO.N,Net-(U2-DISCH)*%
X60810000Y-102730000D02*
X60810000Y-105270000D01*
%TO.N,Net-(U1-THRES)*%
X53000000Y-111000000D02*
X57000000Y-107000000D01*
X53000000Y-114500000D02*
X53000000Y-111000000D01*
X57000000Y-107000000D02*
X57000000Y-93890000D01*
X57000000Y-93890000D02*
X60620000Y-90270000D01*
%TO.N,Net-(U2-CONT)*%
X58000000Y-121000000D02*
X56000000Y-119000000D01*
X58000000Y-127000000D02*
X58000000Y-121000000D01*
X56000000Y-119000000D02*
X56000000Y-112620000D01*
X56000000Y-112620000D02*
X60810000Y-107810000D01*
%TO.N,VCC*%
X53000000Y-92810000D02*
X56000000Y-89810000D01*
X56000000Y-89810000D02*
X56000000Y-88000000D01*
X56000000Y-88000000D02*
X58810000Y-85190000D01*
X58810000Y-85190000D02*
X60620000Y-85190000D01*
%TO.N,Net-(U1-OUT)*%
X53190000Y-102730000D02*
X50700000Y-100240000D01*
X50700000Y-100240000D02*
X50700000Y-92570000D01*
X50700000Y-92570000D02*
X53000000Y-90270000D01*
%TO.N,VCC*%
X67000000Y-85000000D02*
X60810000Y-85000000D01*
X60810000Y-85000000D02*
X60620000Y-85190000D01*
%TO.N,Net-(U1-DISCH)*%
X67000000Y-95160000D02*
X67000000Y-96000000D01*
X67000000Y-96000000D02*
X63000000Y-100000000D01*
X63000000Y-100000000D02*
X63000000Y-112000000D01*
X63000000Y-112000000D02*
X58000000Y-117000000D01*
X67000000Y-95160000D02*
X67000000Y-92000000D01*
X67000000Y-92000000D02*
X62730000Y-87730000D01*
X62730000Y-87730000D02*
X60620000Y-87730000D01*
%TD*%
%TA.AperFunction,Conductor*%
%TO.N,GND*%
G36*
X62455520Y-88450185D02*
G01*
X62476162Y-88466819D01*
X66263181Y-92253838D01*
X66296666Y-92315161D01*
X66299500Y-92341519D01*
X66299500Y-93998255D01*
X66279815Y-94065294D01*
X66248385Y-94098573D01*
X66152787Y-94168028D01*
X66152782Y-94168032D01*
X66008028Y-94312786D01*
X65887715Y-94478386D01*
X65794781Y-94660776D01*
X65731522Y-94855465D01*
X65699500Y-95057648D01*
X65699500Y-95262351D01*
X65731522Y-95464534D01*
X65794781Y-95659223D01*
X65887713Y-95841610D01*
X65943297Y-95918115D01*
X65966777Y-95983920D01*
X65950952Y-96051974D01*
X65930660Y-96078681D01*
X62500132Y-99509209D01*
X62438809Y-99542694D01*
X62369117Y-99537710D01*
X62313184Y-99495838D01*
X62312133Y-99494413D01*
X62201971Y-99342786D01*
X62057213Y-99198028D01*
X61891613Y-99077715D01*
X61891612Y-99077714D01*
X61891610Y-99077713D01*
X61832675Y-99047684D01*
X61709223Y-98984781D01*
X61514534Y-98921522D01*
X61318779Y-98890518D01*
X61312352Y-98889500D01*
X60307648Y-98889500D01*
X60301221Y-98890518D01*
X60105465Y-98921522D01*
X59910776Y-98984781D01*
X59728386Y-99077715D01*
X59562786Y-99198028D01*
X59418028Y-99342786D01*
X59297715Y-99508386D01*
X59204781Y-99690776D01*
X59141522Y-99885465D01*
X59109500Y-100087648D01*
X59109500Y-100292351D01*
X59141522Y-100494534D01*
X59204781Y-100689223D01*
X59297715Y-100871613D01*
X59418028Y-101037213D01*
X59562786Y-101181971D01*
X59674976Y-101263480D01*
X59728390Y-101302287D01*
X59819840Y-101348883D01*
X59821080Y-101349515D01*
X59871876Y-101397490D01*
X59888671Y-101465311D01*
X59866134Y-101531446D01*
X59821080Y-101570485D01*
X59728386Y-101617715D01*
X59562786Y-101738028D01*
X59418028Y-101882786D01*
X59297715Y-102048386D01*
X59204781Y-102230776D01*
X59141522Y-102425465D01*
X59109500Y-102627648D01*
X59109500Y-102832351D01*
X59141522Y-103034534D01*
X59204781Y-103229223D01*
X59297715Y-103411613D01*
X59418028Y-103577213D01*
X59562786Y-103721971D01*
X59717749Y-103834556D01*
X59728390Y-103842287D01*
X59819840Y-103888883D01*
X59821080Y-103889515D01*
X59871876Y-103937490D01*
X59888671Y-104005311D01*
X59866134Y-104071446D01*
X59821080Y-104110485D01*
X59728386Y-104157715D01*
X59562786Y-104278028D01*
X59418028Y-104422786D01*
X59297715Y-104588386D01*
X59204781Y-104770776D01*
X59141522Y-104965465D01*
X59109500Y-105167648D01*
X59109500Y-105372351D01*
X59141522Y-105574534D01*
X59204781Y-105769223D01*
X59297715Y-105951613D01*
X59418028Y-106117213D01*
X59562786Y-106261971D01*
X59717749Y-106374556D01*
X59728390Y-106382287D01*
X59819840Y-106428883D01*
X59821080Y-106429515D01*
X59871876Y-106477490D01*
X59888671Y-106545311D01*
X59866134Y-106611446D01*
X59821080Y-106650485D01*
X59728386Y-106697715D01*
X59562786Y-106818028D01*
X59418028Y-106962786D01*
X59297715Y-107128386D01*
X59204781Y-107310776D01*
X59141522Y-107505465D01*
X59109500Y-107707648D01*
X59109500Y-107912351D01*
X59141522Y-108114534D01*
X59177655Y-108225737D01*
X59204780Y-108309219D01*
X59204782Y-108309223D01*
X59204784Y-108309229D01*
X59206647Y-108313728D01*
X59204549Y-108314596D01*
X59215707Y-108374039D01*
X59189424Y-108438777D01*
X59180008Y-108449333D01*
X55455887Y-112173454D01*
X55379223Y-112288192D01*
X55326421Y-112415668D01*
X55326418Y-112415680D01*
X55320279Y-112446543D01*
X55320279Y-112446544D01*
X55299500Y-112551004D01*
X55299500Y-112551007D01*
X55299500Y-118931006D01*
X55299500Y-119068994D01*
X55299500Y-119068996D01*
X55299499Y-119068996D01*
X55326418Y-119204322D01*
X55326421Y-119204332D01*
X55379222Y-119331807D01*
X55455887Y-119446545D01*
X55455888Y-119446546D01*
X57263181Y-121253838D01*
X57296666Y-121315161D01*
X57299500Y-121341519D01*
X57299500Y-125838255D01*
X57279815Y-125905294D01*
X57248385Y-125938573D01*
X57152787Y-126008028D01*
X57152782Y-126008032D01*
X57008028Y-126152786D01*
X56887715Y-126318386D01*
X56794781Y-126500776D01*
X56731522Y-126695465D01*
X56699500Y-126897648D01*
X56699500Y-127102351D01*
X56731522Y-127304534D01*
X56794781Y-127499223D01*
X56837248Y-127582567D01*
X56887585Y-127681359D01*
X56887715Y-127681613D01*
X57008028Y-127847213D01*
X57152786Y-127991971D01*
X57273226Y-128079474D01*
X57318390Y-128112287D01*
X57434607Y-128171503D01*
X57500776Y-128205218D01*
X57500778Y-128205218D01*
X57500781Y-128205220D01*
X57605137Y-128239127D01*
X57695465Y-128268477D01*
X57796557Y-128284488D01*
X57897648Y-128300500D01*
X57897649Y-128300500D01*
X58102351Y-128300500D01*
X58102352Y-128300500D01*
X58304534Y-128268477D01*
X58499219Y-128205220D01*
X58681610Y-128112287D01*
X58774590Y-128044732D01*
X58847213Y-127991971D01*
X58847215Y-127991968D01*
X58847219Y-127991966D01*
X58991966Y-127847219D01*
X58991968Y-127847215D01*
X58991971Y-127847213D01*
X59112286Y-127681611D01*
X59112415Y-127681359D01*
X59139795Y-127627621D01*
X59187769Y-127576826D01*
X59255589Y-127560030D01*
X59321725Y-127582567D01*
X59360765Y-127627621D01*
X59388141Y-127681350D01*
X59388147Y-127681359D01*
X59420523Y-127725921D01*
X59420524Y-127725922D01*
X60100000Y-127046446D01*
X60100000Y-127052661D01*
X60127259Y-127154394D01*
X60179920Y-127245606D01*
X60254394Y-127320080D01*
X60345606Y-127372741D01*
X60447339Y-127400000D01*
X60453553Y-127400000D01*
X59774076Y-128079474D01*
X59818650Y-128111859D01*
X60000968Y-128204755D01*
X60195582Y-128267990D01*
X60397683Y-128300000D01*
X60602317Y-128300000D01*
X60804417Y-128267990D01*
X60999031Y-128204755D01*
X61181349Y-128111859D01*
X61225921Y-128079474D01*
X60546447Y-127400000D01*
X60552661Y-127400000D01*
X60654394Y-127372741D01*
X60745606Y-127320080D01*
X60820080Y-127245606D01*
X60872741Y-127154394D01*
X60900000Y-127052661D01*
X60900000Y-127046447D01*
X61579474Y-127725921D01*
X61611859Y-127681349D01*
X61704755Y-127499031D01*
X61767990Y-127304417D01*
X61800000Y-127102317D01*
X61800000Y-126897682D01*
X61767990Y-126695582D01*
X61704755Y-126500968D01*
X61611859Y-126318650D01*
X61579474Y-126274077D01*
X61579474Y-126274076D01*
X60900000Y-126953551D01*
X60900000Y-126947339D01*
X60872741Y-126845606D01*
X60820080Y-126754394D01*
X60745606Y-126679920D01*
X60654394Y-126627259D01*
X60552661Y-126600000D01*
X60546446Y-126600000D01*
X61225922Y-125920524D01*
X61225921Y-125920523D01*
X61181359Y-125888147D01*
X61181350Y-125888141D01*
X60999031Y-125795244D01*
X60804417Y-125732009D01*
X60602317Y-125700000D01*
X60397683Y-125700000D01*
X60195582Y-125732009D01*
X60000968Y-125795244D01*
X59818644Y-125888143D01*
X59774077Y-125920523D01*
X59774077Y-125920524D01*
X60453554Y-126600000D01*
X60447339Y-126600000D01*
X60345606Y-126627259D01*
X60254394Y-126679920D01*
X60179920Y-126754394D01*
X60127259Y-126845606D01*
X60100000Y-126947339D01*
X60100000Y-126953553D01*
X59420524Y-126274077D01*
X59420523Y-126274077D01*
X59388143Y-126318644D01*
X59360765Y-126372378D01*
X59312790Y-126423174D01*
X59244969Y-126439969D01*
X59178834Y-126417431D01*
X59139795Y-126372378D01*
X59112284Y-126318385D01*
X58991971Y-126152786D01*
X58898958Y-126059773D01*
X58847219Y-126008034D01*
X58748667Y-125936432D01*
X58745835Y-125934108D01*
X58728140Y-125908131D01*
X58708949Y-125883243D01*
X58708096Y-125878704D01*
X58706501Y-125876362D01*
X58706308Y-125869184D01*
X58700500Y-125838255D01*
X58700500Y-120931004D01*
X58673581Y-120795677D01*
X58673580Y-120795676D01*
X58673580Y-120795672D01*
X58664284Y-120773230D01*
X58620777Y-120668192D01*
X58544112Y-120553454D01*
X57382519Y-119391861D01*
X61189500Y-119391861D01*
X61189500Y-119598138D01*
X61221769Y-119801877D01*
X61221769Y-119801880D01*
X61285510Y-119998054D01*
X61379160Y-120181852D01*
X61500407Y-120348733D01*
X61646267Y-120494593D01*
X61813148Y-120615840D01*
X61915889Y-120668189D01*
X61996945Y-120709489D01*
X62193120Y-120773230D01*
X62193121Y-120773230D01*
X62193124Y-120773231D01*
X62396861Y-120805500D01*
X62396862Y-120805500D01*
X62603138Y-120805500D01*
X62603139Y-120805500D01*
X62806876Y-120773231D01*
X62806879Y-120773230D01*
X62806880Y-120773230D01*
X63003054Y-120709489D01*
X63003054Y-120709488D01*
X63003057Y-120709488D01*
X63186852Y-120615840D01*
X63353733Y-120494593D01*
X63499593Y-120348733D01*
X63620840Y-120181852D01*
X63714488Y-119998057D01*
X63776606Y-119806877D01*
X63778230Y-119801880D01*
X63778230Y-119801879D01*
X63778231Y-119801876D01*
X63810500Y-119598139D01*
X63810500Y-119391861D01*
X63778231Y-119188124D01*
X63778230Y-119188120D01*
X63778230Y-119188119D01*
X63714489Y-118991945D01*
X63683439Y-118931006D01*
X63620840Y-118808148D01*
X63499593Y-118641267D01*
X63353733Y-118495407D01*
X63186852Y-118374160D01*
X63003054Y-118280510D01*
X62806879Y-118216769D01*
X62654073Y-118192567D01*
X62603139Y-118184500D01*
X62396861Y-118184500D01*
X62328948Y-118195256D01*
X62193122Y-118216769D01*
X62193119Y-118216769D01*
X61996945Y-118280510D01*
X61813147Y-118374160D01*
X61646265Y-118495408D01*
X61500408Y-118641265D01*
X61379160Y-118808147D01*
X61285510Y-118991945D01*
X61221769Y-119188119D01*
X61221769Y-119188122D01*
X61189500Y-119391861D01*
X57382519Y-119391861D01*
X56736819Y-118746161D01*
X56703334Y-118684838D01*
X56700500Y-118658480D01*
X56700500Y-117822580D01*
X56720185Y-117755541D01*
X56772989Y-117709786D01*
X56842147Y-117699842D01*
X56905703Y-117728867D01*
X56924816Y-117749692D01*
X57000407Y-117853733D01*
X57146267Y-117999593D01*
X57313148Y-118120840D01*
X57438088Y-118184500D01*
X57496945Y-118214489D01*
X57693120Y-118278230D01*
X57693121Y-118278230D01*
X57693124Y-118278231D01*
X57896861Y-118310500D01*
X57896862Y-118310500D01*
X58103138Y-118310500D01*
X58103139Y-118310500D01*
X58306876Y-118278231D01*
X58306879Y-118278230D01*
X58306880Y-118278230D01*
X58503054Y-118214489D01*
X58503054Y-118214488D01*
X58503057Y-118214488D01*
X58686852Y-118120840D01*
X58853733Y-117999593D01*
X58999593Y-117853733D01*
X59120840Y-117686852D01*
X59214488Y-117503057D01*
X59278231Y-117306876D01*
X59310500Y-117103139D01*
X59310500Y-116896861D01*
X59309708Y-116891861D01*
X66189500Y-116891861D01*
X66189500Y-117098138D01*
X66221769Y-117301877D01*
X66221769Y-117301880D01*
X66285510Y-117498054D01*
X66379160Y-117681852D01*
X66500407Y-117848733D01*
X66646267Y-117994593D01*
X66813148Y-118115840D01*
X66947901Y-118184500D01*
X66996945Y-118209489D01*
X67193120Y-118273230D01*
X67193121Y-118273230D01*
X67193124Y-118273231D01*
X67396861Y-118305500D01*
X67396862Y-118305500D01*
X67603138Y-118305500D01*
X67603139Y-118305500D01*
X67806876Y-118273231D01*
X67806879Y-118273230D01*
X67806880Y-118273230D01*
X68003054Y-118209489D01*
X68003054Y-118209488D01*
X68003057Y-118209488D01*
X68186852Y-118115840D01*
X68353733Y-117994593D01*
X68499593Y-117848733D01*
X68620840Y-117681852D01*
X68714488Y-117498057D01*
X68776606Y-117306877D01*
X68778230Y-117301880D01*
X68778230Y-117301879D01*
X68778231Y-117301876D01*
X68810500Y-117098139D01*
X68810500Y-116891861D01*
X68778231Y-116688124D01*
X68778230Y-116688120D01*
X68778230Y-116688119D01*
X68714489Y-116491945D01*
X68714488Y-116491943D01*
X68620840Y-116308148D01*
X68499593Y-116141267D01*
X68353733Y-115995407D01*
X68186852Y-115874160D01*
X68003054Y-115780510D01*
X67806879Y-115716769D01*
X67654073Y-115692567D01*
X67603139Y-115684500D01*
X67396861Y-115684500D01*
X67328948Y-115695256D01*
X67193122Y-115716769D01*
X67193119Y-115716769D01*
X66996945Y-115780510D01*
X66813147Y-115874160D01*
X66646265Y-115995408D01*
X66500408Y-116141265D01*
X66379160Y-116308147D01*
X66285510Y-116491945D01*
X66221769Y-116688119D01*
X66221769Y-116688122D01*
X66189500Y-116891861D01*
X59309708Y-116891861D01*
X59290700Y-116771852D01*
X59295256Y-116737337D01*
X59299707Y-116702896D01*
X59299826Y-116702721D01*
X59299844Y-116702586D01*
X59300234Y-116702125D01*
X59325542Y-116665113D01*
X61070597Y-114920058D01*
X61131918Y-114886575D01*
X61201610Y-114891559D01*
X61257543Y-114933431D01*
X61276206Y-114969421D01*
X61285509Y-114998051D01*
X61285511Y-114998054D01*
X61285512Y-114998057D01*
X61379160Y-115181852D01*
X61500407Y-115348733D01*
X61646267Y-115494593D01*
X61813148Y-115615840D01*
X61928183Y-115674453D01*
X61996945Y-115709489D01*
X62193120Y-115773230D01*
X62193121Y-115773230D01*
X62193124Y-115773231D01*
X62396861Y-115805500D01*
X62396862Y-115805500D01*
X62603138Y-115805500D01*
X62603139Y-115805500D01*
X62806876Y-115773231D01*
X62806879Y-115773230D01*
X62806880Y-115773230D01*
X63003054Y-115709489D01*
X63003054Y-115709488D01*
X63003057Y-115709488D01*
X63186852Y-115615840D01*
X63353733Y-115494593D01*
X63499593Y-115348733D01*
X63620840Y-115181852D01*
X63714488Y-114998057D01*
X63776606Y-114806877D01*
X63778230Y-114801880D01*
X63778230Y-114801879D01*
X63778231Y-114801876D01*
X63810500Y-114598139D01*
X63810500Y-114391861D01*
X63778231Y-114188124D01*
X63778230Y-114188120D01*
X63778230Y-114188119D01*
X63714489Y-113991945D01*
X63714488Y-113991943D01*
X63620840Y-113808148D01*
X63499593Y-113641267D01*
X63353733Y-113495407D01*
X63186852Y-113374160D01*
X63003057Y-113280512D01*
X63003056Y-113280511D01*
X63003051Y-113280509D01*
X63003052Y-113280509D01*
X62974421Y-113271206D01*
X62916746Y-113231768D01*
X62889549Y-113167409D01*
X62901464Y-113098563D01*
X62925057Y-113065599D01*
X63544114Y-112446543D01*
X63620775Y-112331811D01*
X63673580Y-112204328D01*
X63700500Y-112068994D01*
X63700500Y-111931006D01*
X63700500Y-108259982D01*
X65399500Y-108259982D01*
X65399500Y-110060017D01*
X65410000Y-110162796D01*
X65410001Y-110162798D01*
X65465186Y-110329335D01*
X65557288Y-110478656D01*
X65681344Y-110602712D01*
X65830665Y-110694814D01*
X65997202Y-110749999D01*
X66099990Y-110760500D01*
X66099995Y-110760500D01*
X67900005Y-110760500D01*
X67900010Y-110760500D01*
X68002798Y-110749999D01*
X68169335Y-110694814D01*
X68318656Y-110602712D01*
X68442712Y-110478656D01*
X68534814Y-110329335D01*
X68589999Y-110162798D01*
X68600500Y-110060010D01*
X68600500Y-108259990D01*
X68589999Y-108157202D01*
X68534814Y-107990665D01*
X68442712Y-107841344D01*
X68318656Y-107717288D01*
X68169335Y-107625186D01*
X68002798Y-107570001D01*
X68002796Y-107570000D01*
X67900017Y-107559500D01*
X67900010Y-107559500D01*
X66099990Y-107559500D01*
X66099982Y-107559500D01*
X65997203Y-107570000D01*
X65997202Y-107570001D01*
X65914669Y-107597349D01*
X65830667Y-107625185D01*
X65830662Y-107625187D01*
X65681342Y-107717289D01*
X65557289Y-107841342D01*
X65465187Y-107990662D01*
X65465186Y-107990665D01*
X65410001Y-108157202D01*
X65410001Y-108157203D01*
X65410000Y-108157203D01*
X65399500Y-108259982D01*
X63700500Y-108259982D01*
X63700500Y-100341518D01*
X63720185Y-100274479D01*
X63736814Y-100253842D01*
X65187819Y-98802836D01*
X65249142Y-98769352D01*
X65318834Y-98774336D01*
X65374767Y-98816208D01*
X65399184Y-98881672D01*
X65399500Y-98890518D01*
X65399500Y-99125961D01*
X65438910Y-99374785D01*
X65516760Y-99614383D01*
X65595413Y-99768747D01*
X65620131Y-99817259D01*
X65631132Y-99838848D01*
X65779201Y-100042649D01*
X65779205Y-100042654D01*
X65957345Y-100220794D01*
X65957350Y-100220798D01*
X66123508Y-100341518D01*
X66161155Y-100368870D01*
X66262122Y-100420315D01*
X66385616Y-100483239D01*
X66385618Y-100483239D01*
X66385621Y-100483241D01*
X66625215Y-100561090D01*
X66874038Y-100600500D01*
X66874039Y-100600500D01*
X67125961Y-100600500D01*
X67125962Y-100600500D01*
X67374785Y-100561090D01*
X67614379Y-100483241D01*
X67838845Y-100368870D01*
X68042656Y-100220793D01*
X68220793Y-100042656D01*
X68368870Y-99838845D01*
X68483241Y-99614379D01*
X68561090Y-99374785D01*
X68600500Y-99125962D01*
X68600500Y-98874038D01*
X68561090Y-98625215D01*
X68536589Y-98549812D01*
X68534595Y-98479973D01*
X68566838Y-98423817D01*
X69287820Y-97702836D01*
X69349142Y-97669352D01*
X69418834Y-97674336D01*
X69474767Y-97716208D01*
X69499184Y-97781672D01*
X69499500Y-97790518D01*
X69499500Y-149375500D01*
X69479815Y-149442539D01*
X69427011Y-149488294D01*
X69375500Y-149499500D01*
X50624500Y-149499500D01*
X50557461Y-149479815D01*
X50511706Y-149427011D01*
X50500500Y-149375500D01*
X50500500Y-145838988D01*
X50520185Y-145771949D01*
X50572989Y-145726194D01*
X50642147Y-145716250D01*
X50705703Y-145745275D01*
X50742205Y-145799982D01*
X50765186Y-145869334D01*
X50857288Y-146018656D01*
X50981344Y-146142712D01*
X51130666Y-146234814D01*
X51297203Y-146289999D01*
X51399991Y-146300500D01*
X52600008Y-146300499D01*
X52702797Y-146289999D01*
X52869334Y-146234814D01*
X53018656Y-146142712D01*
X53142712Y-146018656D01*
X53234814Y-145869334D01*
X53249426Y-145825237D01*
X53289195Y-145767796D01*
X53353711Y-145740972D01*
X53422487Y-145753286D01*
X53467448Y-145791358D01*
X53508032Y-145847217D01*
X53652786Y-145991971D01*
X53751954Y-146064019D01*
X53818390Y-146112287D01*
X53934607Y-146171503D01*
X54000776Y-146205218D01*
X54000778Y-146205218D01*
X54000781Y-146205220D01*
X54091856Y-146234812D01*
X54195465Y-146268477D01*
X54296557Y-146284488D01*
X54397648Y-146300500D01*
X54397649Y-146300500D01*
X54602351Y-146300500D01*
X54602352Y-146300500D01*
X54804534Y-146268477D01*
X54999219Y-146205220D01*
X55181610Y-146112287D01*
X55310482Y-146018657D01*
X55347213Y-145991971D01*
X55347215Y-145991968D01*
X55347219Y-145991966D01*
X55463719Y-145875466D01*
X63100000Y-145875466D01*
X63100000Y-146124533D01*
X63132508Y-146371463D01*
X63196973Y-146612049D01*
X63292283Y-146842148D01*
X63292288Y-146842159D01*
X63416813Y-147057841D01*
X63416819Y-147057849D01*
X63491400Y-147155045D01*
X64398958Y-146247487D01*
X64423978Y-146307890D01*
X64495112Y-146414351D01*
X64585649Y-146504888D01*
X64692110Y-146576022D01*
X64752511Y-146601041D01*
X63844953Y-147508598D01*
X63942150Y-147583180D01*
X63942158Y-147583186D01*
X64157840Y-147707711D01*
X64157851Y-147707716D01*
X64387950Y-147803026D01*
X64628536Y-147867491D01*
X64875466Y-147900000D01*
X65124534Y-147900000D01*
X65371463Y-147867491D01*
X65612049Y-147803026D01*
X65842148Y-147707716D01*
X65842159Y-147707711D01*
X66057855Y-147583178D01*
X66155045Y-147508600D01*
X66155045Y-147508597D01*
X65247488Y-146601041D01*
X65307890Y-146576022D01*
X65414351Y-146504888D01*
X65504888Y-146414351D01*
X65576022Y-146307890D01*
X65601041Y-146247489D01*
X66508597Y-147155045D01*
X66508600Y-147155045D01*
X66583178Y-147057855D01*
X66707711Y-146842159D01*
X66707716Y-146842148D01*
X66803026Y-146612049D01*
X66867491Y-146371463D01*
X66900000Y-146124533D01*
X66900000Y-145875466D01*
X66867491Y-145628536D01*
X66803026Y-145387950D01*
X66707716Y-145157851D01*
X66707711Y-145157840D01*
X66583186Y-144942158D01*
X66583180Y-144942150D01*
X66508598Y-144844953D01*
X65601041Y-145752510D01*
X65576022Y-145692110D01*
X65504888Y-145585649D01*
X65414351Y-145495112D01*
X65307890Y-145423978D01*
X65247487Y-145398957D01*
X66155045Y-144491400D01*
X66057849Y-144416819D01*
X66057841Y-144416813D01*
X65842159Y-144292288D01*
X65842148Y-144292283D01*
X65612049Y-144196973D01*
X65371463Y-144132508D01*
X65124534Y-144100000D01*
X64875466Y-144100000D01*
X64628536Y-144132508D01*
X64387950Y-144196973D01*
X64157851Y-144292283D01*
X64157847Y-144292285D01*
X63942143Y-144416823D01*
X63844953Y-144491399D01*
X63844953Y-144491400D01*
X64752511Y-145398958D01*
X64692110Y-145423978D01*
X64585649Y-145495112D01*
X64495112Y-145585649D01*
X64423978Y-145692110D01*
X64398958Y-145752511D01*
X63491400Y-144844953D01*
X63491399Y-144844953D01*
X63416823Y-144942143D01*
X63292285Y-145157847D01*
X63292283Y-145157851D01*
X63196973Y-145387950D01*
X63132508Y-145628536D01*
X63100000Y-145875466D01*
X55463719Y-145875466D01*
X55491966Y-145847219D01*
X55612287Y-145681610D01*
X55705220Y-145499219D01*
X55768477Y-145304534D01*
X55800500Y-145102352D01*
X55800500Y-144897648D01*
X55768477Y-144695466D01*
X55705220Y-144500781D01*
X55612287Y-144318390D01*
X55587508Y-144284284D01*
X55491971Y-144152786D01*
X55347213Y-144008028D01*
X55181613Y-143887715D01*
X55181612Y-143887714D01*
X55181610Y-143887713D01*
X55121898Y-143857288D01*
X54999223Y-143794781D01*
X54804534Y-143731522D01*
X54629995Y-143703878D01*
X54602352Y-143699500D01*
X54397648Y-143699500D01*
X54373329Y-143703351D01*
X54195465Y-143731522D01*
X54000776Y-143794781D01*
X53818386Y-143887715D01*
X53652786Y-144008028D01*
X53508032Y-144152782D01*
X53508031Y-144152784D01*
X53467447Y-144208642D01*
X53412117Y-144251307D01*
X53342503Y-144257285D01*
X53280709Y-144224678D01*
X53249425Y-144174760D01*
X53234814Y-144130666D01*
X53142712Y-143981344D01*
X53018656Y-143857288D01*
X52869334Y-143765186D01*
X52702797Y-143710001D01*
X52702795Y-143710000D01*
X52600010Y-143699500D01*
X51399998Y-143699500D01*
X51399981Y-143699501D01*
X51297203Y-143710000D01*
X51297200Y-143710001D01*
X51130668Y-143765185D01*
X51130663Y-143765187D01*
X50981342Y-143857289D01*
X50857289Y-143981342D01*
X50765187Y-144130663D01*
X50765185Y-144130668D01*
X50742206Y-144200016D01*
X50702433Y-144257461D01*
X50637917Y-144284284D01*
X50569142Y-144271969D01*
X50517942Y-144224426D01*
X50500500Y-144161012D01*
X50500500Y-139799984D01*
X63099500Y-139799984D01*
X63099500Y-142200015D01*
X63110000Y-142302795D01*
X63110001Y-142302796D01*
X63165186Y-142469335D01*
X63165187Y-142469337D01*
X63257286Y-142618651D01*
X63257289Y-142618655D01*
X63381344Y-142742710D01*
X63381348Y-142742713D01*
X63530662Y-142834812D01*
X63530664Y-142834813D01*
X63530666Y-142834814D01*
X63697203Y-142889999D01*
X63799992Y-142900500D01*
X63799997Y-142900500D01*
X66200003Y-142900500D01*
X66200008Y-142900500D01*
X66302797Y-142889999D01*
X66469334Y-142834814D01*
X66618655Y-142742711D01*
X66742711Y-142618655D01*
X66834814Y-142469334D01*
X66889999Y-142302797D01*
X66900500Y-142200008D01*
X66900500Y-139799992D01*
X66889999Y-139697203D01*
X66834814Y-139530666D01*
X66742711Y-139381345D01*
X66618655Y-139257289D01*
X66618651Y-139257286D01*
X66469337Y-139165187D01*
X66469335Y-139165186D01*
X66386065Y-139137593D01*
X66302797Y-139110001D01*
X66302795Y-139110000D01*
X66200015Y-139099500D01*
X66200008Y-139099500D01*
X63799992Y-139099500D01*
X63799984Y-139099500D01*
X63697204Y-139110000D01*
X63697203Y-139110001D01*
X63530664Y-139165186D01*
X63530662Y-139165187D01*
X63381348Y-139257286D01*
X63381344Y-139257289D01*
X63257289Y-139381344D01*
X63257286Y-139381348D01*
X63165187Y-139530662D01*
X63165186Y-139530664D01*
X63110001Y-139697203D01*
X63110000Y-139697204D01*
X63099500Y-139799984D01*
X50500500Y-139799984D01*
X50500500Y-136057648D01*
X51699500Y-136057648D01*
X51699500Y-136262351D01*
X51731522Y-136464534D01*
X51794781Y-136659223D01*
X51887715Y-136841613D01*
X52008028Y-137007213D01*
X52152786Y-137151971D01*
X52307749Y-137264556D01*
X52318390Y-137272287D01*
X52434607Y-137331503D01*
X52500776Y-137365218D01*
X52500778Y-137365218D01*
X52500781Y-137365220D01*
X52605137Y-137399127D01*
X52695465Y-137428477D01*
X52796557Y-137444488D01*
X52897648Y-137460500D01*
X52897649Y-137460500D01*
X53102351Y-137460500D01*
X53102352Y-137460500D01*
X53304534Y-137428477D01*
X53499219Y-137365220D01*
X53681610Y-137272287D01*
X53774590Y-137204732D01*
X53847213Y-137151971D01*
X53847215Y-137151968D01*
X53847219Y-137151966D01*
X53991966Y-137007219D01*
X53991968Y-137007215D01*
X53991971Y-137007213D01*
X54044732Y-136934590D01*
X54112287Y-136841610D01*
X54205220Y-136659219D01*
X54268477Y-136464534D01*
X54300500Y-136262352D01*
X54300500Y-136057648D01*
X54268477Y-135855466D01*
X54205220Y-135660781D01*
X54205218Y-135660778D01*
X54205218Y-135660776D01*
X54171503Y-135594607D01*
X54112287Y-135478390D01*
X54104556Y-135467749D01*
X53991971Y-135312786D01*
X53847213Y-135168028D01*
X53681613Y-135047715D01*
X53681612Y-135047714D01*
X53681610Y-135047713D01*
X53624653Y-135018691D01*
X53499223Y-134954781D01*
X53304534Y-134891522D01*
X53129995Y-134863878D01*
X53102352Y-134859500D01*
X52897648Y-134859500D01*
X52873329Y-134863351D01*
X52695465Y-134891522D01*
X52500776Y-134954781D01*
X52318386Y-135047715D01*
X52152786Y-135168028D01*
X52008028Y-135312786D01*
X51887715Y-135478386D01*
X51794781Y-135660776D01*
X51731522Y-135855465D01*
X51699500Y-136057648D01*
X50500500Y-136057648D01*
X50500500Y-130897648D01*
X62199500Y-130897648D01*
X62199500Y-131102351D01*
X62231522Y-131304534D01*
X62294781Y-131499223D01*
X62337248Y-131582567D01*
X62387585Y-131681359D01*
X62387715Y-131681613D01*
X62508028Y-131847213D01*
X62652786Y-131991971D01*
X62773226Y-132079474D01*
X62818390Y-132112287D01*
X62934607Y-132171503D01*
X63000776Y-132205218D01*
X63000778Y-132205218D01*
X63000781Y-132205220D01*
X63105137Y-132239127D01*
X63195465Y-132268477D01*
X63296557Y-132284488D01*
X63397648Y-132300500D01*
X63397649Y-132300500D01*
X63602351Y-132300500D01*
X63602352Y-132300500D01*
X63804534Y-132268477D01*
X63999219Y-132205220D01*
X64181610Y-132112287D01*
X64274590Y-132044732D01*
X64347213Y-131991971D01*
X64347215Y-131991968D01*
X64347219Y-131991966D01*
X64491966Y-131847219D01*
X64491968Y-131847215D01*
X64491971Y-131847213D01*
X64612286Y-131681611D01*
X64612415Y-131681359D01*
X64639795Y-131627621D01*
X64687769Y-131576826D01*
X64755589Y-131560030D01*
X64821725Y-131582567D01*
X64860765Y-131627621D01*
X64888141Y-131681350D01*
X64888147Y-131681359D01*
X64920523Y-131725921D01*
X64920524Y-131725922D01*
X65600000Y-131046446D01*
X65600000Y-131052661D01*
X65627259Y-131154394D01*
X65679920Y-131245606D01*
X65754394Y-131320080D01*
X65845606Y-131372741D01*
X65947339Y-131400000D01*
X65953553Y-131400000D01*
X65274076Y-132079474D01*
X65318650Y-132111859D01*
X65500968Y-132204755D01*
X65695582Y-132267990D01*
X65897683Y-132300000D01*
X66102317Y-132300000D01*
X66304417Y-132267990D01*
X66499031Y-132204755D01*
X66681349Y-132111859D01*
X66725921Y-132079474D01*
X66046447Y-131400000D01*
X66052661Y-131400000D01*
X66154394Y-131372741D01*
X66245606Y-131320080D01*
X66320080Y-131245606D01*
X66372741Y-131154394D01*
X66400000Y-131052661D01*
X66400000Y-131046447D01*
X67079474Y-131725921D01*
X67111859Y-131681349D01*
X67204755Y-131499031D01*
X67267990Y-131304417D01*
X67300000Y-131102317D01*
X67300000Y-130897682D01*
X67267990Y-130695582D01*
X67204755Y-130500968D01*
X67111859Y-130318650D01*
X67079474Y-130274077D01*
X67079474Y-130274076D01*
X66400000Y-130953551D01*
X66400000Y-130947339D01*
X66372741Y-130845606D01*
X66320080Y-130754394D01*
X66245606Y-130679920D01*
X66154394Y-130627259D01*
X66052661Y-130600000D01*
X66046446Y-130600000D01*
X66725922Y-129920524D01*
X66725921Y-129920523D01*
X66681359Y-129888147D01*
X66681350Y-129888141D01*
X66499031Y-129795244D01*
X66304417Y-129732009D01*
X66102317Y-129700000D01*
X65897683Y-129700000D01*
X65695582Y-129732009D01*
X65500968Y-129795244D01*
X65318644Y-129888143D01*
X65274077Y-129920523D01*
X65274077Y-129920524D01*
X65953554Y-130600000D01*
X65947339Y-130600000D01*
X65845606Y-130627259D01*
X65754394Y-130679920D01*
X65679920Y-130754394D01*
X65627259Y-130845606D01*
X65600000Y-130947339D01*
X65600000Y-130953553D01*
X64920524Y-130274077D01*
X64920523Y-130274077D01*
X64888143Y-130318644D01*
X64860765Y-130372378D01*
X64812790Y-130423174D01*
X64744969Y-130439969D01*
X64678834Y-130417431D01*
X64639795Y-130372378D01*
X64612284Y-130318385D01*
X64491971Y-130152786D01*
X64347213Y-130008028D01*
X64181613Y-129887715D01*
X64181612Y-129887714D01*
X64181610Y-129887713D01*
X64124653Y-129858691D01*
X63999223Y-129794781D01*
X63804534Y-129731522D01*
X63629995Y-129703878D01*
X63602352Y-129699500D01*
X63397648Y-129699500D01*
X63373329Y-129703351D01*
X63195465Y-129731522D01*
X63000776Y-129794781D01*
X62818386Y-129887715D01*
X62652786Y-130008028D01*
X62508028Y-130152786D01*
X62387715Y-130318386D01*
X62294781Y-130500776D01*
X62231522Y-130695465D01*
X62199500Y-130897648D01*
X50500500Y-130897648D01*
X50500500Y-125897648D01*
X51699500Y-125897648D01*
X51699500Y-126102351D01*
X51731522Y-126304534D01*
X51794781Y-126499223D01*
X51887715Y-126681613D01*
X52008028Y-126847213D01*
X52152786Y-126991971D01*
X52307749Y-127104556D01*
X52318390Y-127112287D01*
X52401030Y-127154394D01*
X52500776Y-127205218D01*
X52500778Y-127205218D01*
X52500781Y-127205220D01*
X52605137Y-127239127D01*
X52695465Y-127268477D01*
X52796557Y-127284488D01*
X52897648Y-127300500D01*
X52897649Y-127300500D01*
X53102351Y-127300500D01*
X53102352Y-127300500D01*
X53304534Y-127268477D01*
X53499219Y-127205220D01*
X53681610Y-127112287D01*
X53774590Y-127044732D01*
X53847213Y-126991971D01*
X53847215Y-126991968D01*
X53847219Y-126991966D01*
X53991966Y-126847219D01*
X53991968Y-126847215D01*
X53991971Y-126847213D01*
X54059407Y-126754394D01*
X54112287Y-126681610D01*
X54205220Y-126499219D01*
X54268477Y-126304534D01*
X54300500Y-126102352D01*
X54300500Y-125897648D01*
X54268477Y-125695466D01*
X54205220Y-125500781D01*
X54205218Y-125500778D01*
X54205218Y-125500776D01*
X54171503Y-125434607D01*
X54112287Y-125318390D01*
X54104556Y-125307749D01*
X53991971Y-125152786D01*
X53847213Y-125008028D01*
X53681613Y-124887715D01*
X53681612Y-124887714D01*
X53681610Y-124887713D01*
X53624653Y-124858691D01*
X53499223Y-124794781D01*
X53304534Y-124731522D01*
X53129995Y-124703878D01*
X53102352Y-124699500D01*
X52897648Y-124699500D01*
X52873329Y-124703351D01*
X52695465Y-124731522D01*
X52500776Y-124794781D01*
X52318386Y-124887715D01*
X52152786Y-125008028D01*
X52008028Y-125152786D01*
X51887715Y-125318386D01*
X51794781Y-125500776D01*
X51731522Y-125695465D01*
X51699500Y-125897648D01*
X50500500Y-125897648D01*
X50500500Y-119396861D01*
X51689500Y-119396861D01*
X51689500Y-119603138D01*
X51721769Y-119806877D01*
X51721769Y-119806880D01*
X51785510Y-120003054D01*
X51785512Y-120003057D01*
X51879160Y-120186852D01*
X52000407Y-120353733D01*
X52146267Y-120499593D01*
X52313148Y-120620840D01*
X52406076Y-120668189D01*
X52496945Y-120714489D01*
X52693120Y-120778230D01*
X52693121Y-120778230D01*
X52693124Y-120778231D01*
X52896861Y-120810500D01*
X52896862Y-120810500D01*
X53103138Y-120810500D01*
X53103139Y-120810500D01*
X53306876Y-120778231D01*
X53306879Y-120778230D01*
X53306880Y-120778230D01*
X53503054Y-120714489D01*
X53503054Y-120714488D01*
X53503057Y-120714488D01*
X53686852Y-120620840D01*
X53853733Y-120499593D01*
X53999593Y-120353733D01*
X54120840Y-120186852D01*
X54214488Y-120003057D01*
X54278231Y-119806876D01*
X54310500Y-119603139D01*
X54310500Y-119396861D01*
X54278231Y-119193124D01*
X54278230Y-119193120D01*
X54278230Y-119193119D01*
X54214489Y-118996945D01*
X54211940Y-118991943D01*
X54120840Y-118813148D01*
X53999593Y-118646267D01*
X53853733Y-118500407D01*
X53686852Y-118379160D01*
X53677039Y-118374160D01*
X53503054Y-118285510D01*
X53306879Y-118221769D01*
X53154073Y-118197567D01*
X53103139Y-118189500D01*
X52896861Y-118189500D01*
X52828948Y-118200256D01*
X52693122Y-118221769D01*
X52693119Y-118221769D01*
X52496945Y-118285510D01*
X52313147Y-118379160D01*
X52146265Y-118500408D01*
X52000408Y-118646265D01*
X51879160Y-118813147D01*
X51785510Y-118996945D01*
X51721769Y-119193119D01*
X51721769Y-119193122D01*
X51689500Y-119396861D01*
X50500500Y-119396861D01*
X50500500Y-101330519D01*
X50520185Y-101263480D01*
X50572989Y-101217725D01*
X50642147Y-101207781D01*
X50705703Y-101236806D01*
X50712181Y-101242838D01*
X51560008Y-102090665D01*
X51593493Y-102151988D01*
X51588509Y-102221680D01*
X51586514Y-102226228D01*
X51586643Y-102226282D01*
X51584779Y-102230781D01*
X51521523Y-102425461D01*
X51521523Y-102425464D01*
X51489500Y-102627648D01*
X51489500Y-102832351D01*
X51521522Y-103034534D01*
X51584781Y-103229223D01*
X51677715Y-103411613D01*
X51798028Y-103577213D01*
X51942786Y-103721971D01*
X52097749Y-103834556D01*
X52108390Y-103842287D01*
X52199840Y-103888883D01*
X52201080Y-103889515D01*
X52251876Y-103937490D01*
X52268671Y-104005311D01*
X52246134Y-104071446D01*
X52201080Y-104110485D01*
X52108386Y-104157715D01*
X51942786Y-104278028D01*
X51798028Y-104422786D01*
X51677715Y-104588386D01*
X51584781Y-104770776D01*
X51521522Y-104965465D01*
X51489500Y-105167648D01*
X51489500Y-105372351D01*
X51521522Y-105574534D01*
X51584781Y-105769223D01*
X51677715Y-105951613D01*
X51798028Y-106117213D01*
X51942786Y-106261971D01*
X52097749Y-106374556D01*
X52108390Y-106382287D01*
X52199840Y-106428883D01*
X52201080Y-106429515D01*
X52251876Y-106477490D01*
X52268671Y-106545311D01*
X52246134Y-106611446D01*
X52201080Y-106650485D01*
X52108386Y-106697715D01*
X51942786Y-106818028D01*
X51798028Y-106962786D01*
X51677715Y-107128386D01*
X51584781Y-107310776D01*
X51521522Y-107505465D01*
X51489500Y-107707648D01*
X51489500Y-107912351D01*
X51521522Y-108114534D01*
X51584781Y-108309223D01*
X51677715Y-108491613D01*
X51798028Y-108657213D01*
X51942786Y-108801971D01*
X52097749Y-108914556D01*
X52108390Y-108922287D01*
X52224607Y-108981503D01*
X52290776Y-109015218D01*
X52290778Y-109015218D01*
X52290781Y-109015220D01*
X52395137Y-109049127D01*
X52485465Y-109078477D01*
X52586557Y-109094488D01*
X52687648Y-109110500D01*
X52687649Y-109110500D01*
X53599480Y-109110500D01*
X53666519Y-109130185D01*
X53712274Y-109182989D01*
X53722218Y-109252147D01*
X53693193Y-109315703D01*
X53687161Y-109322181D01*
X52455888Y-110553453D01*
X52455884Y-110553458D01*
X52429539Y-110592887D01*
X52422975Y-110602712D01*
X52401024Y-110635563D01*
X52379223Y-110668191D01*
X52326421Y-110795667D01*
X52326418Y-110795677D01*
X52299500Y-110931004D01*
X52299500Y-113325894D01*
X52279815Y-113392933D01*
X52248387Y-113426211D01*
X52146267Y-113500406D01*
X52000408Y-113646265D01*
X51879160Y-113813147D01*
X51785510Y-113996945D01*
X51721769Y-114193119D01*
X51721769Y-114193122D01*
X51689500Y-114396861D01*
X51689500Y-114603138D01*
X51721769Y-114806877D01*
X51721769Y-114806880D01*
X51785510Y-115003054D01*
X51785512Y-115003057D01*
X51879160Y-115186852D01*
X52000407Y-115353733D01*
X52146267Y-115499593D01*
X52313148Y-115620840D01*
X52418370Y-115674453D01*
X52496945Y-115714489D01*
X52693120Y-115778230D01*
X52693121Y-115778230D01*
X52693124Y-115778231D01*
X52896861Y-115810500D01*
X52896862Y-115810500D01*
X53103138Y-115810500D01*
X53103139Y-115810500D01*
X53306876Y-115778231D01*
X53306879Y-115778230D01*
X53306880Y-115778230D01*
X53503054Y-115714489D01*
X53503054Y-115714488D01*
X53503057Y-115714488D01*
X53686852Y-115620840D01*
X53853733Y-115499593D01*
X53999593Y-115353733D01*
X54120840Y-115186852D01*
X54214488Y-115003057D01*
X54278231Y-114806876D01*
X54310500Y-114603139D01*
X54310500Y-114396861D01*
X54278231Y-114193124D01*
X54278230Y-114193120D01*
X54278230Y-114193119D01*
X54214489Y-113996945D01*
X54120839Y-113813147D01*
X54117207Y-113808148D01*
X53999593Y-113646267D01*
X53853733Y-113500407D01*
X53846853Y-113495408D01*
X53751613Y-113426211D01*
X53708948Y-113370881D01*
X53700500Y-113325894D01*
X53700500Y-111341519D01*
X53720185Y-111274480D01*
X53736819Y-111253838D01*
X57544112Y-107446545D01*
X57544114Y-107446543D01*
X57620775Y-107331811D01*
X57673580Y-107204329D01*
X57688685Y-107128390D01*
X57700500Y-107068993D01*
X57700500Y-94231518D01*
X57720185Y-94164479D01*
X57736814Y-94143841D01*
X58762974Y-93117681D01*
X58824295Y-93084198D01*
X58893987Y-93089182D01*
X58949920Y-93131054D01*
X58968584Y-93167045D01*
X59014781Y-93309223D01*
X59107715Y-93491613D01*
X59228028Y-93657213D01*
X59372786Y-93801971D01*
X59527749Y-93914556D01*
X59538390Y-93922287D01*
X59654607Y-93981503D01*
X59720776Y-94015218D01*
X59720778Y-94015218D01*
X59720781Y-94015220D01*
X59807027Y-94043243D01*
X59915465Y-94078477D01*
X60016557Y-94094488D01*
X60117648Y-94110500D01*
X60117649Y-94110500D01*
X61122351Y-94110500D01*
X61122352Y-94110500D01*
X61324534Y-94078477D01*
X61519219Y-94015220D01*
X61701610Y-93922287D01*
X61794590Y-93854732D01*
X61867213Y-93801971D01*
X61867215Y-93801968D01*
X61867219Y-93801966D01*
X62011966Y-93657219D01*
X62011968Y-93657215D01*
X62011971Y-93657213D01*
X62083915Y-93558189D01*
X62132287Y-93491610D01*
X62225220Y-93309219D01*
X62288477Y-93114534D01*
X62320500Y-92912352D01*
X62320500Y-92707648D01*
X62288477Y-92505466D01*
X62225220Y-92310781D01*
X62225218Y-92310777D01*
X62225218Y-92310776D01*
X62153827Y-92170665D01*
X62132287Y-92128390D01*
X62124556Y-92117749D01*
X62011971Y-91962786D01*
X61867213Y-91818028D01*
X61701614Y-91697715D01*
X61695006Y-91694348D01*
X61608917Y-91650483D01*
X61558123Y-91602511D01*
X61541328Y-91534690D01*
X61563865Y-91468555D01*
X61608917Y-91429516D01*
X61701610Y-91382287D01*
X61722770Y-91366913D01*
X61867213Y-91261971D01*
X61867215Y-91261968D01*
X61867219Y-91261966D01*
X62011966Y-91117219D01*
X62011968Y-91117215D01*
X62011971Y-91117213D01*
X62064732Y-91044590D01*
X62132287Y-90951610D01*
X62225220Y-90769219D01*
X62288477Y-90574534D01*
X62320500Y-90372352D01*
X62320500Y-90167648D01*
X62288477Y-89965466D01*
X62225220Y-89770781D01*
X62225218Y-89770778D01*
X62225218Y-89770776D01*
X62191503Y-89704607D01*
X62132287Y-89588390D01*
X62124556Y-89577749D01*
X62011971Y-89422786D01*
X61867213Y-89278028D01*
X61701614Y-89157715D01*
X61695006Y-89154348D01*
X61608917Y-89110483D01*
X61558123Y-89062511D01*
X61541328Y-88994690D01*
X61563865Y-88928555D01*
X61608917Y-88889516D01*
X61701610Y-88842287D01*
X61722770Y-88826913D01*
X61867213Y-88721971D01*
X61867215Y-88721968D01*
X61867219Y-88721966D01*
X62011966Y-88577219D01*
X62081425Y-88481615D01*
X62136755Y-88438949D01*
X62181744Y-88430500D01*
X62388481Y-88430500D01*
X62455520Y-88450185D01*
G37*
%TD.AperFunction*%
%TA.AperFunction,Conductor*%
G36*
X59123917Y-85951125D02*
G01*
X59140835Y-85952335D01*
X59155802Y-85963539D01*
X59173222Y-85970322D01*
X59196531Y-85994029D01*
X59196768Y-85994207D01*
X59196955Y-85994461D01*
X59196968Y-85994474D01*
X59197389Y-85995040D01*
X59228034Y-86037219D01*
X59230981Y-86040166D01*
X59372786Y-86181971D01*
X59491854Y-86268477D01*
X59538390Y-86302287D01*
X59629840Y-86348883D01*
X59631080Y-86349515D01*
X59681876Y-86397490D01*
X59698671Y-86465311D01*
X59676134Y-86531446D01*
X59631080Y-86570485D01*
X59538386Y-86617715D01*
X59372786Y-86738028D01*
X59228028Y-86882786D01*
X59107715Y-87048386D01*
X59014781Y-87230776D01*
X58951522Y-87425465D01*
X58919500Y-87627648D01*
X58919500Y-87832351D01*
X58951522Y-88034534D01*
X59014781Y-88229223D01*
X59107715Y-88411613D01*
X59228028Y-88577213D01*
X59372786Y-88721971D01*
X59527749Y-88834556D01*
X59538390Y-88842287D01*
X59629840Y-88888883D01*
X59631080Y-88889515D01*
X59681876Y-88937490D01*
X59698671Y-89005311D01*
X59676134Y-89071446D01*
X59631080Y-89110485D01*
X59538386Y-89157715D01*
X59372786Y-89278028D01*
X59228028Y-89422786D01*
X59107715Y-89588386D01*
X59014781Y-89770776D01*
X58951522Y-89965465D01*
X58919500Y-90167648D01*
X58919500Y-90372351D01*
X58951522Y-90574534D01*
X58987655Y-90685737D01*
X59014780Y-90769219D01*
X59014782Y-90769223D01*
X59014784Y-90769229D01*
X59016647Y-90773728D01*
X59014549Y-90774596D01*
X59025707Y-90834039D01*
X58999424Y-90898777D01*
X58990008Y-90909333D01*
X56455887Y-93443454D01*
X56379222Y-93558192D01*
X56326421Y-93685667D01*
X56326418Y-93685679D01*
X56303288Y-93801963D01*
X56299500Y-93821006D01*
X56299500Y-106658480D01*
X56279815Y-106725519D01*
X56263181Y-106746161D01*
X55102181Y-107907161D01*
X55040858Y-107940646D01*
X54971166Y-107935662D01*
X54915233Y-107893790D01*
X54890816Y-107828326D01*
X54890500Y-107819480D01*
X54890500Y-107707648D01*
X54858477Y-107505465D01*
X54795218Y-107310776D01*
X54740980Y-107204329D01*
X54702287Y-107128390D01*
X54679500Y-107097026D01*
X54581971Y-106962786D01*
X54437213Y-106818028D01*
X54271614Y-106697715D01*
X54265006Y-106694348D01*
X54178917Y-106650483D01*
X54128123Y-106602511D01*
X54111328Y-106534690D01*
X54133865Y-106468555D01*
X54178917Y-106429516D01*
X54271610Y-106382287D01*
X54292770Y-106366913D01*
X54437213Y-106261971D01*
X54437215Y-106261968D01*
X54437219Y-106261966D01*
X54581966Y-106117219D01*
X54581968Y-106117215D01*
X54581971Y-106117213D01*
X54634732Y-106044590D01*
X54702287Y-105951610D01*
X54795220Y-105769219D01*
X54858477Y-105574534D01*
X54890500Y-105372352D01*
X54890500Y-105167648D01*
X54858477Y-104965466D01*
X54795220Y-104770781D01*
X54795218Y-104770778D01*
X54795218Y-104770776D01*
X54761503Y-104704607D01*
X54702287Y-104588390D01*
X54679500Y-104557026D01*
X54581971Y-104422786D01*
X54437213Y-104278028D01*
X54271614Y-104157715D01*
X54265006Y-104154348D01*
X54178917Y-104110483D01*
X54128123Y-104062511D01*
X54111328Y-103994690D01*
X54133865Y-103928555D01*
X54178917Y-103889516D01*
X54271610Y-103842287D01*
X54292770Y-103826913D01*
X54437213Y-103721971D01*
X54437215Y-103721968D01*
X54437219Y-103721966D01*
X54581966Y-103577219D01*
X54581968Y-103577215D01*
X54581971Y-103577213D01*
X54634732Y-103504590D01*
X54702287Y-103411610D01*
X54795220Y-103229219D01*
X54858477Y-103034534D01*
X54890500Y-102832352D01*
X54890500Y-102627648D01*
X54858477Y-102425466D01*
X54858476Y-102425464D01*
X54795218Y-102230776D01*
X54723827Y-102090665D01*
X54702287Y-102048390D01*
X54679500Y-102017026D01*
X54581971Y-101882786D01*
X54437217Y-101738032D01*
X54437212Y-101738028D01*
X54343051Y-101669616D01*
X54300385Y-101614286D01*
X54294406Y-101544673D01*
X54327012Y-101482878D01*
X54376933Y-101451592D01*
X54459117Y-101424359D01*
X54459124Y-101424356D01*
X54608345Y-101332315D01*
X54732315Y-101208345D01*
X54824356Y-101059124D01*
X54824358Y-101059119D01*
X54879505Y-100892697D01*
X54879506Y-100892690D01*
X54889999Y-100789986D01*
X54890000Y-100789973D01*
X54890000Y-100440000D01*
X53505686Y-100440000D01*
X53510080Y-100435606D01*
X53562741Y-100344394D01*
X53590000Y-100242661D01*
X53590000Y-100137339D01*
X53562741Y-100035606D01*
X53510080Y-99944394D01*
X53505686Y-99940000D01*
X54889999Y-99940000D01*
X54889999Y-99590028D01*
X54889998Y-99590013D01*
X54879505Y-99487302D01*
X54824358Y-99320880D01*
X54824356Y-99320875D01*
X54732315Y-99171654D01*
X54608345Y-99047684D01*
X54459124Y-98955643D01*
X54459119Y-98955641D01*
X54292697Y-98900494D01*
X54292690Y-98900493D01*
X54189986Y-98890000D01*
X53440000Y-98890000D01*
X53440000Y-99874314D01*
X53435606Y-99869920D01*
X53344394Y-99817259D01*
X53242661Y-99790000D01*
X53137339Y-99790000D01*
X53035606Y-99817259D01*
X52944394Y-99869920D01*
X52940000Y-99874314D01*
X52940000Y-98890000D01*
X52190028Y-98890000D01*
X52190012Y-98890001D01*
X52087302Y-98900494D01*
X51920880Y-98955641D01*
X51920875Y-98955643D01*
X51771654Y-99047684D01*
X51647683Y-99171655D01*
X51647680Y-99171659D01*
X51630038Y-99200262D01*
X51578090Y-99246987D01*
X51509128Y-99258208D01*
X51445046Y-99230365D01*
X51406190Y-99172296D01*
X51400500Y-99135165D01*
X51400500Y-93749047D01*
X51420185Y-93682008D01*
X51472989Y-93636253D01*
X51542147Y-93626309D01*
X51605703Y-93655334D01*
X51612181Y-93661366D01*
X51752786Y-93801971D01*
X51907749Y-93914556D01*
X51918390Y-93922287D01*
X52034607Y-93981503D01*
X52100776Y-94015218D01*
X52100778Y-94015218D01*
X52100781Y-94015220D01*
X52187027Y-94043243D01*
X52295465Y-94078477D01*
X52396557Y-94094488D01*
X52497648Y-94110500D01*
X52497649Y-94110500D01*
X53502351Y-94110500D01*
X53502352Y-94110500D01*
X53704534Y-94078477D01*
X53899219Y-94015220D01*
X54081610Y-93922287D01*
X54174590Y-93854732D01*
X54247213Y-93801971D01*
X54247215Y-93801968D01*
X54247219Y-93801966D01*
X54391966Y-93657219D01*
X54391968Y-93657215D01*
X54391971Y-93657213D01*
X54463915Y-93558189D01*
X54512287Y-93491610D01*
X54605220Y-93309219D01*
X54668477Y-93114534D01*
X54700500Y-92912352D01*
X54700500Y-92707648D01*
X54668477Y-92505466D01*
X54605220Y-92310781D01*
X54605218Y-92310777D01*
X54603356Y-92306282D01*
X54605450Y-92305414D01*
X54594292Y-92245955D01*
X54620577Y-92181218D01*
X54629981Y-92170674D01*
X56544114Y-90256543D01*
X56620775Y-90141811D01*
X56673580Y-90014328D01*
X56700500Y-89878994D01*
X56700500Y-89741006D01*
X56700500Y-88341519D01*
X56720185Y-88274480D01*
X56736819Y-88253838D01*
X57804771Y-87185886D01*
X59009822Y-85980834D01*
X59026227Y-85971876D01*
X59039635Y-85958847D01*
X59056257Y-85955478D01*
X59071143Y-85947351D01*
X59089790Y-85948684D01*
X59108114Y-85944972D01*
X59123917Y-85951125D01*
G37*
%TD.AperFunction*%
%TA.AperFunction,Conductor*%
G36*
X54623630Y-63152240D02*
G01*
X54680519Y-63192805D01*
X54706446Y-63257686D01*
X54707000Y-63269395D01*
X54707000Y-66797870D01*
X54707001Y-66797876D01*
X54713408Y-66857483D01*
X54763702Y-66992328D01*
X54763706Y-66992335D01*
X54849952Y-67107544D01*
X54849955Y-67107547D01*
X54965164Y-67193793D01*
X54965171Y-67193797D01*
X55100017Y-67244091D01*
X55100016Y-67244091D01*
X55106944Y-67244835D01*
X55159627Y-67250500D01*
X58755372Y-67250499D01*
X58814983Y-67244091D01*
X58949831Y-67193796D01*
X59065046Y-67107546D01*
X59076234Y-67092599D01*
X59132167Y-67050730D01*
X59201858Y-67045746D01*
X59263181Y-67079231D01*
X59296666Y-67140554D01*
X59299500Y-67166912D01*
X59299500Y-67931006D01*
X59299500Y-68068994D01*
X59299500Y-68068996D01*
X59299499Y-68068996D01*
X59326418Y-68204322D01*
X59326421Y-68204332D01*
X59379222Y-68331807D01*
X59455887Y-68446545D01*
X61586433Y-70577091D01*
X61619918Y-70638414D01*
X61614934Y-70708106D01*
X61573062Y-70764039D01*
X61507598Y-70788456D01*
X61460433Y-70782703D01*
X61304417Y-70732009D01*
X61102317Y-70700000D01*
X60897683Y-70700000D01*
X60695582Y-70732009D01*
X60500968Y-70795244D01*
X60318644Y-70888143D01*
X60274077Y-70920523D01*
X60274077Y-70920524D01*
X60953554Y-71600000D01*
X60947339Y-71600000D01*
X60845606Y-71627259D01*
X60754394Y-71679920D01*
X60679920Y-71754394D01*
X60627259Y-71845606D01*
X60600000Y-71947339D01*
X60600000Y-71953553D01*
X59920524Y-71274077D01*
X59920523Y-71274077D01*
X59888143Y-71318644D01*
X59860765Y-71372378D01*
X59812790Y-71423174D01*
X59744969Y-71439969D01*
X59678834Y-71417431D01*
X59639795Y-71372378D01*
X59612284Y-71318385D01*
X59491971Y-71152786D01*
X59347213Y-71008028D01*
X59181613Y-70887715D01*
X59181612Y-70887714D01*
X59181610Y-70887713D01*
X59124653Y-70858691D01*
X58999223Y-70794781D01*
X58804534Y-70731522D01*
X58629995Y-70703878D01*
X58602352Y-70699500D01*
X58397648Y-70699500D01*
X58373329Y-70703351D01*
X58195465Y-70731522D01*
X58000776Y-70794781D01*
X57818386Y-70887715D01*
X57652786Y-71008028D01*
X57508028Y-71152786D01*
X57387715Y-71318386D01*
X57294781Y-71500776D01*
X57231522Y-71695465D01*
X57199500Y-71897648D01*
X57199500Y-72102351D01*
X57231522Y-72304534D01*
X57294781Y-72499223D01*
X57337248Y-72582567D01*
X57387585Y-72681359D01*
X57387715Y-72681613D01*
X57508028Y-72847213D01*
X57652786Y-72991971D01*
X57773226Y-73079474D01*
X57818390Y-73112287D01*
X57934607Y-73171503D01*
X58000776Y-73205218D01*
X58000778Y-73205218D01*
X58000781Y-73205220D01*
X58105137Y-73239127D01*
X58195465Y-73268477D01*
X58296557Y-73284488D01*
X58397648Y-73300500D01*
X58397649Y-73300500D01*
X58602351Y-73300500D01*
X58602352Y-73300500D01*
X58804534Y-73268477D01*
X58999219Y-73205220D01*
X59181610Y-73112287D01*
X59274590Y-73044732D01*
X59347213Y-72991971D01*
X59347215Y-72991968D01*
X59347219Y-72991966D01*
X59491966Y-72847219D01*
X59491968Y-72847215D01*
X59491971Y-72847213D01*
X59612286Y-72681611D01*
X59612415Y-72681359D01*
X59639795Y-72627621D01*
X59687769Y-72576826D01*
X59755589Y-72560030D01*
X59821725Y-72582567D01*
X59860765Y-72627621D01*
X59888141Y-72681350D01*
X59888147Y-72681359D01*
X59920523Y-72725921D01*
X59920524Y-72725922D01*
X60600000Y-72046446D01*
X60600000Y-72052661D01*
X60627259Y-72154394D01*
X60679920Y-72245606D01*
X60754394Y-72320080D01*
X60845606Y-72372741D01*
X60947339Y-72400000D01*
X60953553Y-72400000D01*
X60274076Y-73079474D01*
X60318650Y-73111859D01*
X60500968Y-73204755D01*
X60695582Y-73267990D01*
X60897683Y-73300000D01*
X61102317Y-73300000D01*
X61304417Y-73267990D01*
X61499031Y-73204755D01*
X61681349Y-73111859D01*
X61725921Y-73079474D01*
X61046447Y-72400000D01*
X61052661Y-72400000D01*
X61154394Y-72372741D01*
X61245606Y-72320080D01*
X61320080Y-72245606D01*
X61372741Y-72154394D01*
X61400000Y-72052661D01*
X61400000Y-72046446D01*
X62079474Y-72725921D01*
X62111859Y-72681349D01*
X62204755Y-72499031D01*
X62267990Y-72304417D01*
X62300000Y-72102317D01*
X62300000Y-71897682D01*
X62267990Y-71695582D01*
X62217296Y-71539565D01*
X62215301Y-71469724D01*
X62251381Y-71409891D01*
X62314082Y-71379062D01*
X62383496Y-71387026D01*
X62422908Y-71413565D01*
X68263181Y-77253838D01*
X68296666Y-77315161D01*
X68299500Y-77341519D01*
X68299500Y-84194432D01*
X68279815Y-84261471D01*
X68227011Y-84307226D01*
X68157853Y-84317170D01*
X68094297Y-84288145D01*
X68075182Y-84267317D01*
X67991971Y-84152787D01*
X67991967Y-84152782D01*
X67847213Y-84008028D01*
X67681613Y-83887715D01*
X67681612Y-83887714D01*
X67681610Y-83887713D01*
X67624653Y-83858691D01*
X67499223Y-83794781D01*
X67304534Y-83731522D01*
X67129995Y-83703878D01*
X67102352Y-83699500D01*
X66897648Y-83699500D01*
X66873329Y-83703351D01*
X66695465Y-83731522D01*
X66500776Y-83794781D01*
X66318386Y-83887715D01*
X66152786Y-84008028D01*
X66008030Y-84152784D01*
X65938575Y-84248384D01*
X65883245Y-84291051D01*
X65838256Y-84299500D01*
X62020047Y-84299500D01*
X61953008Y-84279815D01*
X61932366Y-84263181D01*
X61867213Y-84198028D01*
X61701613Y-84077715D01*
X61701612Y-84077714D01*
X61701610Y-84077713D01*
X61642675Y-84047684D01*
X61519223Y-83984781D01*
X61324534Y-83921522D01*
X61149995Y-83893878D01*
X61122352Y-83889500D01*
X60117648Y-83889500D01*
X60093329Y-83893351D01*
X59915465Y-83921522D01*
X59720776Y-83984781D01*
X59538386Y-84077715D01*
X59372786Y-84198028D01*
X59228030Y-84342784D01*
X59158575Y-84438384D01*
X59103245Y-84481051D01*
X59058256Y-84489500D01*
X58741005Y-84489500D01*
X58605677Y-84516418D01*
X58605667Y-84516421D01*
X58478192Y-84569222D01*
X58363454Y-84645887D01*
X55455888Y-87553453D01*
X55455882Y-87553461D01*
X55384023Y-87661007D01*
X55384023Y-87661009D01*
X55379223Y-87668191D01*
X55379222Y-87668193D01*
X55326421Y-87795667D01*
X55326418Y-87795677D01*
X55299500Y-87931004D01*
X55299500Y-89468480D01*
X55279815Y-89535519D01*
X55263181Y-89556161D01*
X54857026Y-89962315D01*
X54795703Y-89995800D01*
X54726011Y-89990816D01*
X54670078Y-89948944D01*
X54651414Y-89912952D01*
X54640381Y-89878996D01*
X54605220Y-89770781D01*
X54512287Y-89588390D01*
X54504556Y-89577749D01*
X54391971Y-89422786D01*
X54247213Y-89278028D01*
X54081614Y-89157715D01*
X54075006Y-89154348D01*
X53988917Y-89110483D01*
X53938123Y-89062511D01*
X53921328Y-88994690D01*
X53943865Y-88928555D01*
X53988917Y-88889516D01*
X54081610Y-88842287D01*
X54102770Y-88826913D01*
X54247213Y-88721971D01*
X54247215Y-88721968D01*
X54247219Y-88721966D01*
X54391966Y-88577219D01*
X54391968Y-88577215D01*
X54391971Y-88577213D01*
X54461425Y-88481616D01*
X54512287Y-88411610D01*
X54605220Y-88229219D01*
X54668477Y-88034534D01*
X54700500Y-87832352D01*
X54700500Y-87627648D01*
X54688749Y-87553457D01*
X54668477Y-87425465D01*
X54605218Y-87230776D01*
X54543284Y-87109225D01*
X54512287Y-87048390D01*
X54484261Y-87009815D01*
X54391971Y-86882786D01*
X54247217Y-86738032D01*
X54247212Y-86738028D01*
X54153051Y-86669616D01*
X54110385Y-86614286D01*
X54104406Y-86544673D01*
X54137012Y-86482878D01*
X54186933Y-86451592D01*
X54269117Y-86424359D01*
X54269124Y-86424356D01*
X54418345Y-86332315D01*
X54542315Y-86208345D01*
X54634356Y-86059124D01*
X54634358Y-86059119D01*
X54689505Y-85892697D01*
X54689506Y-85892690D01*
X54699999Y-85789986D01*
X54700000Y-85789973D01*
X54700000Y-85440000D01*
X53315686Y-85440000D01*
X53320080Y-85435606D01*
X53372741Y-85344394D01*
X53400000Y-85242661D01*
X53400000Y-85137339D01*
X53372741Y-85035606D01*
X53320080Y-84944394D01*
X53315686Y-84940000D01*
X54699999Y-84940000D01*
X54699999Y-84590028D01*
X54699998Y-84590013D01*
X54689505Y-84487302D01*
X54634358Y-84320880D01*
X54634356Y-84320875D01*
X54542315Y-84171654D01*
X54418345Y-84047684D01*
X54269124Y-83955643D01*
X54269119Y-83955641D01*
X54102697Y-83900494D01*
X54102690Y-83900493D01*
X53999986Y-83890000D01*
X53250000Y-83890000D01*
X53250000Y-84874314D01*
X53245606Y-84869920D01*
X53154394Y-84817259D01*
X53052661Y-84790000D01*
X52947339Y-84790000D01*
X52845606Y-84817259D01*
X52754394Y-84869920D01*
X52750000Y-84874314D01*
X52750000Y-83890000D01*
X52000028Y-83890000D01*
X52000012Y-83890001D01*
X51897302Y-83900494D01*
X51730880Y-83955641D01*
X51730875Y-83955643D01*
X51581654Y-84047684D01*
X51457684Y-84171654D01*
X51365643Y-84320875D01*
X51365641Y-84320880D01*
X51310494Y-84487302D01*
X51310493Y-84487309D01*
X51300000Y-84590013D01*
X51300000Y-84940000D01*
X52684314Y-84940000D01*
X52679920Y-84944394D01*
X52627259Y-85035606D01*
X52600000Y-85137339D01*
X52600000Y-85242661D01*
X52627259Y-85344394D01*
X52679920Y-85435606D01*
X52684314Y-85440000D01*
X51300001Y-85440000D01*
X51300001Y-85789986D01*
X51310494Y-85892697D01*
X51365641Y-86059119D01*
X51365643Y-86059124D01*
X51457684Y-86208345D01*
X51581654Y-86332315D01*
X51730875Y-86424356D01*
X51730882Y-86424359D01*
X51813067Y-86451592D01*
X51870512Y-86491364D01*
X51897336Y-86555880D01*
X51885021Y-86624656D01*
X51846949Y-86669616D01*
X51752787Y-86738028D01*
X51752782Y-86738032D01*
X51608028Y-86882786D01*
X51487715Y-87048386D01*
X51394781Y-87230776D01*
X51331522Y-87425465D01*
X51299500Y-87627648D01*
X51299500Y-87832351D01*
X51331522Y-88034534D01*
X51394781Y-88229223D01*
X51487715Y-88411613D01*
X51608028Y-88577213D01*
X51752786Y-88721971D01*
X51907749Y-88834556D01*
X51918390Y-88842287D01*
X52009840Y-88888883D01*
X52011080Y-88889515D01*
X52061876Y-88937490D01*
X52078671Y-89005311D01*
X52056134Y-89071446D01*
X52011080Y-89110485D01*
X51918386Y-89157715D01*
X51752786Y-89278028D01*
X51608028Y-89422786D01*
X51487715Y-89588386D01*
X51394781Y-89770776D01*
X51331522Y-89965465D01*
X51299500Y-90167648D01*
X51299500Y-90372351D01*
X51331522Y-90574534D01*
X51367655Y-90685737D01*
X51394780Y-90769219D01*
X51394782Y-90769223D01*
X51394784Y-90769229D01*
X51396647Y-90773728D01*
X51394549Y-90774596D01*
X51405707Y-90834039D01*
X51379424Y-90898777D01*
X51370008Y-90909333D01*
X50712181Y-91567161D01*
X50650858Y-91600646D01*
X50581167Y-91595662D01*
X50525233Y-91553791D01*
X50500816Y-91488326D01*
X50500500Y-91479480D01*
X50500500Y-78897682D01*
X53620000Y-78897682D01*
X53620000Y-79102317D01*
X53652009Y-79304417D01*
X53715244Y-79499031D01*
X53808141Y-79681350D01*
X53808147Y-79681359D01*
X53840523Y-79725921D01*
X53840524Y-79725922D01*
X54520000Y-79046446D01*
X54520000Y-79052661D01*
X54547259Y-79154394D01*
X54599920Y-79245606D01*
X54674394Y-79320080D01*
X54765606Y-79372741D01*
X54867339Y-79400000D01*
X54873553Y-79400000D01*
X54194076Y-80079474D01*
X54238650Y-80111859D01*
X54420968Y-80204755D01*
X54615582Y-80267990D01*
X54817683Y-80300000D01*
X55022317Y-80300000D01*
X55224417Y-80267990D01*
X55419031Y-80204755D01*
X55601349Y-80111859D01*
X55645921Y-80079474D01*
X54966447Y-79400000D01*
X54972661Y-79400000D01*
X55074394Y-79372741D01*
X55165606Y-79320080D01*
X55240080Y-79245606D01*
X55292741Y-79154394D01*
X55320000Y-79052661D01*
X55320000Y-79046448D01*
X55999474Y-79725922D01*
X55999474Y-79725921D01*
X56031859Y-79681349D01*
X56124755Y-79499031D01*
X56187990Y-79304417D01*
X56220000Y-79102317D01*
X56220000Y-78897682D01*
X56219995Y-78897648D01*
X63779500Y-78897648D01*
X63779500Y-79102351D01*
X63811522Y-79304534D01*
X63874781Y-79499223D01*
X63938691Y-79624653D01*
X63967585Y-79681359D01*
X63967715Y-79681613D01*
X64088028Y-79847213D01*
X64232786Y-79991971D01*
X64353226Y-80079474D01*
X64398390Y-80112287D01*
X64514607Y-80171503D01*
X64580776Y-80205218D01*
X64580778Y-80205218D01*
X64580781Y-80205220D01*
X64685137Y-80239127D01*
X64775465Y-80268477D01*
X64876557Y-80284488D01*
X64977648Y-80300500D01*
X64977649Y-80300500D01*
X65182351Y-80300500D01*
X65182352Y-80300500D01*
X65384534Y-80268477D01*
X65579219Y-80205220D01*
X65761610Y-80112287D01*
X65854590Y-80044732D01*
X65927213Y-79991971D01*
X65927215Y-79991968D01*
X65927219Y-79991966D01*
X66071966Y-79847219D01*
X66071968Y-79847215D01*
X66071971Y-79847213D01*
X66124732Y-79774590D01*
X66192287Y-79681610D01*
X66285220Y-79499219D01*
X66348477Y-79304534D01*
X66380500Y-79102352D01*
X66380500Y-78897648D01*
X66372257Y-78845606D01*
X66348477Y-78695465D01*
X66317458Y-78600000D01*
X66285220Y-78500781D01*
X66285218Y-78500778D01*
X66285218Y-78500776D01*
X66192419Y-78318650D01*
X66192287Y-78318390D01*
X66160092Y-78274077D01*
X66071971Y-78152786D01*
X65927213Y-78008028D01*
X65761613Y-77887715D01*
X65761612Y-77887714D01*
X65761610Y-77887713D01*
X65704653Y-77858691D01*
X65579223Y-77794781D01*
X65384534Y-77731522D01*
X65209995Y-77703878D01*
X65182352Y-77699500D01*
X64977648Y-77699500D01*
X64953329Y-77703351D01*
X64775465Y-77731522D01*
X64580776Y-77794781D01*
X64398386Y-77887715D01*
X64232786Y-78008028D01*
X64088028Y-78152786D01*
X63967715Y-78318386D01*
X63874781Y-78500776D01*
X63811522Y-78695465D01*
X63779500Y-78897648D01*
X56219995Y-78897648D01*
X56187990Y-78695582D01*
X56124755Y-78500968D01*
X56031859Y-78318650D01*
X55999474Y-78274077D01*
X55999474Y-78274076D01*
X55320000Y-78953551D01*
X55320000Y-78947339D01*
X55292741Y-78845606D01*
X55240080Y-78754394D01*
X55165606Y-78679920D01*
X55074394Y-78627259D01*
X54972661Y-78600000D01*
X54966446Y-78600000D01*
X55645922Y-77920524D01*
X55645921Y-77920523D01*
X55601359Y-77888147D01*
X55601350Y-77888141D01*
X55419031Y-77795244D01*
X55224417Y-77732009D01*
X55022317Y-77700000D01*
X54817683Y-77700000D01*
X54615582Y-77732009D01*
X54420968Y-77795244D01*
X54238644Y-77888143D01*
X54194077Y-77920523D01*
X54194077Y-77920524D01*
X54873554Y-78600000D01*
X54867339Y-78600000D01*
X54765606Y-78627259D01*
X54674394Y-78679920D01*
X54599920Y-78754394D01*
X54547259Y-78845606D01*
X54520000Y-78947339D01*
X54520000Y-78953553D01*
X53840524Y-78274077D01*
X53840523Y-78274077D01*
X53808143Y-78318644D01*
X53715244Y-78500968D01*
X53652009Y-78695582D01*
X53620000Y-78897682D01*
X50500500Y-78897682D01*
X50500500Y-71897648D01*
X51199500Y-71897648D01*
X51199500Y-72102351D01*
X51231522Y-72304534D01*
X51294781Y-72499223D01*
X51337248Y-72582567D01*
X51387585Y-72681359D01*
X51387715Y-72681613D01*
X51508028Y-72847213D01*
X51652786Y-72991971D01*
X51773226Y-73079474D01*
X51818390Y-73112287D01*
X51934607Y-73171503D01*
X52000776Y-73205218D01*
X52000778Y-73205218D01*
X52000781Y-73205220D01*
X52105137Y-73239127D01*
X52195465Y-73268477D01*
X52296557Y-73284488D01*
X52397648Y-73300500D01*
X52397649Y-73300500D01*
X52602351Y-73300500D01*
X52602352Y-73300500D01*
X52804534Y-73268477D01*
X52999219Y-73205220D01*
X53181610Y-73112287D01*
X53274590Y-73044732D01*
X53347213Y-72991971D01*
X53347215Y-72991968D01*
X53347219Y-72991966D01*
X53491966Y-72847219D01*
X53491968Y-72847215D01*
X53491971Y-72847213D01*
X53612286Y-72681611D01*
X53612415Y-72681359D01*
X53639795Y-72627621D01*
X53687769Y-72576826D01*
X53755589Y-72560030D01*
X53821725Y-72582567D01*
X53860765Y-72627621D01*
X53888141Y-72681350D01*
X53888147Y-72681359D01*
X53920523Y-72725921D01*
X53920524Y-72725922D01*
X54600000Y-72046446D01*
X54600000Y-72052661D01*
X54627259Y-72154394D01*
X54679920Y-72245606D01*
X54754394Y-72320080D01*
X54845606Y-72372741D01*
X54947339Y-72400000D01*
X54953553Y-72400000D01*
X54274076Y-73079474D01*
X54318650Y-73111859D01*
X54500968Y-73204755D01*
X54695582Y-73267990D01*
X54897683Y-73300000D01*
X55102317Y-73300000D01*
X55304417Y-73267990D01*
X55499031Y-73204755D01*
X55681349Y-73111859D01*
X55725921Y-73079474D01*
X55046447Y-72400000D01*
X55052661Y-72400000D01*
X55154394Y-72372741D01*
X55245606Y-72320080D01*
X55320080Y-72245606D01*
X55372741Y-72154394D01*
X55400000Y-72052661D01*
X55400000Y-72046447D01*
X56079474Y-72725921D01*
X56111859Y-72681349D01*
X56204755Y-72499031D01*
X56267990Y-72304417D01*
X56300000Y-72102317D01*
X56300000Y-71897682D01*
X56267990Y-71695582D01*
X56204755Y-71500968D01*
X56111859Y-71318650D01*
X56079474Y-71274077D01*
X56079474Y-71274076D01*
X55400000Y-71953551D01*
X55400000Y-71947339D01*
X55372741Y-71845606D01*
X55320080Y-71754394D01*
X55245606Y-71679920D01*
X55154394Y-71627259D01*
X55052661Y-71600000D01*
X55046446Y-71600000D01*
X55725922Y-70920524D01*
X55725921Y-70920523D01*
X55681359Y-70888147D01*
X55681350Y-70888141D01*
X55499031Y-70795244D01*
X55304417Y-70732009D01*
X55102317Y-70700000D01*
X54897683Y-70700000D01*
X54695582Y-70732009D01*
X54500968Y-70795244D01*
X54318644Y-70888143D01*
X54274077Y-70920523D01*
X54274077Y-70920524D01*
X54953554Y-71600000D01*
X54947339Y-71600000D01*
X54845606Y-71627259D01*
X54754394Y-71679920D01*
X54679920Y-71754394D01*
X54627259Y-71845606D01*
X54600000Y-71947339D01*
X54600000Y-71953553D01*
X53920524Y-71274077D01*
X53920523Y-71274077D01*
X53888143Y-71318644D01*
X53860765Y-71372378D01*
X53812790Y-71423174D01*
X53744969Y-71439969D01*
X53678834Y-71417431D01*
X53639795Y-71372378D01*
X53612284Y-71318385D01*
X53491971Y-71152786D01*
X53347213Y-71008028D01*
X53181613Y-70887715D01*
X53181612Y-70887714D01*
X53181610Y-70887713D01*
X53124653Y-70858691D01*
X52999223Y-70794781D01*
X52804534Y-70731522D01*
X52629995Y-70703878D01*
X52602352Y-70699500D01*
X52397648Y-70699500D01*
X52373329Y-70703351D01*
X52195465Y-70731522D01*
X52000776Y-70794781D01*
X51818386Y-70887715D01*
X51652786Y-71008028D01*
X51508028Y-71152786D01*
X51387715Y-71318386D01*
X51294781Y-71500776D01*
X51231522Y-71695465D01*
X51199500Y-71897648D01*
X50500500Y-71897648D01*
X50500500Y-64168227D01*
X50520185Y-64101188D01*
X50572989Y-64055433D01*
X50642147Y-64045489D01*
X50687259Y-64061281D01*
X50787527Y-64120121D01*
X51006512Y-64202762D01*
X51236309Y-64247205D01*
X51288882Y-64249998D01*
X51288921Y-64249999D01*
X52007499Y-64249999D01*
X52007500Y-64249998D01*
X52007500Y-63433012D01*
X52064507Y-63465925D01*
X52191674Y-63500000D01*
X52323326Y-63500000D01*
X52450493Y-63465925D01*
X52507500Y-63433012D01*
X52507500Y-64249999D01*
X53226076Y-64249999D01*
X53226088Y-64249998D01*
X53278691Y-64247205D01*
X53508487Y-64202762D01*
X53727475Y-64120120D01*
X53929341Y-64001660D01*
X53929348Y-64001655D01*
X54108286Y-63850788D01*
X54108288Y-63850786D01*
X54259155Y-63671848D01*
X54259160Y-63671841D01*
X54377620Y-63469975D01*
X54460262Y-63250986D01*
X54461256Y-63245851D01*
X54493311Y-63183769D01*
X54553842Y-63148872D01*
X54623630Y-63152240D01*
G37*
%TD.AperFunction*%
%TA.AperFunction,Conductor*%
G36*
X69442539Y-50520185D02*
G01*
X69488294Y-50572989D01*
X69499500Y-50624500D01*
X69499500Y-76209481D01*
X69479815Y-76276520D01*
X69427011Y-76322275D01*
X69357853Y-76332219D01*
X69294297Y-76303194D01*
X69287819Y-76297162D01*
X60736819Y-67746162D01*
X60703334Y-67684839D01*
X60700500Y-67658481D01*
X60700500Y-65052135D01*
X62329500Y-65052135D01*
X62329500Y-66947870D01*
X62329501Y-66947876D01*
X62335908Y-67007483D01*
X62386202Y-67142328D01*
X62386206Y-67142335D01*
X62472452Y-67257544D01*
X62472455Y-67257547D01*
X62587664Y-67343793D01*
X62587671Y-67343797D01*
X62722517Y-67394091D01*
X62722516Y-67394091D01*
X62729444Y-67394835D01*
X62782127Y-67400500D01*
X64677872Y-67400499D01*
X64737483Y-67394091D01*
X64872331Y-67343796D01*
X64987546Y-67257546D01*
X65073796Y-67142331D01*
X65101429Y-67068243D01*
X65103601Y-67062420D01*
X65145471Y-67006486D01*
X65210936Y-66982068D01*
X65279209Y-66996919D01*
X65307464Y-67018071D01*
X65357636Y-67068243D01*
X65357641Y-67068247D01*
X65459603Y-67142326D01*
X65535978Y-67197815D01*
X65664375Y-67263237D01*
X65732393Y-67297895D01*
X65732396Y-67297896D01*
X65837221Y-67331955D01*
X65942049Y-67366015D01*
X66159778Y-67400500D01*
X66159779Y-67400500D01*
X66380221Y-67400500D01*
X66380222Y-67400500D01*
X66597951Y-67366015D01*
X66807606Y-67297895D01*
X67004022Y-67197815D01*
X67182365Y-67068242D01*
X67338242Y-66912365D01*
X67467815Y-66734022D01*
X67567895Y-66537606D01*
X67636015Y-66327951D01*
X67670500Y-66110222D01*
X67670500Y-65889778D01*
X67636015Y-65672049D01*
X67567895Y-65462394D01*
X67567895Y-65462393D01*
X67533237Y-65394375D01*
X67467815Y-65265978D01*
X67409501Y-65185715D01*
X67338247Y-65087641D01*
X67338243Y-65087636D01*
X67182363Y-64931756D01*
X67182358Y-64931752D01*
X67004025Y-64802187D01*
X67004024Y-64802186D01*
X67004022Y-64802185D01*
X66886791Y-64742452D01*
X66807606Y-64702104D01*
X66807603Y-64702103D01*
X66597952Y-64633985D01*
X66489086Y-64616742D01*
X66380222Y-64599500D01*
X66159778Y-64599500D01*
X66087201Y-64610995D01*
X65942047Y-64633985D01*
X65732396Y-64702103D01*
X65732393Y-64702104D01*
X65535974Y-64802187D01*
X65357641Y-64931752D01*
X65357636Y-64931756D01*
X65307463Y-64981929D01*
X65246140Y-65015413D01*
X65176448Y-65010428D01*
X65120515Y-64968557D01*
X65103601Y-64937580D01*
X65073797Y-64857671D01*
X65073793Y-64857664D01*
X64987547Y-64742455D01*
X64987544Y-64742452D01*
X64872335Y-64656206D01*
X64872328Y-64656202D01*
X64737482Y-64605908D01*
X64737483Y-64605908D01*
X64677883Y-64599501D01*
X64677881Y-64599500D01*
X64677873Y-64599500D01*
X64677864Y-64599500D01*
X62782129Y-64599500D01*
X62782123Y-64599501D01*
X62722516Y-64605908D01*
X62587671Y-64656202D01*
X62587664Y-64656206D01*
X62472455Y-64742452D01*
X62472452Y-64742455D01*
X62386206Y-64857664D01*
X62386202Y-64857671D01*
X62335908Y-64992517D01*
X62329501Y-65052116D01*
X62329500Y-65052135D01*
X60700500Y-65052135D01*
X60700500Y-60341518D01*
X60720185Y-60274479D01*
X60736814Y-60253842D01*
X65537821Y-55452834D01*
X65599142Y-55419351D01*
X65668834Y-55424335D01*
X65724767Y-55466207D01*
X65749184Y-55531671D01*
X65749500Y-55540517D01*
X65749500Y-56337870D01*
X65749501Y-56337876D01*
X65755908Y-56397483D01*
X65806202Y-56532328D01*
X65806206Y-56532335D01*
X65892452Y-56647544D01*
X65892455Y-56647547D01*
X65976861Y-56710734D01*
X66018732Y-56766668D01*
X66023716Y-56836359D01*
X65990230Y-56897682D01*
X65976861Y-56909266D01*
X65892455Y-56972452D01*
X65892452Y-56972455D01*
X65806206Y-57087664D01*
X65806202Y-57087671D01*
X65755908Y-57222517D01*
X65749501Y-57282116D01*
X65749501Y-57282123D01*
X65749500Y-57282135D01*
X65749500Y-58877870D01*
X65749501Y-58877876D01*
X65755908Y-58937483D01*
X65806202Y-59072328D01*
X65806206Y-59072335D01*
X65892452Y-59187544D01*
X65892455Y-59187547D01*
X66007664Y-59273793D01*
X66007671Y-59273797D01*
X66142517Y-59324091D01*
X66142516Y-59324091D01*
X66149444Y-59324835D01*
X66202127Y-59330500D01*
X67797872Y-59330499D01*
X67857483Y-59324091D01*
X67992331Y-59273796D01*
X68107546Y-59187546D01*
X68193796Y-59072331D01*
X68244091Y-58937483D01*
X68250500Y-58877873D01*
X68250499Y-57282128D01*
X68244091Y-57222517D01*
X68220188Y-57158431D01*
X68193797Y-57087671D01*
X68193793Y-57087664D01*
X68135952Y-57010400D01*
X68107546Y-56972454D01*
X68023136Y-56909265D01*
X67981267Y-56853333D01*
X67976283Y-56783641D01*
X68009768Y-56722318D01*
X68023130Y-56710739D01*
X68107546Y-56647546D01*
X68193796Y-56532331D01*
X68244091Y-56397483D01*
X68250500Y-56337873D01*
X68250499Y-54742128D01*
X68244091Y-54682517D01*
X68193796Y-54547669D01*
X68193795Y-54547668D01*
X68193793Y-54547664D01*
X68107547Y-54432456D01*
X68107548Y-54432456D01*
X68107546Y-54432454D01*
X68023136Y-54369265D01*
X67981267Y-54313333D01*
X67976283Y-54243641D01*
X68009768Y-54182318D01*
X68023130Y-54170739D01*
X68107546Y-54107546D01*
X68193796Y-53992331D01*
X68244091Y-53857483D01*
X68250500Y-53797873D01*
X68250499Y-52202128D01*
X68244091Y-52142517D01*
X68193796Y-52007669D01*
X68193795Y-52007668D01*
X68193793Y-52007664D01*
X68107547Y-51892455D01*
X68107544Y-51892452D01*
X67992335Y-51806206D01*
X67992328Y-51806202D01*
X67857482Y-51755908D01*
X67857483Y-51755908D01*
X67797883Y-51749501D01*
X67797881Y-51749500D01*
X67797873Y-51749500D01*
X67797864Y-51749500D01*
X66202129Y-51749500D01*
X66202123Y-51749501D01*
X66142516Y-51755908D01*
X66007671Y-51806202D01*
X66007664Y-51806206D01*
X65892455Y-51892452D01*
X65892452Y-51892455D01*
X65806206Y-52007664D01*
X65806202Y-52007671D01*
X65755908Y-52142517D01*
X65749501Y-52202116D01*
X65749501Y-52202123D01*
X65749500Y-52202135D01*
X65749500Y-53208480D01*
X65729815Y-53275519D01*
X65713181Y-53296161D01*
X59455888Y-59553453D01*
X59455885Y-59553457D01*
X59434602Y-59585310D01*
X59380990Y-59630115D01*
X59311665Y-59638822D01*
X59248637Y-59608667D01*
X59211918Y-59549224D01*
X59207500Y-59516419D01*
X59207500Y-59250000D01*
X58390512Y-59250000D01*
X58423425Y-59192993D01*
X58457500Y-59065826D01*
X58457500Y-58934174D01*
X58423425Y-58807007D01*
X58390512Y-58750000D01*
X59207499Y-58750000D01*
X59207499Y-58185817D01*
X59207498Y-58185802D01*
X59197099Y-58053667D01*
X59142122Y-57835480D01*
X59049071Y-57630625D01*
X59049068Y-57630619D01*
X58920940Y-57445676D01*
X58920930Y-57445664D01*
X58761835Y-57286569D01*
X58761823Y-57286559D01*
X58576880Y-57158431D01*
X58576874Y-57158428D01*
X58372019Y-57065377D01*
X58153832Y-57010400D01*
X58021696Y-57000000D01*
X57207500Y-57000000D01*
X57207500Y-58500000D01*
X56707500Y-58500000D01*
X56707500Y-57000000D01*
X55893317Y-57000000D01*
X55893302Y-57000001D01*
X55761167Y-57010400D01*
X55542980Y-57065377D01*
X55338125Y-57158428D01*
X55338119Y-57158431D01*
X55153176Y-57286559D01*
X55153164Y-57286569D01*
X54994069Y-57445664D01*
X54994059Y-57445676D01*
X54865931Y-57630619D01*
X54865928Y-57630625D01*
X54772877Y-57835480D01*
X54717900Y-58053667D01*
X54707500Y-58185803D01*
X54707500Y-58750000D01*
X55524488Y-58750000D01*
X55491575Y-58807007D01*
X55457500Y-58934174D01*
X55457500Y-59065826D01*
X55491575Y-59192993D01*
X55524488Y-59250000D01*
X54707501Y-59250000D01*
X54707501Y-59814197D01*
X54717900Y-59946332D01*
X54772877Y-60164519D01*
X54865928Y-60369374D01*
X54865931Y-60369380D01*
X54994059Y-60554323D01*
X54994069Y-60554335D01*
X55153164Y-60713430D01*
X55153176Y-60713440D01*
X55338119Y-60841568D01*
X55338125Y-60841571D01*
X55542980Y-60934622D01*
X55761167Y-60989599D01*
X55893310Y-60999999D01*
X56707499Y-60999999D01*
X56707500Y-60999998D01*
X56707500Y-59500000D01*
X57207500Y-59500000D01*
X57207500Y-60999999D01*
X58021682Y-60999999D01*
X58021697Y-60999998D01*
X58153832Y-60989599D01*
X58372019Y-60934622D01*
X58576874Y-60841571D01*
X58576880Y-60841568D01*
X58761823Y-60713440D01*
X58761835Y-60713430D01*
X58920930Y-60554335D01*
X58920940Y-60554323D01*
X59049068Y-60369380D01*
X59049071Y-60369375D01*
X59062601Y-60339589D01*
X59108247Y-60286692D01*
X59175247Y-60266870D01*
X59242326Y-60286418D01*
X59288189Y-60339128D01*
X59299500Y-60390870D01*
X59299500Y-62833087D01*
X59279815Y-62900126D01*
X59227011Y-62945881D01*
X59157853Y-62955825D01*
X59094297Y-62926800D01*
X59076235Y-62907400D01*
X59065046Y-62892454D01*
X59065044Y-62892452D01*
X58949835Y-62806206D01*
X58949828Y-62806202D01*
X58814982Y-62755908D01*
X58814983Y-62755908D01*
X58755383Y-62749501D01*
X58755381Y-62749500D01*
X58755373Y-62749500D01*
X58755364Y-62749500D01*
X55159629Y-62749500D01*
X55159623Y-62749501D01*
X55100016Y-62755908D01*
X54965171Y-62806202D01*
X54965164Y-62806206D01*
X54849955Y-62892452D01*
X54849952Y-62892455D01*
X54763706Y-63007664D01*
X54763702Y-63007671D01*
X54745488Y-63056507D01*
X54703617Y-63112441D01*
X54638152Y-63136858D01*
X54569879Y-63122006D01*
X54520474Y-63072601D01*
X54505481Y-63006594D01*
X54507499Y-62968615D01*
X54507500Y-62968578D01*
X54507500Y-62250000D01*
X52757500Y-62250000D01*
X52757500Y-61750000D01*
X54507499Y-61750000D01*
X54507499Y-61031423D01*
X54507498Y-61031411D01*
X54504705Y-60978808D01*
X54460262Y-60749012D01*
X54377620Y-60530024D01*
X54259160Y-60328158D01*
X54259155Y-60328151D01*
X54108288Y-60149213D01*
X54108286Y-60149211D01*
X53929348Y-59998344D01*
X53929341Y-59998339D01*
X53727475Y-59879879D01*
X53508487Y-59797237D01*
X53278690Y-59752794D01*
X53226117Y-59750001D01*
X53226079Y-59750000D01*
X52507500Y-59750000D01*
X52507500Y-60566988D01*
X52450493Y-60534075D01*
X52323326Y-60500000D01*
X52191674Y-60500000D01*
X52064507Y-60534075D01*
X52007500Y-60566988D01*
X52007500Y-59750000D01*
X51288923Y-59750000D01*
X51288911Y-59750001D01*
X51236308Y-59752794D01*
X51006512Y-59797237D01*
X50787524Y-59879879D01*
X50687258Y-59938718D01*
X50619476Y-59955670D01*
X50553289Y-59933286D01*
X50509711Y-59878671D01*
X50500500Y-59831772D01*
X50500500Y-50624500D01*
X50520185Y-50557461D01*
X50572989Y-50511706D01*
X50624500Y-50500500D01*
X69375500Y-50500500D01*
X69442539Y-50520185D01*
G37*
%TD.AperFunction*%
%TD*%
M02*
