M48
; DRILL file KiCad 10.0.0 date 2026-08-25T21:09:27
; FORMAT={-:-/ absolute / metric / decimal}
; #@! TF.CreationDate,2026-08-25T21:09:27-04:00
; #@! TF.GenerationSoftware,Kicad,Pcbnew,10.0.0
; #@! TF.FileFunction,Plated,1,2,PTH
FMAT,2
METRIC
; #@! TA.AperFunction,Plated,PTH,ComponentDrill
T1C0.700
; #@! TA.AperFunction,Plated,PTH,ComponentDrill
T2C0.800
; #@! TA.AperFunction,Plated,PTH,ComponentDrill
T3C0.900
; #@! TA.AperFunction,Plated,PTH,ComponentDrill
T4C1.000
; #@! TA.AperFunction,Plated,PTH,ComponentDrill
T5C1.100
; #@! TA.AperFunction,Plated,PTH,ComponentDrill
T6C1.300
%
G90
G05
T1
X67.0Y-53.0
X67.0Y-55.54
X67.0Y-58.08
T2
X52.0Y-145.0
X52.5Y-72.0
X53.0Y-85.19
X53.0Y-87.73
X53.0Y-90.27
X53.0Y-92.81
X53.0Y-126.0
X53.0Y-136.16
X53.19Y-100.19
X53.19Y-102.73
X53.19Y-105.27
X53.19Y-107.81
X54.5Y-145.0
X54.92Y-79.0
X55.0Y-72.0
X58.0Y-127.0
X58.5Y-72.0
X60.5Y-127.0
X60.62Y-85.19
X60.62Y-87.73
X60.62Y-90.27
X60.62Y-92.81
X60.81Y-100.19
X60.81Y-102.73
X60.81Y-105.27
X60.81Y-107.81
X61.0Y-72.0
X63.5Y-131.0
X65.08Y-79.0
X66.0Y-131.0
X67.0Y-85.0
X67.0Y-95.16
T3
X53.0Y-114.5
X53.0Y-119.5
X58.0Y-117.0
X62.5Y-114.495
X62.5Y-119.495
X63.73Y-66.0
X66.27Y-66.0
X67.5Y-116.995
T5
X67.0Y-99.0
X67.0Y-109.16
T6
X65.0Y-141.0
X65.0Y-146.0
T4
G00X52.258Y-61.0
M15
G01X52.258Y-63.0
M16
G05
G00X57.957Y-59.0
M15
G01X55.957Y-59.0
M16
G05
G00X57.957Y-65.0
M15
G01X55.957Y-65.0
M16
G05
M30
