%TF.GenerationSoftware,KiCad,Pcbnew,10.0.0*%
%TF.CreationDate,2026-08-25T21:09:23-04:00*%
%TF.ProjectId,ataconso-rev-b,61746163-6f6e-4736-9f2d-7265762d622e,rev?*%
%TF.SameCoordinates,Original*%
%TF.FileFunction,Soldermask,Top*%
%TF.FilePolarity,Negative*%
%FSLAX46Y46*%
G04 Gerber Fmt 4.6, Leading zero omitted, Abs format (unit mm)*
G04 Created by KiCad (PCBNEW 10.0.0) date 2026-08-25 21:09:23*
%MOMM*%
%LPD*%
G01*
G04 APERTURE LIST*
G04 Aperture macros list*
%AMRoundRect*
0 Rectangle with rounded corners*
0 $1 Rounding radius*
0 $2 $3 $4 $5 $6 $7 $8 $9 X,Y pos of 4 corners*
0 Add a 4 corners polygon primitive as box body*
4,1,4,$2,$3,$4,$5,$6,$7,$8,$9,$2,$3,0*
0 Add four circle primitives for the rounded corners*
1,1,$1+$1,$2,$3*
1,1,$1+$1,$4,$5*
1,1,$1+$1,$6,$7*
1,1,$1+$1,$8,$9*
0 Add four rect primitives between the rounded corners*
20,1,$1+$1,$2,$3,$4,$5,0*
20,1,$1+$1,$4,$5,$6,$7,0*
20,1,$1+$1,$6,$7,$8,$9,0*
20,1,$1+$1,$8,$9,$2,$3,0*%
G04 Aperture macros list end*
%ADD10C,1.600000*%
%ADD11C,1.620000*%
%ADD12R,1.500000X1.500000*%
%ADD13R,1.800000X1.800000*%
%ADD14C,1.800000*%
%ADD15RoundRect,0.250000X-0.950000X-0.550000X0.950000X-0.550000X0.950000X0.550000X-0.950000X0.550000X0*%
%ADD16O,2.400000X1.600000*%
%ADD17RoundRect,0.249999X0.850001X-0.850001X0.850001X0.850001X-0.850001X0.850001X-0.850001X-0.850001X0*%
%ADD18C,2.200000*%
%ADD19RoundRect,0.250000X-0.550000X-0.550000X0.550000X-0.550000X0.550000X0.550000X-0.550000X0.550000X0*%
%ADD20R,3.500000X3.500000*%
%ADD21RoundRect,0.750000X-1.000000X0.750000X-1.000000X-0.750000X1.000000X-0.750000X1.000000X0.750000X0*%
%ADD22RoundRect,0.875000X-0.875000X0.875000X-0.875000X-0.875000X0.875000X-0.875000X0.875000X0.875000X0*%
%ADD23RoundRect,0.250001X-1.149999X1.149999X-1.149999X-1.149999X1.149999X-1.149999X1.149999X1.149999X0*%
%ADD24C,2.800000*%
G04 APERTURE END LIST*
D10*
%TO.C,C2*%
X61000000Y-72000000D03*
X58500000Y-72000000D03*
%TD*%
%TO.C,C3*%
X66000000Y-131000000D03*
X63500000Y-131000000D03*
%TD*%
%TO.C,C4*%
X60500000Y-127000000D03*
X58000000Y-127000000D03*
%TD*%
%TO.C,C1*%
X52500000Y-72000000D03*
X55000000Y-72000000D03*
%TD*%
D11*
%TO.C,RV2*%
X62500000Y-119495000D03*
X67500000Y-116995000D03*
X62500000Y-114495000D03*
%TD*%
D10*
%TO.C,R1*%
X67000000Y-85000000D03*
X67000000Y-95160000D03*
%TD*%
D12*
%TO.C,SW1*%
X67000000Y-58080000D03*
X67000000Y-55540000D03*
X67000000Y-53000000D03*
%TD*%
D13*
%TO.C,D2*%
X63730000Y-66000000D03*
D14*
X66270000Y-66000000D03*
%TD*%
D15*
%TO.C,U2*%
X53190000Y-100190000D03*
D16*
X53190000Y-102730000D03*
X53190000Y-105270000D03*
X53190000Y-107810000D03*
X60810000Y-107810000D03*
X60810000Y-105270000D03*
X60810000Y-102730000D03*
X60810000Y-100190000D03*
%TD*%
D10*
%TO.C,R2*%
X53000000Y-126000000D03*
X53000000Y-136160000D03*
%TD*%
D15*
%TO.C,U1*%
X53000000Y-85190000D03*
D16*
X53000000Y-87730000D03*
X53000000Y-90270000D03*
X53000000Y-92810000D03*
X60620000Y-92810000D03*
X60620000Y-90270000D03*
X60620000Y-87730000D03*
X60620000Y-85190000D03*
%TD*%
D17*
%TO.C,D1*%
X67000000Y-109160000D03*
D18*
X67000000Y-99000000D03*
%TD*%
D19*
%TO.C,C5*%
X52000000Y-145000000D03*
D10*
X54500000Y-145000000D03*
%TD*%
D11*
%TO.C,RV1*%
X53000000Y-119500000D03*
X58000000Y-117000000D03*
X53000000Y-114500000D03*
%TD*%
D20*
%TO.C,J2*%
X56957500Y-65000000D03*
D21*
X56957500Y-59000000D03*
D22*
X52257500Y-62000000D03*
%TD*%
D10*
%TO.C,R3*%
X65080000Y-79000000D03*
X54920000Y-79000000D03*
%TD*%
D23*
%TO.C,J1*%
X65000000Y-141000000D03*
D24*
X65000000Y-146000000D03*
%TD*%
M02*
