%TF.GenerationSoftware,KiCad,Pcbnew,10.0.0*%
%TF.CreationDate,2026-08-25T21:09:23-04:00*%
%TF.ProjectId,ataconso-rev-b,61746163-6f6e-4736-9f2d-7265762d622e,rev?*%
%TF.SameCoordinates,Original*%
%TF.FileFunction,Legend,Bot*%
%TF.FilePolarity,Positive*%
%FSLAX46Y46*%
G04 Gerber Fmt 4.6, Leading zero omitted, Abs format (unit mm)*
G04 Created by KiCad (PCBNEW 10.0.0) date 2026-08-25 21:09:23*
%MOMM*%
%LPD*%
G01*
G04 APERTURE LIST*
%ADD10C,0.375000*%
%ADD11C,0.187500*%
%ADD12C,0.000000*%
G04 APERTURE END LIST*
D10*
G36*
X58490000Y-83911427D02*
G01*
X57641683Y-83911427D01*
X57641683Y-84646536D01*
X58490000Y-84646536D01*
X58490000Y-84894382D01*
X56058257Y-84894382D01*
X55945367Y-84888498D01*
X55846204Y-84870756D01*
X55769848Y-84845084D01*
X55704024Y-84809944D01*
X55652475Y-84768969D01*
X55609767Y-84719756D01*
X55551017Y-84597771D01*
X55525623Y-84432659D01*
X55525013Y-84398691D01*
X55525013Y-84281088D01*
X56234661Y-84281088D01*
X56240559Y-84370464D01*
X56258397Y-84447018D01*
X56283704Y-84503157D01*
X56318296Y-84549880D01*
X56409060Y-84612641D01*
X56540114Y-84643724D01*
X56604323Y-84646536D01*
X56910969Y-84646536D01*
X56910969Y-83911427D01*
X56604323Y-83911427D01*
X56513519Y-83917324D01*
X56435902Y-83935163D01*
X56379209Y-83960404D01*
X56332090Y-83994891D01*
X56268980Y-84085137D01*
X56237627Y-84215270D01*
X56234661Y-84281088D01*
X55525013Y-84281088D01*
X55525013Y-84159272D01*
X55530895Y-84058027D01*
X55548622Y-83968897D01*
X55574483Y-83899558D01*
X55609923Y-83839556D01*
X55652113Y-83791487D01*
X55702937Y-83751469D01*
X55832764Y-83694596D01*
X56013666Y-83668805D01*
X56058257Y-83667978D01*
X58490000Y-83667978D01*
X58490000Y-83911427D01*
G37*
G36*
X58490000Y-85637552D02*
G01*
X58490000Y-85889427D01*
X56281006Y-85889427D01*
X56281006Y-86267515D01*
X56275314Y-86307265D01*
X56258920Y-86338981D01*
X56202490Y-86373411D01*
X56171646Y-86376692D01*
X55659286Y-86376692D01*
X55619458Y-86370998D01*
X55587701Y-86354585D01*
X55553350Y-86298165D01*
X55550109Y-86267515D01*
X55550109Y-85255251D01*
X55555804Y-85215423D01*
X55572216Y-85183665D01*
X55628636Y-85149315D01*
X55659286Y-85146074D01*
X56171646Y-85146074D01*
X56213441Y-85151889D01*
X56246234Y-85169142D01*
X56266713Y-85193601D01*
X56278442Y-85226527D01*
X56281006Y-85255251D01*
X56281006Y-85637552D01*
X58490000Y-85637552D01*
G37*
G36*
X58490000Y-86871650D02*
G01*
X57641683Y-86871650D01*
X57641683Y-87606760D01*
X58490000Y-87606760D01*
X58490000Y-87854605D01*
X56058257Y-87854605D01*
X55945367Y-87848721D01*
X55846204Y-87830979D01*
X55769848Y-87805307D01*
X55704024Y-87770167D01*
X55652475Y-87729192D01*
X55609767Y-87679979D01*
X55551017Y-87557994D01*
X55525623Y-87392882D01*
X55525013Y-87358914D01*
X55525013Y-87241311D01*
X56234661Y-87241311D01*
X56240559Y-87330687D01*
X56258397Y-87407242D01*
X56283704Y-87463380D01*
X56318296Y-87510103D01*
X56409060Y-87572864D01*
X56540114Y-87603948D01*
X56604323Y-87606760D01*
X56910969Y-87606760D01*
X56910969Y-86871650D01*
X56604323Y-86871650D01*
X56513519Y-86877548D01*
X56435902Y-86895386D01*
X56379209Y-86920628D01*
X56332090Y-86955114D01*
X56268980Y-87045360D01*
X56237627Y-87175493D01*
X56234661Y-87241311D01*
X55525013Y-87241311D01*
X55525013Y-87119495D01*
X55530895Y-87018251D01*
X55548622Y-86929120D01*
X55574483Y-86859781D01*
X55609923Y-86799779D01*
X55652113Y-86751710D01*
X55702937Y-86711692D01*
X55832764Y-86654820D01*
X56013666Y-86629028D01*
X56058257Y-86628201D01*
X58490000Y-86628201D01*
X58490000Y-86871650D01*
G37*
G36*
X58515279Y-88673246D02*
G01*
X58515279Y-88912665D01*
X58509381Y-89011567D01*
X58491546Y-89099157D01*
X58465458Y-89167690D01*
X58429593Y-89227425D01*
X58386648Y-89275795D01*
X58334735Y-89316463D01*
X58201160Y-89375625D01*
X58023984Y-89404143D01*
X57431756Y-89420812D01*
X57431756Y-89152084D01*
X57520609Y-89146184D01*
X57595583Y-89128332D01*
X57649178Y-89103324D01*
X57693187Y-89069210D01*
X57751229Y-88979299D01*
X57778647Y-88846542D01*
X57780352Y-88795062D01*
X57774463Y-88706052D01*
X57756688Y-88630379D01*
X57731507Y-88575145D01*
X57697148Y-88529268D01*
X57606055Y-88466674D01*
X57471880Y-88433589D01*
X57414904Y-88429614D01*
X57007506Y-88425584D01*
X56604323Y-88429614D01*
X56511651Y-88438780D01*
X56432916Y-88459767D01*
X56377241Y-88487089D01*
X56331315Y-88523581D01*
X56271584Y-88616974D01*
X56244404Y-88751215D01*
X56243087Y-88795062D01*
X56249050Y-88881505D01*
X56267342Y-88955622D01*
X56293007Y-89009111D01*
X56328371Y-89054115D01*
X56423583Y-89116896D01*
X56567393Y-89152206D01*
X56612749Y-89156297D01*
X56612749Y-89420812D01*
X56016308Y-89404143D01*
X55908135Y-89391470D01*
X55813898Y-89367823D01*
X55741698Y-89337525D01*
X55680155Y-89298398D01*
X55632210Y-89253867D01*
X55593272Y-89201517D01*
X55541852Y-89072885D01*
X55525013Y-88912665D01*
X55525013Y-88673246D01*
X55530911Y-88570771D01*
X55548746Y-88480795D01*
X55574563Y-88411652D01*
X55609984Y-88351977D01*
X55651958Y-88304601D01*
X55702592Y-88265307D01*
X55831994Y-88210118D01*
X56016308Y-88186165D01*
X57020146Y-88173525D01*
X58023984Y-88186165D01*
X58131528Y-88194756D01*
X58225307Y-88214909D01*
X58296636Y-88242361D01*
X58357626Y-88279039D01*
X58405164Y-88321502D01*
X58444027Y-88372142D01*
X58496327Y-88498802D01*
X58515279Y-88673246D01*
G37*
G36*
X58023984Y-89714453D02*
G01*
X58115407Y-89723954D01*
X58198544Y-89744360D01*
X58270536Y-89773923D01*
X58334032Y-89812715D01*
X58387420Y-89859010D01*
X58432006Y-89913226D01*
X58493235Y-90043297D01*
X58515274Y-90203218D01*
X58515279Y-90205748D01*
X58515279Y-90445167D01*
X58509485Y-90531278D01*
X58492381Y-90610504D01*
X58465495Y-90680056D01*
X58428804Y-90742274D01*
X58383667Y-90795730D01*
X58329812Y-90841288D01*
X58196760Y-90907225D01*
X58028331Y-90936453D01*
X58023984Y-90936645D01*
X57020146Y-90953314D01*
X56016308Y-90936645D01*
X55924815Y-90927088D01*
X55841632Y-90906632D01*
X55769630Y-90877030D01*
X55706138Y-90838206D01*
X55652769Y-90791891D01*
X55608205Y-90737659D01*
X55547023Y-90607561D01*
X55525018Y-90447587D01*
X55525013Y-90445167D01*
X55525013Y-90323351D01*
X56238874Y-90323351D01*
X56238874Y-90327564D01*
X56244776Y-90423041D01*
X56262644Y-90504048D01*
X56287681Y-90562312D01*
X56321849Y-90610509D01*
X56410600Y-90674469D01*
X56538435Y-90706623D01*
X56583257Y-90709682D01*
X57020146Y-90718108D01*
X57456852Y-90709682D01*
X57542891Y-90700736D01*
X57616164Y-90680119D01*
X57669154Y-90652743D01*
X57713011Y-90616184D01*
X57771653Y-90520635D01*
X57799527Y-90380822D01*
X57801235Y-90327564D01*
X57801235Y-90323351D01*
X57795332Y-90226669D01*
X57777465Y-90145160D01*
X57752568Y-90087141D01*
X57718628Y-90039361D01*
X57630459Y-89976232D01*
X57502560Y-89944366D01*
X57456852Y-89941233D01*
X57020146Y-89937020D01*
X56583257Y-89941233D01*
X56497187Y-89950247D01*
X56423893Y-89970922D01*
X56370891Y-89998343D01*
X56327030Y-90034939D01*
X56268401Y-90130540D01*
X56240566Y-90270372D01*
X56238874Y-90323351D01*
X55525013Y-90323351D01*
X55525013Y-90205748D01*
X55530807Y-90119596D01*
X55547915Y-90040337D01*
X55574799Y-89970787D01*
X55611490Y-89908575D01*
X55656615Y-89855150D01*
X55710459Y-89809624D01*
X55843475Y-89743777D01*
X56011891Y-89714645D01*
X56016308Y-89714453D01*
X57020146Y-89697601D01*
X58023984Y-89714453D01*
G37*
G36*
X55659286Y-91270769D02*
G01*
X58490000Y-91270769D01*
X58490000Y-91522644D01*
X56285036Y-91526857D01*
X56285036Y-91661313D01*
X58389249Y-91917402D01*
X58432087Y-91928676D01*
X58463129Y-91950269D01*
X58489030Y-92012018D01*
X58490000Y-92030975D01*
X58490000Y-92417306D01*
X58484185Y-92459076D01*
X58466932Y-92491814D01*
X58442477Y-92512237D01*
X58409557Y-92523926D01*
X58380823Y-92526482D01*
X55550109Y-92526482D01*
X55550109Y-92274424D01*
X57561816Y-92274424D01*
X57611897Y-92268209D01*
X57641321Y-92248154D01*
X57650109Y-92215622D01*
X57644251Y-92187937D01*
X57626687Y-92168541D01*
X57561816Y-92148578D01*
X55650860Y-91896519D01*
X55607978Y-91885218D01*
X55576886Y-91863564D01*
X55551046Y-91801724D01*
X55550109Y-91783129D01*
X55550109Y-91379945D01*
X55555924Y-91338175D01*
X55573177Y-91305437D01*
X55597632Y-91285014D01*
X55630552Y-91273325D01*
X55659286Y-91270769D01*
G37*
G36*
X58515279Y-93328454D02*
G01*
X58515279Y-93567690D01*
X58509381Y-93665197D01*
X58491546Y-93751510D01*
X58465423Y-93819158D01*
X58429502Y-93878234D01*
X58333804Y-93967338D01*
X58197563Y-94028191D01*
X58023984Y-94059167D01*
X57814610Y-94070704D01*
X57609170Y-94069690D01*
X57435969Y-94059167D01*
X57335859Y-94045221D01*
X57247649Y-94020268D01*
X57178557Y-93988377D01*
X57118748Y-93947317D01*
X57030299Y-93843622D01*
X56973239Y-93702589D01*
X56948705Y-93529954D01*
X56944492Y-93446057D01*
X56933650Y-93349202D01*
X56911646Y-93267586D01*
X56883694Y-93209521D01*
X56847230Y-93162395D01*
X56805863Y-93128465D01*
X56757011Y-93103652D01*
X56632898Y-93080840D01*
X56616962Y-93080608D01*
X56524538Y-93086497D01*
X56445355Y-93104272D01*
X56387163Y-93129502D01*
X56338745Y-93163940D01*
X56274020Y-93253504D01*
X56241970Y-93381018D01*
X56238874Y-93446057D01*
X56244781Y-93526926D01*
X56262682Y-93597545D01*
X56288749Y-93651670D01*
X56324611Y-93698082D01*
X56422909Y-93766724D01*
X56570557Y-93809706D01*
X56612749Y-93815535D01*
X56612749Y-94067594D01*
X56016308Y-94059167D01*
X55907398Y-94047798D01*
X55812626Y-94025178D01*
X55740870Y-93995847D01*
X55679683Y-93957501D01*
X55632224Y-93913717D01*
X55593605Y-93861907D01*
X55542336Y-93733498D01*
X55525013Y-93567690D01*
X55525013Y-93328454D01*
X55530911Y-93230805D01*
X55548746Y-93144114D01*
X55574931Y-93075854D01*
X55610956Y-93016112D01*
X55706853Y-92925830D01*
X55842815Y-92864188D01*
X56016308Y-92832763D01*
X56215737Y-92819136D01*
X56413998Y-92818018D01*
X56654698Y-92832763D01*
X56764990Y-92848120D01*
X56862206Y-92874294D01*
X56938225Y-92907032D01*
X57003997Y-92948706D01*
X57056413Y-92995974D01*
X57100014Y-93051308D01*
X57161000Y-93186194D01*
X57188124Y-93357763D01*
X57192337Y-93446057D01*
X57203745Y-93557330D01*
X57226168Y-93648284D01*
X57253214Y-93708442D01*
X57288156Y-93755356D01*
X57326026Y-93786193D01*
X57370405Y-93806962D01*
X57456852Y-93819748D01*
X57541559Y-93813842D01*
X57613919Y-93795943D01*
X57666736Y-93770570D01*
X57710610Y-93735843D01*
X57769884Y-93643347D01*
X57799001Y-93506556D01*
X57801235Y-93446057D01*
X57795337Y-93365117D01*
X57777502Y-93294388D01*
X57751430Y-93239834D01*
X57715593Y-93192955D01*
X57617121Y-93122932D01*
X57469080Y-93077940D01*
X57431756Y-93072182D01*
X57431756Y-92820123D01*
X58023984Y-92832763D01*
X58132157Y-92845442D01*
X58226394Y-92869133D01*
X58298417Y-92899440D01*
X58359839Y-92938615D01*
X58407685Y-92983209D01*
X58446585Y-93035685D01*
X58498122Y-93164906D01*
X58515279Y-93328454D01*
G37*
G36*
X58023984Y-94365814D02*
G01*
X58115407Y-94375315D01*
X58198544Y-94395721D01*
X58270536Y-94425284D01*
X58334032Y-94464076D01*
X58387420Y-94510370D01*
X58432006Y-94564586D01*
X58493235Y-94694658D01*
X58515274Y-94854578D01*
X58515279Y-94857109D01*
X58515279Y-95096528D01*
X58509485Y-95182638D01*
X58492381Y-95261865D01*
X58465495Y-95331416D01*
X58428804Y-95393634D01*
X58383667Y-95447091D01*
X58329812Y-95492649D01*
X58196760Y-95558586D01*
X58028331Y-95587814D01*
X58023984Y-95588005D01*
X57020146Y-95604675D01*
X56016308Y-95588005D01*
X55924815Y-95578449D01*
X55841632Y-95557992D01*
X55769630Y-95528391D01*
X55706138Y-95489567D01*
X55652769Y-95443251D01*
X55608205Y-95389020D01*
X55547023Y-95258922D01*
X55525018Y-95098947D01*
X55525013Y-95096528D01*
X55525013Y-94974712D01*
X56238874Y-94974712D01*
X56238874Y-94978925D01*
X56244776Y-95074402D01*
X56262644Y-95155409D01*
X56287681Y-95213673D01*
X56321849Y-95261870D01*
X56410600Y-95325830D01*
X56538435Y-95357984D01*
X56583257Y-95361043D01*
X57020146Y-95369469D01*
X57456852Y-95361043D01*
X57542891Y-95352097D01*
X57616164Y-95331480D01*
X57669154Y-95304104D01*
X57713011Y-95267545D01*
X57771653Y-95171996D01*
X57799527Y-95032183D01*
X57801235Y-94978925D01*
X57801235Y-94974712D01*
X57795332Y-94878030D01*
X57777465Y-94796521D01*
X57752568Y-94738502D01*
X57718628Y-94690722D01*
X57630459Y-94627592D01*
X57502560Y-94595726D01*
X57456852Y-94592594D01*
X57020146Y-94588381D01*
X56583257Y-94592594D01*
X56497187Y-94601608D01*
X56423893Y-94622283D01*
X56370891Y-94649703D01*
X56327030Y-94686300D01*
X56268401Y-94781901D01*
X56240566Y-94921733D01*
X56238874Y-94974712D01*
X55525013Y-94974712D01*
X55525013Y-94857109D01*
X55530807Y-94770957D01*
X55547915Y-94691698D01*
X55574799Y-94622147D01*
X55611490Y-94559936D01*
X55656615Y-94506510D01*
X55710459Y-94460985D01*
X55843475Y-94395138D01*
X56011891Y-94366006D01*
X56016308Y-94365814D01*
X57020146Y-94348961D01*
X58023984Y-94365814D01*
G37*
D11*
G36*
X56725000Y-101709926D02*
G01*
X56300841Y-101709926D01*
X56300841Y-101770834D01*
X56303807Y-101793897D01*
X56312840Y-101811323D01*
X56342300Y-101828544D01*
X56347095Y-101829636D01*
X56504540Y-101856930D01*
X56556316Y-101867920D01*
X56601027Y-101883806D01*
X56634973Y-101902145D01*
X56663418Y-101924475D01*
X56685116Y-101949055D01*
X56702075Y-101977222D01*
X56721994Y-102044804D01*
X56725000Y-102090029D01*
X56725000Y-102140404D01*
X56722152Y-102160329D01*
X56713946Y-102176233D01*
X56701778Y-102187068D01*
X56685729Y-102193459D01*
X56670411Y-102195084D01*
X56422657Y-102195084D01*
X56402783Y-102192238D01*
X56386924Y-102184041D01*
X56369710Y-102155826D01*
X56368069Y-102140404D01*
X56368069Y-102024908D01*
X56365104Y-102001884D01*
X56356071Y-101984452D01*
X56326585Y-101967193D01*
X56321816Y-101966106D01*
X56277760Y-101957772D01*
X56269259Y-102000560D01*
X56255492Y-102039617D01*
X56237259Y-102073817D01*
X56214394Y-102104222D01*
X56155938Y-102152784D01*
X56079667Y-102185199D01*
X55990073Y-102199206D01*
X55746441Y-102205525D01*
X55502900Y-102199206D01*
X55456219Y-102193766D01*
X55413747Y-102182880D01*
X55377236Y-102167535D01*
X55345047Y-102147569D01*
X55318247Y-102124046D01*
X55295899Y-102096543D01*
X55265591Y-102031068D01*
X55255054Y-101951452D01*
X55255054Y-101949345D01*
X55622518Y-101949345D01*
X55625466Y-101983143D01*
X55634378Y-102011534D01*
X55646942Y-102031525D01*
X55664089Y-102047195D01*
X55710320Y-102064707D01*
X55740121Y-102066948D01*
X55824201Y-102066948D01*
X55859549Y-102064047D01*
X55888834Y-102055466D01*
X55909848Y-102043215D01*
X55926207Y-102026744D01*
X55944991Y-101982825D01*
X55948032Y-101949345D01*
X55948032Y-101890544D01*
X55948032Y-101709926D01*
X55622518Y-101709926D01*
X55622518Y-101949345D01*
X55255054Y-101949345D01*
X55255054Y-101638577D01*
X55257962Y-101617692D01*
X55266588Y-101601323D01*
X55278816Y-101591111D01*
X55295276Y-101585266D01*
X55309643Y-101583989D01*
X56725000Y-101583989D01*
X56725000Y-101709926D01*
G37*
G36*
X56725000Y-102396218D02*
G01*
X56725000Y-102851884D01*
X56722092Y-102872769D01*
X56713466Y-102889138D01*
X56701238Y-102899349D01*
X56684778Y-102905194D01*
X56670411Y-102906472D01*
X56412124Y-102906472D01*
X56392211Y-102903625D01*
X56376332Y-102895419D01*
X56359156Y-102867208D01*
X56357536Y-102851884D01*
X56357536Y-102463354D01*
X56237827Y-102463354D01*
X56237827Y-102755255D01*
X56234979Y-102775169D01*
X56226773Y-102791048D01*
X56198563Y-102808223D01*
X56183238Y-102809843D01*
X55927058Y-102809843D01*
X55907144Y-102806996D01*
X55891266Y-102798790D01*
X55874090Y-102770580D01*
X55872470Y-102755255D01*
X55872470Y-102463354D01*
X55622518Y-102463354D01*
X55622518Y-102843457D01*
X55619611Y-102864342D01*
X55610984Y-102880711D01*
X55598756Y-102890923D01*
X55582296Y-102896768D01*
X55567930Y-102898046D01*
X55309643Y-102898046D01*
X55288758Y-102895138D01*
X55272389Y-102886512D01*
X55262177Y-102874284D01*
X55256332Y-102857824D01*
X55255054Y-102843457D01*
X55255054Y-102396218D01*
X55257962Y-102375333D01*
X55266588Y-102358964D01*
X55278816Y-102348752D01*
X55295276Y-102342908D01*
X55309643Y-102341630D01*
X56670411Y-102341630D01*
X56690325Y-102344477D01*
X56706204Y-102352683D01*
X56723379Y-102380893D01*
X56725000Y-102396218D01*
G37*
G36*
X56725000Y-103187015D02*
G01*
X56725000Y-103470490D01*
X56722117Y-103491400D01*
X56713664Y-103507942D01*
X56701419Y-103518804D01*
X56685046Y-103525379D01*
X56672518Y-103527185D01*
X55255054Y-103659442D01*
X55255054Y-103533504D01*
X56168584Y-103438982D01*
X56215013Y-103430685D01*
X56251651Y-103417304D01*
X56274010Y-103402727D01*
X56290283Y-103384531D01*
X56304534Y-103341657D01*
X56305054Y-103329806D01*
X56302110Y-103302000D01*
X56293225Y-103278452D01*
X56261983Y-103246120D01*
X56206913Y-103224826D01*
X56168584Y-103218523D01*
X55255054Y-103126107D01*
X55255054Y-103000078D01*
X56672518Y-103130321D01*
X56692711Y-103134457D01*
X56708256Y-103143782D01*
X56723846Y-103173344D01*
X56725000Y-103187015D01*
G37*
G36*
X56113995Y-103839693D02*
G01*
X56113995Y-104343627D01*
X56111150Y-104363513D01*
X56102952Y-104379397D01*
X56074730Y-104396662D01*
X56059316Y-104398307D01*
X55920738Y-104398307D01*
X55900864Y-104395461D01*
X55885005Y-104387264D01*
X55867791Y-104359049D01*
X55866150Y-104343627D01*
X55866150Y-103839693D01*
X55868997Y-103819779D01*
X55877203Y-103803901D01*
X55905414Y-103786725D01*
X55920738Y-103785105D01*
X56059316Y-103785105D01*
X56080213Y-103788012D01*
X56096609Y-103796639D01*
X56106849Y-103808868D01*
X56112713Y-103825332D01*
X56113995Y-103839693D01*
G37*
G36*
X56691296Y-104569101D02*
G01*
X56707665Y-104577727D01*
X56717877Y-104589955D01*
X56723722Y-104606415D01*
X56725000Y-104620782D01*
X56725000Y-104889510D01*
X56722103Y-104938296D01*
X56713549Y-104983337D01*
X56700122Y-105022994D01*
X56681801Y-105058664D01*
X56659530Y-105089219D01*
X56632995Y-105115567D01*
X56602818Y-105137211D01*
X56568818Y-105154331D01*
X56489368Y-105174210D01*
X56479352Y-105175183D01*
X56355430Y-105181411D01*
X56231507Y-105175183D01*
X56187145Y-105168979D01*
X56147914Y-105157468D01*
X56115827Y-105142001D01*
X56088431Y-105122191D01*
X56066503Y-105099095D01*
X56049095Y-105072249D01*
X56029915Y-105017646D01*
X56019419Y-105050041D01*
X56003865Y-105079252D01*
X55958706Y-105127204D01*
X55895099Y-105160295D01*
X55819988Y-105175183D01*
X55660345Y-105181411D01*
X55500793Y-105175183D01*
X55449317Y-105167707D01*
X55404114Y-105154793D01*
X55368985Y-105138580D01*
X55338708Y-105117864D01*
X55314519Y-105094107D01*
X55294534Y-105066199D01*
X55266704Y-104996718D01*
X55258762Y-104931550D01*
X55622518Y-104931550D01*
X55625465Y-104966902D01*
X55634368Y-104996141D01*
X55646775Y-105016330D01*
X55663664Y-105032113D01*
X55709580Y-105050307D01*
X55746441Y-105053367D01*
X55811562Y-105053367D01*
X55847755Y-105050428D01*
X55877576Y-105041581D01*
X55898127Y-105029269D01*
X55914130Y-105012557D01*
X55932427Y-104967499D01*
X55935484Y-104931550D01*
X56151731Y-104931550D01*
X56154687Y-104972160D01*
X56163659Y-105004479D01*
X56175468Y-105024666D01*
X56191423Y-105039479D01*
X56232375Y-105052868D01*
X56244146Y-105053367D01*
X56265121Y-105053367D01*
X56292239Y-105050428D01*
X56314519Y-105041581D01*
X56342318Y-105011444D01*
X56356219Y-104959618D01*
X56357536Y-104931550D01*
X56357536Y-104687918D01*
X56151731Y-104687918D01*
X56151731Y-104931550D01*
X55935484Y-104931550D01*
X55935484Y-104687918D01*
X55622518Y-104687918D01*
X55622518Y-104931550D01*
X55258762Y-104931550D01*
X55255186Y-104902207D01*
X55255054Y-104889510D01*
X55255054Y-104620782D01*
X55257962Y-104599897D01*
X55266588Y-104583528D01*
X55278816Y-104573316D01*
X55295276Y-104567472D01*
X55309643Y-104566194D01*
X56670411Y-104566194D01*
X56691296Y-104569101D01*
G37*
G36*
X58628641Y-101775788D02*
G01*
X58644545Y-101783994D01*
X58655380Y-101796162D01*
X58661771Y-101812212D01*
X58663396Y-101827529D01*
X58663396Y-101951452D01*
X58660491Y-101972292D01*
X58651878Y-101988639D01*
X58639648Y-101998873D01*
X58623191Y-102004743D01*
X58608716Y-102006040D01*
X58411338Y-102006040D01*
X58390452Y-102003133D01*
X58374083Y-101994506D01*
X58363872Y-101982279D01*
X58358027Y-101965819D01*
X58356749Y-101951452D01*
X58356749Y-101827529D01*
X58359656Y-101806644D01*
X58368283Y-101790275D01*
X58380511Y-101780064D01*
X58396971Y-101774219D01*
X58411338Y-101772941D01*
X58608716Y-101772941D01*
X58628641Y-101775788D01*
G37*
G36*
X59011992Y-101583989D02*
G01*
X59057703Y-101588739D01*
X59099272Y-101598942D01*
X59135268Y-101613723D01*
X59167016Y-101633119D01*
X59193710Y-101656267D01*
X59216003Y-101683375D01*
X59246617Y-101748410D01*
X59257637Y-101828371D01*
X59257639Y-101829636D01*
X59257639Y-101949345D01*
X59254742Y-101992401D01*
X59246190Y-102032014D01*
X59232747Y-102066790D01*
X59214402Y-102097899D01*
X59191833Y-102124627D01*
X59164906Y-102147406D01*
X59098380Y-102180374D01*
X59014165Y-102194988D01*
X59011992Y-102195084D01*
X58510073Y-102203419D01*
X58008154Y-102195084D01*
X57962407Y-102190306D01*
X57920816Y-102180078D01*
X57884815Y-102165277D01*
X57853069Y-102145865D01*
X57826384Y-102122707D01*
X57804102Y-102095591D01*
X57773511Y-102030542D01*
X57762509Y-101950555D01*
X57762506Y-101949345D01*
X57762506Y-101888437D01*
X58119437Y-101888437D01*
X58119437Y-101890544D01*
X58122388Y-101938282D01*
X58131322Y-101978786D01*
X58143840Y-102007918D01*
X58160924Y-102032016D01*
X58205300Y-102063996D01*
X58269217Y-102080073D01*
X58291628Y-102081603D01*
X58510073Y-102085816D01*
X58728426Y-102081603D01*
X58771445Y-102077130D01*
X58808082Y-102066821D01*
X58834577Y-102053133D01*
X58856505Y-102034854D01*
X58885826Y-101987079D01*
X58899763Y-101917173D01*
X58900617Y-101890544D01*
X58900617Y-101888437D01*
X58897666Y-101840096D01*
X58888732Y-101799342D01*
X58876284Y-101770332D01*
X58859314Y-101746442D01*
X58815229Y-101714878D01*
X58751280Y-101698945D01*
X58728426Y-101697378D01*
X58510073Y-101695272D01*
X58291628Y-101697378D01*
X58248593Y-101701885D01*
X58211946Y-101712223D01*
X58185445Y-101725933D01*
X58163515Y-101744231D01*
X58134200Y-101792032D01*
X58120283Y-101861948D01*
X58119437Y-101888437D01*
X57762506Y-101888437D01*
X57762506Y-101829636D01*
X57765403Y-101786560D01*
X57773957Y-101746930D01*
X57787399Y-101712155D01*
X57805745Y-101681049D01*
X57828307Y-101654337D01*
X57855229Y-101631574D01*
X57921737Y-101598651D01*
X58005945Y-101584085D01*
X58008154Y-101583989D01*
X58510073Y-101575562D01*
X59011992Y-101583989D01*
G37*
G36*
X59018220Y-102360040D02*
G01*
X59071989Y-102367108D01*
X59118668Y-102379581D01*
X59154159Y-102395188D01*
X59184276Y-102415142D01*
X59207585Y-102437705D01*
X59226366Y-102464134D01*
X59250668Y-102529014D01*
X59257639Y-102601474D01*
X59257639Y-102729610D01*
X59254689Y-102778353D01*
X59245766Y-102821465D01*
X59232722Y-102855132D01*
X59214787Y-102884460D01*
X59167185Y-102928268D01*
X59099690Y-102957525D01*
X59018220Y-102971135D01*
X58864988Y-102977363D01*
X58699025Y-102971135D01*
X58632992Y-102953896D01*
X58598696Y-102936121D01*
X58567837Y-102913313D01*
X58543987Y-102888269D01*
X58526336Y-102860063D01*
X58522621Y-102851426D01*
X58495862Y-102897470D01*
X58445603Y-102939576D01*
X58412651Y-102956146D01*
X58377893Y-102967130D01*
X58352536Y-102971135D01*
X58174025Y-102977363D01*
X58008154Y-102971135D01*
X57952973Y-102964029D01*
X57905063Y-102951498D01*
X57868785Y-102935885D01*
X57837973Y-102915916D01*
X57814201Y-102893430D01*
X57794997Y-102867078D01*
X57770049Y-102802648D01*
X57762506Y-102727503D01*
X57762506Y-102603580D01*
X58117330Y-102603580D01*
X58117330Y-102727503D01*
X58120317Y-102762854D01*
X58129503Y-102792094D01*
X58142082Y-102811763D01*
X58159360Y-102827277D01*
X58207287Y-102845674D01*
X58251786Y-102849319D01*
X58333668Y-102849319D01*
X58369020Y-102846380D01*
X58398259Y-102837534D01*
X58418558Y-102825161D01*
X58434398Y-102808353D01*
X58452546Y-102762856D01*
X58455484Y-102727503D01*
X58455484Y-102603580D01*
X58671731Y-102603580D01*
X58671731Y-102727503D01*
X58674700Y-102768112D01*
X58683761Y-102800431D01*
X58695624Y-102820459D01*
X58711695Y-102835210D01*
X58753257Y-102848746D01*
X58766253Y-102849319D01*
X58822948Y-102849319D01*
X58850066Y-102846380D01*
X58872346Y-102837534D01*
X58900145Y-102807397D01*
X58914046Y-102755571D01*
X58915363Y-102727503D01*
X58915363Y-102603580D01*
X58912407Y-102562971D01*
X58903435Y-102530652D01*
X58891626Y-102510465D01*
X58875671Y-102495652D01*
X58834719Y-102482263D01*
X58822948Y-102481764D01*
X58766253Y-102481764D01*
X58738293Y-102484703D01*
X58715432Y-102493549D01*
X58699477Y-102506193D01*
X58687228Y-102523438D01*
X58673156Y-102574506D01*
X58671731Y-102603580D01*
X58455484Y-102603580D01*
X58452546Y-102568229D01*
X58443699Y-102538989D01*
X58431326Y-102518691D01*
X58414518Y-102502851D01*
X58369021Y-102484703D01*
X58333668Y-102481764D01*
X58251786Y-102481764D01*
X58211383Y-102484703D01*
X58178657Y-102493549D01*
X58156825Y-102505601D01*
X58139988Y-102521893D01*
X58120961Y-102564983D01*
X58117330Y-102603580D01*
X57762506Y-102603580D01*
X57765455Y-102554857D01*
X57774373Y-102511743D01*
X57787424Y-102478003D01*
X57805368Y-102448580D01*
X57853069Y-102404443D01*
X57920796Y-102374694D01*
X58008154Y-102360040D01*
X58174025Y-102353720D01*
X58352536Y-102360040D01*
X58419398Y-102377260D01*
X58451331Y-102394354D01*
X58479669Y-102416470D01*
X58501510Y-102441133D01*
X58517848Y-102469407D01*
X58522621Y-102481764D01*
X58551464Y-102433960D01*
X58602055Y-102392444D01*
X58669867Y-102364847D01*
X58699025Y-102360040D01*
X58864988Y-102353720D01*
X59018220Y-102360040D01*
G37*
G36*
X58633995Y-103190496D02*
G01*
X58633995Y-103694430D01*
X58631150Y-103714316D01*
X58622952Y-103730199D01*
X58594730Y-103747464D01*
X58579316Y-103749110D01*
X58440738Y-103749110D01*
X58420864Y-103746264D01*
X58405005Y-103738067D01*
X58387791Y-103709852D01*
X58386150Y-103694430D01*
X58386150Y-103190496D01*
X58388997Y-103170582D01*
X58397203Y-103154703D01*
X58425414Y-103137528D01*
X58440738Y-103135908D01*
X58579316Y-103135908D01*
X58600213Y-103138815D01*
X58616609Y-103147441D01*
X58626849Y-103159671D01*
X58632713Y-103176134D01*
X58633995Y-103190496D01*
G37*
G36*
X59245000Y-103973691D02*
G01*
X59245000Y-104479732D01*
X59242008Y-104503506D01*
X59232791Y-104520277D01*
X59204567Y-104533396D01*
X59190411Y-104534320D01*
X58930018Y-104534320D01*
X58906281Y-104531328D01*
X58889508Y-104522112D01*
X58876354Y-104493863D01*
X58875430Y-104479732D01*
X58875430Y-104053467D01*
X58836444Y-104056398D01*
X58801254Y-104065191D01*
X58771827Y-104078647D01*
X58745549Y-104097186D01*
X58715878Y-104129030D01*
X58512179Y-104395743D01*
X58480710Y-104432038D01*
X58446466Y-104461751D01*
X58412302Y-104483365D01*
X58374752Y-104500069D01*
X58286103Y-104519931D01*
X58266441Y-104521772D01*
X58106322Y-104522734D01*
X58008154Y-104519665D01*
X57955095Y-104514055D01*
X57908727Y-104502828D01*
X57873150Y-104488117D01*
X57842667Y-104468866D01*
X57818713Y-104446711D01*
X57799084Y-104420485D01*
X57772456Y-104355194D01*
X57762506Y-104263485D01*
X57762506Y-104154217D01*
X57765455Y-104103059D01*
X57774373Y-104058310D01*
X57787228Y-104024191D01*
X57804852Y-103994896D01*
X57825670Y-103971851D01*
X57850765Y-103952907D01*
X57914856Y-103926920D01*
X58008154Y-103916996D01*
X58306374Y-103925331D01*
X58306374Y-104051360D01*
X58254341Y-104056123D01*
X58212057Y-104066594D01*
X58184373Y-104079587D01*
X58162781Y-104096662D01*
X58138484Y-104138366D01*
X58132076Y-104185724D01*
X58132076Y-104267698D01*
X58135064Y-104304905D01*
X58144256Y-104335667D01*
X58156768Y-104356250D01*
X58173937Y-104372501D01*
X58220810Y-104391689D01*
X58266441Y-104395743D01*
X58295375Y-104392798D01*
X58322768Y-104383905D01*
X58373212Y-104348636D01*
X58405018Y-104311754D01*
X58612930Y-104040827D01*
X58643683Y-104005745D01*
X58677538Y-103976685D01*
X58711884Y-103955154D01*
X58749495Y-103938678D01*
X58835251Y-103920772D01*
X58875430Y-103919103D01*
X59190411Y-103919103D01*
X59214186Y-103922094D01*
X59230956Y-103931311D01*
X59244076Y-103959536D01*
X59245000Y-103973691D01*
G37*
G36*
X58628641Y-104892815D02*
G01*
X58644545Y-104901021D01*
X58655380Y-104913189D01*
X58661771Y-104929239D01*
X58663396Y-104944556D01*
X58663396Y-105068479D01*
X58660491Y-105089319D01*
X58651878Y-105105666D01*
X58639648Y-105115900D01*
X58623191Y-105121770D01*
X58608716Y-105123067D01*
X58411338Y-105123067D01*
X58390452Y-105120160D01*
X58374083Y-105111534D01*
X58363872Y-105099306D01*
X58358027Y-105082846D01*
X58356749Y-105068479D01*
X58356749Y-104944556D01*
X58359656Y-104923671D01*
X58368283Y-104907302D01*
X58380511Y-104897091D01*
X58396971Y-104891246D01*
X58411338Y-104889968D01*
X58608716Y-104889968D01*
X58628641Y-104892815D01*
G37*
G36*
X59011992Y-104701016D02*
G01*
X59057703Y-104705766D01*
X59099272Y-104715969D01*
X59135268Y-104730750D01*
X59167016Y-104750146D01*
X59193710Y-104773294D01*
X59216003Y-104800402D01*
X59246617Y-104865438D01*
X59257637Y-104945398D01*
X59257639Y-104946663D01*
X59257639Y-105066372D01*
X59254742Y-105109428D01*
X59246190Y-105149041D01*
X59232747Y-105183817D01*
X59214402Y-105214926D01*
X59191833Y-105241654D01*
X59164906Y-105264433D01*
X59098380Y-105297401D01*
X59014165Y-105312016D01*
X59011992Y-105312111D01*
X58510073Y-105320446D01*
X58008154Y-105312111D01*
X57962407Y-105307333D01*
X57920816Y-105297105D01*
X57884815Y-105282304D01*
X57853069Y-105262892D01*
X57826384Y-105239734D01*
X57804102Y-105212619D01*
X57773511Y-105147569D01*
X57762509Y-105067582D01*
X57762506Y-105066372D01*
X57762506Y-105005464D01*
X58119437Y-105005464D01*
X58119437Y-105007571D01*
X58122388Y-105055310D01*
X58131322Y-105095813D01*
X58143840Y-105124945D01*
X58160924Y-105149044D01*
X58205300Y-105181024D01*
X58269217Y-105197101D01*
X58291628Y-105198630D01*
X58510073Y-105202843D01*
X58728426Y-105198630D01*
X58771445Y-105194157D01*
X58808082Y-105183849D01*
X58834577Y-105170161D01*
X58856505Y-105151881D01*
X58885826Y-105104107D01*
X58899763Y-105034200D01*
X58900617Y-105007571D01*
X58900617Y-105005464D01*
X58897666Y-104957123D01*
X58888732Y-104916369D01*
X58876284Y-104887359D01*
X58859314Y-104863470D01*
X58815229Y-104831905D01*
X58751280Y-104815972D01*
X58728426Y-104814405D01*
X58510073Y-104812299D01*
X58291628Y-104814405D01*
X58248593Y-104818912D01*
X58211946Y-104829250D01*
X58185445Y-104842960D01*
X58163515Y-104861258D01*
X58134200Y-104909059D01*
X58120283Y-104978975D01*
X58119437Y-105005464D01*
X57762506Y-105005464D01*
X57762506Y-104946663D01*
X57765403Y-104903587D01*
X57773957Y-104863958D01*
X57787399Y-104829182D01*
X57805745Y-104798077D01*
X57828307Y-104771364D01*
X57855229Y-104748601D01*
X57921737Y-104715678D01*
X58005945Y-104701112D01*
X58008154Y-104701016D01*
X58510073Y-104692589D01*
X59011992Y-104701016D01*
G37*
G36*
X59245000Y-105535868D02*
G01*
X59245000Y-106041909D01*
X59242008Y-106065684D01*
X59232791Y-106082454D01*
X59204567Y-106095574D01*
X59190411Y-106096497D01*
X58930018Y-106096497D01*
X58906281Y-106093506D01*
X58889508Y-106084289D01*
X58876354Y-106056040D01*
X58875430Y-106041909D01*
X58875430Y-105615644D01*
X58836444Y-105618575D01*
X58801254Y-105627368D01*
X58771827Y-105640825D01*
X58745549Y-105659364D01*
X58715878Y-105691207D01*
X58512179Y-105957920D01*
X58480710Y-105994215D01*
X58446466Y-106023928D01*
X58412302Y-106045542D01*
X58374752Y-106062246D01*
X58286103Y-106082108D01*
X58266441Y-106083949D01*
X58106322Y-106084911D01*
X58008154Y-106081843D01*
X57955095Y-106076233D01*
X57908727Y-106065005D01*
X57873150Y-106050295D01*
X57842667Y-106031043D01*
X57818713Y-106008888D01*
X57799084Y-105982662D01*
X57772456Y-105917372D01*
X57762506Y-105825662D01*
X57762506Y-105716394D01*
X57765455Y-105665236D01*
X57774373Y-105620487D01*
X57787228Y-105586368D01*
X57804852Y-105557073D01*
X57825670Y-105534028D01*
X57850765Y-105515084D01*
X57914856Y-105489097D01*
X58008154Y-105479173D01*
X58306374Y-105487508D01*
X58306374Y-105613538D01*
X58254341Y-105618300D01*
X58212057Y-105628772D01*
X58184373Y-105641764D01*
X58162781Y-105658839D01*
X58138484Y-105700543D01*
X58132076Y-105747902D01*
X58132076Y-105829876D01*
X58135064Y-105867082D01*
X58144256Y-105897844D01*
X58156768Y-105918427D01*
X58173937Y-105934678D01*
X58220810Y-105953866D01*
X58266441Y-105957920D01*
X58295375Y-105954975D01*
X58322768Y-105946082D01*
X58373212Y-105910813D01*
X58405018Y-105873931D01*
X58612930Y-105603005D01*
X58643683Y-105567922D01*
X58677538Y-105538862D01*
X58711884Y-105517331D01*
X58749495Y-105500855D01*
X58835251Y-105482949D01*
X58875430Y-105481280D01*
X59190411Y-105481280D01*
X59214186Y-105484272D01*
X59230956Y-105493488D01*
X59244076Y-105521713D01*
X59245000Y-105535868D01*
G37*
G36*
X59016113Y-106261086D02*
G01*
X59070078Y-106265416D01*
X59117052Y-106275489D01*
X59152743Y-106289187D01*
X59183117Y-106307444D01*
X59206563Y-106328463D01*
X59225536Y-106353465D01*
X59250219Y-106415444D01*
X59257639Y-106487866D01*
X59257639Y-106613895D01*
X59254696Y-106661357D01*
X59245819Y-106703510D01*
X59232721Y-106736917D01*
X59214721Y-106766143D01*
X59166598Y-106810480D01*
X59098169Y-106840691D01*
X59016113Y-106855329D01*
X58829268Y-106863756D01*
X58705906Y-106859856D01*
X58699025Y-106859542D01*
X58645904Y-106853898D01*
X58599518Y-106842656D01*
X58563940Y-106827944D01*
X58533522Y-106808721D01*
X58509723Y-106786656D01*
X58490311Y-106760571D01*
X58464380Y-106695908D01*
X58455484Y-106611789D01*
X58455484Y-106498399D01*
X58671731Y-106498399D01*
X58671731Y-106611789D01*
X58674694Y-106655080D01*
X58683712Y-106688391D01*
X58695136Y-106707710D01*
X58710490Y-106721223D01*
X58749295Y-106731386D01*
X58751507Y-106731407D01*
X58795654Y-106731407D01*
X58819994Y-106728459D01*
X58839845Y-106719551D01*
X58864458Y-106688781D01*
X58876675Y-106632867D01*
X58877536Y-106607575D01*
X58877536Y-106506734D01*
X58874557Y-106462189D01*
X58865426Y-106427616D01*
X58853866Y-106407414D01*
X58838260Y-106392959D01*
X58798731Y-106380944D01*
X58795654Y-106380796D01*
X58741065Y-106378689D01*
X58720536Y-106383461D01*
X58703604Y-106393794D01*
X58681413Y-106428532D01*
X58671731Y-106498399D01*
X58455484Y-106498399D01*
X58455484Y-106481546D01*
X58458452Y-106453883D01*
X58467502Y-106432932D01*
X58479491Y-106420695D01*
X58495762Y-106412629D01*
X58528941Y-106408090D01*
X58528941Y-106376583D01*
X58247573Y-106382811D01*
X58211793Y-106386679D01*
X58182288Y-106396348D01*
X58161985Y-106409300D01*
X58146211Y-106426633D01*
X58128409Y-106472995D01*
X58125757Y-106506734D01*
X58125757Y-106628550D01*
X58128824Y-106660441D01*
X58138571Y-106687129D01*
X58151818Y-106704858D01*
X58170344Y-106719280D01*
X58225606Y-106738435D01*
X58281187Y-106744046D01*
X58281187Y-106867969D01*
X58132065Y-106874289D01*
X58008154Y-106874289D01*
X57954076Y-106869303D01*
X57906964Y-106858607D01*
X57871235Y-106844409D01*
X57840717Y-106825643D01*
X57816981Y-106804062D01*
X57797609Y-106778417D01*
X57771668Y-106714508D01*
X57762506Y-106628550D01*
X57762506Y-106506734D01*
X57765455Y-106454864D01*
X57774373Y-106409385D01*
X57787259Y-106374531D01*
X57804933Y-106344480D01*
X57825841Y-106320675D01*
X57851054Y-106300941D01*
X57915408Y-106273238D01*
X58008154Y-106261086D01*
X58512179Y-106254767D01*
X59016113Y-106261086D01*
G37*
D12*
G36*
X59068995Y-68987853D02*
G01*
X59115521Y-68992949D01*
X59162395Y-69000830D01*
X59209513Y-69011562D01*
X59256773Y-69025223D01*
X59295517Y-69038517D01*
X59332465Y-69053014D01*
X59367617Y-69068714D01*
X59400976Y-69085614D01*
X59432536Y-69103719D01*
X59462308Y-69123027D01*
X59490281Y-69143536D01*
X59516464Y-69165250D01*
X59540851Y-69188166D01*
X59563444Y-69212283D01*
X59584245Y-69237606D01*
X59603250Y-69264132D01*
X59620466Y-69291861D01*
X59635885Y-69320795D01*
X59649512Y-69350931D01*
X59661347Y-69382274D01*
X59661347Y-69382268D01*
X59670372Y-69410509D01*
X59678190Y-69438949D01*
X59684825Y-69467535D01*
X59690284Y-69496226D01*
X59694581Y-69524968D01*
X59697738Y-69553715D01*
X59699764Y-69582417D01*
X59700675Y-69611030D01*
X59700488Y-69639501D01*
X59699215Y-69667786D01*
X59696871Y-69695831D01*
X59693473Y-69723593D01*
X59689037Y-69751022D01*
X59683571Y-69778069D01*
X59677098Y-69804689D01*
X59669628Y-69830830D01*
X59661178Y-69856445D01*
X59651759Y-69881487D01*
X59641389Y-69905906D01*
X59630086Y-69929654D01*
X59617859Y-69952686D01*
X59604727Y-69974948D01*
X59590700Y-69996397D01*
X59575799Y-70016982D01*
X59560033Y-70036654D01*
X59543421Y-70055365D01*
X59525977Y-70073073D01*
X59507712Y-70089722D01*
X59488648Y-70105267D01*
X59468795Y-70119659D01*
X59448167Y-70132850D01*
X59426783Y-70144793D01*
X59284562Y-70218659D01*
X59284562Y-70078212D01*
X59284754Y-70059205D01*
X59285349Y-70041663D01*
X59285802Y-70033424D01*
X59286367Y-70025529D01*
X59287042Y-70017971D01*
X59287834Y-70010746D01*
X59288741Y-70003842D01*
X59289772Y-69997251D01*
X59290925Y-69990970D01*
X59292206Y-69984987D01*
X59293619Y-69979297D01*
X59295163Y-69973891D01*
X59296842Y-69968765D01*
X59298660Y-69963911D01*
X59300621Y-69959316D01*
X59302727Y-69954977D01*
X59304980Y-69950890D01*
X59307385Y-69947040D01*
X59309941Y-69943424D01*
X59312655Y-69940036D01*
X59315530Y-69936863D01*
X59318565Y-69933903D01*
X59321765Y-69931147D01*
X59325139Y-69928584D01*
X59328679Y-69926214D01*
X59332395Y-69924025D01*
X59336289Y-69922006D01*
X59340362Y-69920157D01*
X59344620Y-69918466D01*
X59349067Y-69916925D01*
X59356416Y-69914207D01*
X59363685Y-69910846D01*
X59370857Y-69906861D01*
X59377926Y-69902272D01*
X59391714Y-69891366D01*
X59404968Y-69878292D01*
X59417606Y-69863215D01*
X59429558Y-69846299D01*
X59440740Y-69827708D01*
X59451078Y-69807608D01*
X59460492Y-69786159D01*
X59468901Y-69763529D01*
X59476234Y-69739879D01*
X59482405Y-69715378D01*
X59487343Y-69690182D01*
X59490967Y-69664464D01*
X59493197Y-69638381D01*
X59493959Y-69612101D01*
X59493493Y-69598726D01*
X59492129Y-69585178D01*
X59489889Y-69571491D01*
X59486813Y-69557714D01*
X59482934Y-69543870D01*
X59478287Y-69530004D01*
X59472902Y-69516148D01*
X59466816Y-69502346D01*
X59460060Y-69488632D01*
X59452667Y-69475045D01*
X59436112Y-69448390D01*
X59417417Y-69422686D01*
X59396855Y-69398229D01*
X59374691Y-69375312D01*
X59351193Y-69354243D01*
X59339033Y-69344492D01*
X59326639Y-69335314D01*
X59314046Y-69326743D01*
X59301285Y-69318820D01*
X59288395Y-69311584D01*
X59275409Y-69305066D01*
X59262356Y-69299309D01*
X59249274Y-69294346D01*
X59236195Y-69290219D01*
X59223154Y-69286960D01*
X59210183Y-69284610D01*
X59197314Y-69283204D01*
X59092616Y-69275684D01*
X59082876Y-69746452D01*
X59073142Y-70217219D01*
X58949753Y-70217219D01*
X58920505Y-70216535D01*
X58891485Y-70214500D01*
X58862735Y-70211153D01*
X58834288Y-70206522D01*
X58806184Y-70200635D01*
X58778463Y-70193530D01*
X58751160Y-70185241D01*
X58724317Y-70175794D01*
X58697968Y-70165226D01*
X58672156Y-70153565D01*
X58646918Y-70140847D01*
X58622289Y-70127102D01*
X58598313Y-70112362D01*
X58575023Y-70096661D01*
X58552457Y-70080028D01*
X58530663Y-70062498D01*
X58509668Y-70044103D01*
X58489515Y-70024875D01*
X58470239Y-70004846D01*
X58451884Y-69984046D01*
X58434484Y-69962508D01*
X58418080Y-69940268D01*
X58402708Y-69917354D01*
X58388406Y-69893800D01*
X58375214Y-69869636D01*
X58363170Y-69844899D01*
X58352313Y-69819613D01*
X58342682Y-69793819D01*
X58334313Y-69767543D01*
X58327243Y-69740820D01*
X58321515Y-69713683D01*
X58317164Y-69686163D01*
X58312949Y-69642227D01*
X58312563Y-69626174D01*
X58531518Y-69626174D01*
X58532643Y-69646739D01*
X58535044Y-69667154D01*
X58538746Y-69687351D01*
X58543763Y-69707258D01*
X58550106Y-69726812D01*
X58557789Y-69745937D01*
X58566831Y-69764572D01*
X58577250Y-69782643D01*
X58589052Y-69800083D01*
X58602256Y-69816823D01*
X58616881Y-69832794D01*
X58632939Y-69847928D01*
X58643276Y-69856591D01*
X58654191Y-69865013D01*
X58665592Y-69873149D01*
X58677383Y-69880953D01*
X58689473Y-69888383D01*
X58701767Y-69895398D01*
X58714169Y-69901950D01*
X58726595Y-69907998D01*
X58738937Y-69913498D01*
X58751114Y-69918406D01*
X58763026Y-69922679D01*
X58774583Y-69926272D01*
X58785690Y-69929142D01*
X58796251Y-69931248D01*
X58806176Y-69932541D01*
X58815369Y-69932983D01*
X58843183Y-69932180D01*
X58854473Y-69930507D01*
X58864180Y-69927394D01*
X58872421Y-69922393D01*
X58876032Y-69919046D01*
X58879319Y-69915060D01*
X58884993Y-69904945D01*
X58889559Y-69891609D01*
X58893142Y-69874600D01*
X58895856Y-69853473D01*
X58897826Y-69827786D01*
X58899169Y-69797092D01*
X58900456Y-69718891D01*
X58900671Y-69615311D01*
X58900504Y-69582848D01*
X58900018Y-69551089D01*
X58898148Y-69490379D01*
X58896795Y-69461776D01*
X58895192Y-69434573D01*
X58893347Y-69408938D01*
X58891279Y-69385049D01*
X58889007Y-69363077D01*
X58886544Y-69343198D01*
X58883905Y-69325582D01*
X58881111Y-69310404D01*
X58878179Y-69297836D01*
X58875122Y-69288054D01*
X58873552Y-69284256D01*
X58871956Y-69281223D01*
X58870340Y-69278974D01*
X58868700Y-69277527D01*
X58865021Y-69275642D01*
X58860615Y-69274135D01*
X58855544Y-69272994D01*
X58849859Y-69272216D01*
X58843626Y-69271800D01*
X58836897Y-69271732D01*
X58829733Y-69272015D01*
X58822193Y-69272634D01*
X58814334Y-69273589D01*
X58806217Y-69274869D01*
X58797893Y-69276473D01*
X58789426Y-69278394D01*
X58780873Y-69280624D01*
X58772290Y-69283158D01*
X58763739Y-69285992D01*
X58755277Y-69289117D01*
X58733904Y-69298261D01*
X58713513Y-69308627D01*
X58694119Y-69320149D01*
X58675736Y-69332759D01*
X58658384Y-69346384D01*
X58642069Y-69360958D01*
X58626815Y-69376414D01*
X58612632Y-69392680D01*
X58599535Y-69409691D01*
X58587539Y-69427374D01*
X58576663Y-69445661D01*
X58566918Y-69464488D01*
X58558320Y-69483781D01*
X58550884Y-69503476D01*
X58544626Y-69523498D01*
X58539561Y-69543785D01*
X58535701Y-69564265D01*
X58533064Y-69584868D01*
X58531666Y-69605528D01*
X58531518Y-69626174D01*
X58312563Y-69626174D01*
X58311912Y-69599076D01*
X58313954Y-69556792D01*
X58318966Y-69515437D01*
X58326856Y-69475088D01*
X58337517Y-69435816D01*
X58350854Y-69397687D01*
X58366760Y-69360778D01*
X58385135Y-69325156D01*
X58405880Y-69290894D01*
X58428893Y-69258065D01*
X58454071Y-69226737D01*
X58481316Y-69196983D01*
X58510522Y-69168871D01*
X58541593Y-69142478D01*
X58574425Y-69117869D01*
X58608916Y-69095122D01*
X58644968Y-69074300D01*
X58682479Y-69055480D01*
X58721346Y-69038732D01*
X58761468Y-69024124D01*
X58802747Y-69011730D01*
X58836897Y-69003577D01*
X58845078Y-69001625D01*
X58888360Y-68993873D01*
X58932495Y-68988551D01*
X58977378Y-68985725D01*
X59022913Y-68985467D01*
X59068995Y-68987853D01*
G37*
G36*
X60611278Y-67055468D02*
G01*
X60706226Y-67056747D01*
X60791099Y-67059114D01*
X60829972Y-67060768D01*
X60866583Y-67062771D01*
X60901018Y-67065140D01*
X60933368Y-67067910D01*
X60963713Y-67071095D01*
X60992139Y-67074725D01*
X61018737Y-67078826D01*
X61043588Y-67083414D01*
X61066783Y-67088523D01*
X61088404Y-67094174D01*
X61108538Y-67100393D01*
X61127274Y-67107199D01*
X61144691Y-67114623D01*
X61160882Y-67122685D01*
X61175933Y-67131411D01*
X61189925Y-67140828D01*
X61202947Y-67150956D01*
X61215085Y-67161821D01*
X61226425Y-67173449D01*
X61237053Y-67185863D01*
X61247054Y-67199090D01*
X61256517Y-67213147D01*
X61265523Y-67228070D01*
X61274163Y-67243874D01*
X61282522Y-67260586D01*
X61290685Y-67278234D01*
X61290690Y-67278234D01*
X61302097Y-67307798D01*
X61311605Y-67340734D01*
X61319247Y-67376465D01*
X61325051Y-67414402D01*
X61329048Y-67453966D01*
X61331264Y-67494576D01*
X61331734Y-67535648D01*
X61330490Y-67576603D01*
X61327555Y-67616855D01*
X61322963Y-67655824D01*
X61316742Y-67692928D01*
X61308926Y-67727585D01*
X61299540Y-67759213D01*
X61288618Y-67787228D01*
X61282589Y-67799702D01*
X61276187Y-67811052D01*
X61269416Y-67821210D01*
X61262279Y-67830101D01*
X61249587Y-67844734D01*
X61243860Y-67851631D01*
X61238545Y-67858248D01*
X61233641Y-67864590D01*
X61229150Y-67870662D01*
X61225070Y-67876466D01*
X61221402Y-67882003D01*
X61218144Y-67887278D01*
X61215298Y-67892294D01*
X61212862Y-67897055D01*
X61210840Y-67901563D01*
X61209223Y-67905819D01*
X61208022Y-67909830D01*
X61207230Y-67913597D01*
X61206848Y-67917122D01*
X61206874Y-67920410D01*
X61207312Y-67923466D01*
X61208157Y-67926287D01*
X61209415Y-67928882D01*
X61211081Y-67931251D01*
X61213156Y-67933397D01*
X61215641Y-67935328D01*
X61218534Y-67937037D01*
X61221835Y-67938534D01*
X61225546Y-67939825D01*
X61229666Y-67940909D01*
X61234192Y-67941784D01*
X61239126Y-67942463D01*
X61244470Y-67942945D01*
X61250219Y-67943230D01*
X61256378Y-67943325D01*
X61259607Y-67943430D01*
X61262731Y-67943743D01*
X61265753Y-67944263D01*
X61268671Y-67944994D01*
X61271489Y-67945936D01*
X61274199Y-67947085D01*
X61276810Y-67948442D01*
X61279316Y-67950011D01*
X61281720Y-67951788D01*
X61284021Y-67953776D01*
X61286220Y-67955972D01*
X61288318Y-67958377D01*
X61292199Y-67963819D01*
X61295674Y-67970102D01*
X61298734Y-67977226D01*
X61301390Y-67985192D01*
X61303632Y-67993999D01*
X61305469Y-68003648D01*
X61306896Y-68014144D01*
X61307914Y-68025483D01*
X61308525Y-68037669D01*
X61308729Y-68050699D01*
X61308729Y-68158071D01*
X60654364Y-68148407D01*
X60000000Y-68138739D01*
X60000000Y-68032151D01*
X60000000Y-67925563D01*
X60500475Y-67907797D01*
X60584181Y-67904755D01*
X60658202Y-67901857D01*
X60723237Y-67898977D01*
X60779977Y-67895981D01*
X60805453Y-67894407D01*
X60829122Y-67892758D01*
X60851063Y-67891019D01*
X60871369Y-67889173D01*
X60890122Y-67887208D01*
X60907412Y-67885107D01*
X60923326Y-67882851D01*
X60937950Y-67880431D01*
X60951371Y-67877827D01*
X60963677Y-67875023D01*
X60974955Y-67872004D01*
X60985292Y-67868755D01*
X60994774Y-67865265D01*
X61003490Y-67861507D01*
X61011523Y-67857474D01*
X61018963Y-67853151D01*
X61025901Y-67848518D01*
X61032417Y-67843560D01*
X61038602Y-67838266D01*
X61044542Y-67832616D01*
X61050323Y-67826597D01*
X61056034Y-67820188D01*
X61067592Y-67806155D01*
X61075341Y-67795859D01*
X61082593Y-67785132D01*
X61089343Y-67774004D01*
X61095592Y-67762504D01*
X61106595Y-67738495D01*
X61115598Y-67713336D01*
X61122598Y-67687259D01*
X61127601Y-67660491D01*
X61130603Y-67633264D01*
X61131605Y-67605807D01*
X61130608Y-67578349D01*
X61127611Y-67551121D01*
X61122613Y-67524353D01*
X61115615Y-67498271D01*
X61106618Y-67473108D01*
X61095618Y-67449097D01*
X61089371Y-67437593D01*
X61082623Y-67426462D01*
X61075375Y-67415734D01*
X61067626Y-67405436D01*
X61044587Y-67378972D01*
X61032468Y-67368025D01*
X61019020Y-67358436D01*
X61003549Y-67350081D01*
X60985354Y-67342832D01*
X60963743Y-67336565D01*
X60938015Y-67331154D01*
X60907479Y-67326483D01*
X60871434Y-67322413D01*
X60780038Y-67315602D01*
X60658254Y-67309732D01*
X60500511Y-67303795D01*
X60000000Y-67286028D01*
X59989063Y-67170556D01*
X59978125Y-67055086D01*
X60505561Y-67055086D01*
X60611278Y-67055468D01*
G37*
G36*
X61621194Y-61091692D02*
G01*
X61747389Y-61092672D01*
X61855422Y-61094428D01*
X61941737Y-61096921D01*
X62002782Y-61100105D01*
X62022721Y-61101945D01*
X62035010Y-61103943D01*
X62035014Y-61103943D01*
X62046883Y-61107158D01*
X62057519Y-61110622D01*
X62066976Y-61114432D01*
X62075302Y-61118679D01*
X62079057Y-61121000D01*
X62082546Y-61123466D01*
X62085777Y-61126087D01*
X62088757Y-61128876D01*
X62091490Y-61131848D01*
X62093983Y-61135008D01*
X62096242Y-61138379D01*
X62098270Y-61141962D01*
X62100082Y-61145775D01*
X62101676Y-61149826D01*
X62103061Y-61154131D01*
X62104245Y-61158698D01*
X62105228Y-61163540D01*
X62106022Y-61168668D01*
X62107062Y-61179832D01*
X62107411Y-61192285D01*
X62107121Y-61206123D01*
X62106237Y-61221440D01*
X62104812Y-61238330D01*
X62093965Y-61352579D01*
X61821578Y-61362994D01*
X61549190Y-61373406D01*
X61618275Y-61487347D01*
X61631076Y-61509193D01*
X61642644Y-61530579D01*
X61653020Y-61551708D01*
X61662252Y-61572796D01*
X61670373Y-61594048D01*
X61677427Y-61615672D01*
X61683450Y-61637877D01*
X61688485Y-61660863D01*
X61692573Y-61684846D01*
X61695755Y-61710029D01*
X61698070Y-61736619D01*
X61699556Y-61764823D01*
X61700259Y-61794854D01*
X61700214Y-61826916D01*
X61699463Y-61861217D01*
X61698049Y-61897958D01*
X61694744Y-61930690D01*
X61687954Y-61962542D01*
X61677831Y-61993462D01*
X61664531Y-62023402D01*
X61648206Y-62052310D01*
X61629007Y-62080136D01*
X61607090Y-62106831D01*
X61582607Y-62132335D01*
X61555712Y-62156605D01*
X61526555Y-62179586D01*
X61495292Y-62201234D01*
X61462077Y-62221493D01*
X61390398Y-62257629D01*
X61312745Y-62287599D01*
X61230339Y-62310993D01*
X61144411Y-62327400D01*
X61056182Y-62336409D01*
X60966878Y-62337615D01*
X60877724Y-62330611D01*
X60833589Y-62323900D01*
X60789946Y-62314982D01*
X60746960Y-62303811D01*
X60704770Y-62290329D01*
X60663540Y-62274488D01*
X60623419Y-62256234D01*
X60597720Y-62242653D01*
X60573148Y-62227827D01*
X60549716Y-62211814D01*
X60527440Y-62194680D01*
X60506335Y-62176486D01*
X60486421Y-62157288D01*
X60467705Y-62137153D01*
X60450209Y-62116139D01*
X60433944Y-62094304D01*
X60418930Y-62071712D01*
X60405180Y-62048423D01*
X60392705Y-62024498D01*
X60381526Y-62000000D01*
X60371655Y-61974987D01*
X60363110Y-61949520D01*
X60355905Y-61923659D01*
X60350054Y-61897470D01*
X60345572Y-61871011D01*
X60342479Y-61844338D01*
X60340788Y-61817517D01*
X60340508Y-61790609D01*
X60341661Y-61763670D01*
X60344262Y-61736771D01*
X60344620Y-61734406D01*
X60555938Y-61734406D01*
X60556443Y-61753450D01*
X60558091Y-61772405D01*
X60560887Y-61791220D01*
X60564837Y-61809842D01*
X60569945Y-61828209D01*
X60576226Y-61846273D01*
X60583679Y-61863971D01*
X60592313Y-61881242D01*
X60602137Y-61898046D01*
X60613154Y-61914318D01*
X60625373Y-61930003D01*
X60638798Y-61945049D01*
X60653442Y-61959393D01*
X60669307Y-61972983D01*
X60686456Y-61985794D01*
X60704785Y-61997748D01*
X60724209Y-62008846D01*
X60744647Y-62019085D01*
X60766015Y-62028473D01*
X60788228Y-62037012D01*
X60834875Y-62051526D01*
X60883922Y-62062645D01*
X60934713Y-62070373D01*
X60986584Y-62074719D01*
X61038877Y-62075695D01*
X61090930Y-62073306D01*
X61142086Y-62067567D01*
X61191681Y-62058480D01*
X61239058Y-62046059D01*
X61283553Y-62030311D01*
X61304518Y-62021191D01*
X61324511Y-62011245D01*
X61343456Y-62000467D01*
X61361267Y-61988868D01*
X61377867Y-61976441D01*
X61393167Y-61963193D01*
X61393167Y-61963191D01*
X61407749Y-61948915D01*
X61421253Y-61934370D01*
X61433672Y-61919578D01*
X61445012Y-61904542D01*
X61455272Y-61889298D01*
X61464459Y-61873855D01*
X61472573Y-61858232D01*
X61479616Y-61842451D01*
X61485591Y-61826525D01*
X61490499Y-61810477D01*
X61494342Y-61794321D01*
X61497124Y-61778081D01*
X61498846Y-61761770D01*
X61499509Y-61745412D01*
X61499119Y-61729016D01*
X61497673Y-61712608D01*
X61495178Y-61696210D01*
X61491634Y-61679829D01*
X61487041Y-61663489D01*
X61481408Y-61647212D01*
X61474730Y-61631010D01*
X61467012Y-61614904D01*
X61458257Y-61598915D01*
X61448466Y-61583060D01*
X61437641Y-61567356D01*
X61425785Y-61551817D01*
X61412900Y-61536470D01*
X61398988Y-61521330D01*
X61384053Y-61506410D01*
X61368094Y-61491735D01*
X61351114Y-61477319D01*
X61333118Y-61463189D01*
X61321400Y-61455023D01*
X61308488Y-61447314D01*
X61279382Y-61433267D01*
X61246394Y-61421065D01*
X61210119Y-61410737D01*
X61171148Y-61402303D01*
X61130074Y-61395778D01*
X61087490Y-61391194D01*
X61043988Y-61388566D01*
X61000162Y-61387922D01*
X60956605Y-61389279D01*
X60913909Y-61392664D01*
X60872668Y-61398095D01*
X60833476Y-61405595D01*
X60796920Y-61415190D01*
X60763599Y-61426896D01*
X60734104Y-61440738D01*
X60715243Y-61451774D01*
X60697397Y-61463722D01*
X60680579Y-61476535D01*
X60664791Y-61490158D01*
X60650044Y-61504530D01*
X60636342Y-61519600D01*
X60623693Y-61535308D01*
X60612101Y-61551599D01*
X60601574Y-61568422D01*
X60592121Y-61585718D01*
X60583749Y-61603428D01*
X60576462Y-61621503D01*
X60570269Y-61639882D01*
X60565176Y-61658511D01*
X60561188Y-61677330D01*
X60558317Y-61696294D01*
X60556562Y-61715336D01*
X60555938Y-61734406D01*
X60344620Y-61734406D01*
X60348324Y-61709962D01*
X60353861Y-61683310D01*
X60360896Y-61656870D01*
X60369434Y-61630713D01*
X60379496Y-61604892D01*
X60391094Y-61579466D01*
X60404249Y-61554503D01*
X60418972Y-61530060D01*
X60435278Y-61506195D01*
X60463947Y-61466311D01*
X60475203Y-61449993D01*
X60484405Y-61435823D01*
X60488235Y-61429482D01*
X60491549Y-61423594D01*
X60494352Y-61418145D01*
X60496635Y-61413108D01*
X60498406Y-61408453D01*
X60499661Y-61404161D01*
X60500401Y-61400198D01*
X60500625Y-61396545D01*
X60500331Y-61393179D01*
X60499524Y-61390068D01*
X60498196Y-61387186D01*
X60496354Y-61384516D01*
X60493996Y-61382029D01*
X60491117Y-61379694D01*
X60487723Y-61377494D01*
X60483812Y-61375399D01*
X60479380Y-61373383D01*
X60474430Y-61371426D01*
X60462975Y-61367572D01*
X60449444Y-61363634D01*
X60433834Y-61359412D01*
X60423502Y-61356367D01*
X60414208Y-61352967D01*
X60405916Y-61349131D01*
X60398591Y-61344770D01*
X60395280Y-61342371D01*
X60392195Y-61339812D01*
X60389334Y-61337077D01*
X60386693Y-61334165D01*
X60384263Y-61331060D01*
X60382045Y-61327753D01*
X60380033Y-61324233D01*
X60378220Y-61320493D01*
X60376603Y-61316517D01*
X60375176Y-61312302D01*
X60372882Y-61303099D01*
X60371296Y-61292800D01*
X60370388Y-61281329D01*
X60370115Y-61268597D01*
X60370443Y-61254525D01*
X60371339Y-61239031D01*
X60372761Y-61222032D01*
X60383893Y-61103874D01*
X61000162Y-61096003D01*
X61169128Y-61093844D01*
X61480383Y-61091536D01*
X61621194Y-61091692D01*
G37*
G36*
X61675683Y-65279086D02*
G01*
X61792978Y-65280471D01*
X61900190Y-65282663D01*
X61994685Y-65285564D01*
X62073831Y-65289071D01*
X62134992Y-65293092D01*
X62158009Y-65295268D01*
X62175541Y-65297532D01*
X62187262Y-65299875D01*
X62190840Y-65301075D01*
X62192844Y-65302290D01*
X62192844Y-65302288D01*
X62195213Y-65305316D01*
X62197515Y-65309465D01*
X62199740Y-65314662D01*
X62201875Y-65320831D01*
X62203910Y-65327903D01*
X62205828Y-65335805D01*
X62207620Y-65344464D01*
X62209274Y-65353807D01*
X62212119Y-65374250D01*
X62214272Y-65396552D01*
X62215633Y-65420134D01*
X62216109Y-65444409D01*
X62216109Y-65562840D01*
X61799588Y-65562840D01*
X61714133Y-65563530D01*
X61630963Y-65565510D01*
X61552147Y-65568635D01*
X61479747Y-65572776D01*
X61415832Y-65577787D01*
X61362471Y-65583532D01*
X61340393Y-65586638D01*
X61321728Y-65589874D01*
X61306732Y-65593221D01*
X61295670Y-65596667D01*
X61276315Y-65605055D01*
X61258153Y-65614785D01*
X61241169Y-65625894D01*
X61225343Y-65638408D01*
X61210653Y-65652365D01*
X61197086Y-65667796D01*
X61184623Y-65684734D01*
X61173240Y-65703208D01*
X61162927Y-65723254D01*
X61153662Y-65744901D01*
X61145424Y-65768185D01*
X61138201Y-65793134D01*
X61131970Y-65819787D01*
X61126716Y-65848168D01*
X61122417Y-65878317D01*
X61119060Y-65910261D01*
X61117017Y-65932192D01*
X61114892Y-65951566D01*
X61112529Y-65968538D01*
X61109771Y-65983268D01*
X61108198Y-65989839D01*
X61106467Y-65995910D01*
X61104563Y-66001497D01*
X61102463Y-66006624D01*
X61100149Y-66011309D01*
X61097604Y-66015570D01*
X61094804Y-66019426D01*
X61091734Y-66022904D01*
X61088372Y-66026016D01*
X61084702Y-66028781D01*
X61080699Y-66031227D01*
X61076350Y-66033366D01*
X61071632Y-66035222D01*
X61066529Y-66036813D01*
X61061016Y-66038158D01*
X61055080Y-66039276D01*
X61048697Y-66040191D01*
X61041852Y-66040920D01*
X61026689Y-66041898D01*
X61009438Y-66042369D01*
X60989945Y-66042491D01*
X60971620Y-66042330D01*
X60955220Y-66041786D01*
X60940631Y-66040769D01*
X60933976Y-66040051D01*
X60927729Y-66039179D01*
X60921873Y-66038143D01*
X60916395Y-66036928D01*
X60911282Y-66035522D01*
X60906512Y-66033919D01*
X60902077Y-66032101D01*
X60897959Y-66030060D01*
X60894144Y-66027786D01*
X60890618Y-66025260D01*
X60887363Y-66022479D01*
X60884367Y-66019422D01*
X60881615Y-66016085D01*
X60879090Y-66012453D01*
X60876777Y-66008517D01*
X60874665Y-66004262D01*
X60872732Y-65999676D01*
X60870971Y-65994753D01*
X60869362Y-65989474D01*
X60867890Y-65983830D01*
X60865307Y-65971404D01*
X60863099Y-65957382D01*
X60861146Y-65941668D01*
X60860217Y-65929475D01*
X60860108Y-65916765D01*
X60860806Y-65903574D01*
X60862301Y-65889942D01*
X60864575Y-65875908D01*
X60867620Y-65861506D01*
X60871424Y-65846774D01*
X60875975Y-65831748D01*
X60881259Y-65816468D01*
X60887266Y-65800970D01*
X60893983Y-65785292D01*
X60901397Y-65769469D01*
X60909498Y-65753540D01*
X60918273Y-65737539D01*
X60927709Y-65721513D01*
X60937793Y-65705489D01*
X60952630Y-65682578D01*
X60965533Y-65662366D01*
X60976533Y-65644648D01*
X60985654Y-65629230D01*
X60989514Y-65622321D01*
X60992918Y-65615915D01*
X60995864Y-65609984D01*
X60998359Y-65604505D01*
X61000398Y-65599457D01*
X61001993Y-65594809D01*
X61003143Y-65590538D01*
X61003853Y-65586626D01*
X61004124Y-65583039D01*
X61003960Y-65579756D01*
X61003367Y-65576755D01*
X61002346Y-65574010D01*
X61000898Y-65571497D01*
X60999029Y-65569188D01*
X60996743Y-65567061D01*
X60994039Y-65565090D01*
X60990926Y-65563253D01*
X60987401Y-65561525D01*
X60983474Y-65559878D01*
X60979140Y-65558292D01*
X60969285Y-65555200D01*
X60957857Y-65552047D01*
X60951620Y-65550136D01*
X60945667Y-65547812D01*
X60940006Y-65545081D01*
X60934633Y-65541955D01*
X60929555Y-65538443D01*
X60924771Y-65534555D01*
X60920285Y-65530304D01*
X60916098Y-65525697D01*
X60912213Y-65520743D01*
X60908630Y-65515455D01*
X60905355Y-65509846D01*
X60902391Y-65503917D01*
X60899735Y-65497687D01*
X60897390Y-65491161D01*
X60893648Y-65477265D01*
X60891184Y-65462310D01*
X60890010Y-65446381D01*
X60890149Y-65429557D01*
X60891617Y-65411911D01*
X60894432Y-65393538D01*
X60898607Y-65374505D01*
X60904162Y-65354900D01*
X60911116Y-65334803D01*
X60915459Y-65326210D01*
X60922020Y-65318515D01*
X60931344Y-65311675D01*
X60943969Y-65305636D01*
X60960445Y-65300357D01*
X60981310Y-65295785D01*
X61007108Y-65291878D01*
X61038385Y-65288582D01*
X61119541Y-65283647D01*
X61229122Y-65280589D01*
X61371470Y-65279037D01*
X61550938Y-65278603D01*
X61675683Y-65279086D01*
G37*
G36*
X62116382Y-63502244D02*
G01*
X62126462Y-63502605D01*
X62136431Y-63503195D01*
X62146227Y-63503993D01*
X62155793Y-63504994D01*
X62165060Y-63506182D01*
X62173968Y-63507548D01*
X62182457Y-63509082D01*
X62190462Y-63510766D01*
X62197921Y-63512590D01*
X62204774Y-63514541D01*
X62210957Y-63516612D01*
X62216406Y-63518787D01*
X62221063Y-63521052D01*
X62224860Y-63523400D01*
X62226420Y-63524595D01*
X62227740Y-63525810D01*
X62227740Y-63525809D01*
X62230112Y-63528837D01*
X62232412Y-63532986D01*
X62234637Y-63538181D01*
X62236773Y-63544349D01*
X62238806Y-63551425D01*
X62240725Y-63559327D01*
X62242517Y-63567987D01*
X62244172Y-63577330D01*
X62247019Y-63597770D01*
X62249170Y-63620073D01*
X62250533Y-63643655D01*
X62251007Y-63667926D01*
X62250904Y-63687694D01*
X62250488Y-63705133D01*
X62249609Y-63720396D01*
X62248120Y-63733624D01*
X62247100Y-63739523D01*
X62245868Y-63744965D01*
X62244411Y-63749972D01*
X62242705Y-63754561D01*
X62240734Y-63758750D01*
X62238479Y-63762554D01*
X62235921Y-63765994D01*
X62233038Y-63769092D01*
X62229817Y-63771861D01*
X62226233Y-63774324D01*
X62222272Y-63776488D01*
X62217915Y-63778381D01*
X62213141Y-63780023D01*
X62207931Y-63781423D01*
X62202267Y-63782605D01*
X62196129Y-63783585D01*
X62182364Y-63785016D01*
X62166480Y-63785861D01*
X62148331Y-63786258D01*
X62127763Y-63786357D01*
X62103225Y-63785713D01*
X62080939Y-63783744D01*
X62070626Y-63782250D01*
X62060866Y-63780408D01*
X62051652Y-63778207D01*
X62042979Y-63775651D01*
X62034843Y-63772724D01*
X62027240Y-63769429D01*
X62020165Y-63765754D01*
X62013614Y-63761695D01*
X62007583Y-63757248D01*
X62002069Y-63752406D01*
X61997068Y-63747160D01*
X61992573Y-63741506D01*
X61988580Y-63735439D01*
X61985085Y-63728954D01*
X61982089Y-63722048D01*
X61979579Y-63714706D01*
X61977555Y-63706930D01*
X61976015Y-63698708D01*
X61974951Y-63690040D01*
X61974361Y-63680915D01*
X61974240Y-63671334D01*
X61974582Y-63661284D01*
X61975385Y-63650763D01*
X61976647Y-63639766D01*
X61980521Y-63616306D01*
X61986163Y-63590867D01*
X61989455Y-63578610D01*
X61993059Y-63567433D01*
X61997021Y-63557299D01*
X62001399Y-63548168D01*
X62003760Y-63543967D01*
X62006248Y-63540004D01*
X62008867Y-63536267D01*
X62011623Y-63532756D01*
X62014524Y-63529463D01*
X62017577Y-63526392D01*
X62020788Y-63523528D01*
X62024166Y-63520867D01*
X62027715Y-63518408D01*
X62031441Y-63516147D01*
X62035357Y-63514071D01*
X62039465Y-63512183D01*
X62043770Y-63510476D01*
X62048283Y-63508942D01*
X62053008Y-63507576D01*
X62057953Y-63506379D01*
X62068532Y-63504458D01*
X62080073Y-63503135D01*
X62092629Y-63502369D01*
X62106258Y-63502123D01*
X62116382Y-63502244D01*
G37*
G36*
X62097935Y-74978656D02*
G01*
X62107563Y-74980047D01*
X62117634Y-74982317D01*
X62128108Y-74985433D01*
X62138938Y-74989351D01*
X62150086Y-74994033D01*
X62173157Y-75005561D01*
X62196983Y-75019709D01*
X62221221Y-75036178D01*
X62245528Y-75054669D01*
X62269566Y-75074876D01*
X62292995Y-75096506D01*
X62315471Y-75119252D01*
X62336659Y-75142818D01*
X62356210Y-75166903D01*
X62373790Y-75191208D01*
X62389053Y-75215429D01*
X62401665Y-75239266D01*
X62406865Y-75250949D01*
X62411277Y-75262422D01*
X62411277Y-75262419D01*
X62420260Y-75289579D01*
X62428208Y-75317070D01*
X62435137Y-75344839D01*
X62441057Y-75372812D01*
X62445985Y-75400942D01*
X62449932Y-75429162D01*
X62452909Y-75457415D01*
X62454932Y-75485641D01*
X62456013Y-75513779D01*
X62456168Y-75541767D01*
X62455403Y-75569550D01*
X62453737Y-75597065D01*
X62451181Y-75624248D01*
X62447752Y-75651049D01*
X62443455Y-75677399D01*
X62438311Y-75703244D01*
X62432327Y-75728516D01*
X62425522Y-75753162D01*
X62417902Y-75777119D01*
X62409489Y-75800331D01*
X62400286Y-75822731D01*
X62390316Y-75844264D01*
X62379581Y-75864871D01*
X62368106Y-75884486D01*
X62355894Y-75903058D01*
X62342964Y-75920518D01*
X62329328Y-75936811D01*
X62314995Y-75951873D01*
X62299988Y-75965646D01*
X62284308Y-75978073D01*
X62267976Y-75989091D01*
X62251003Y-75998642D01*
X62225241Y-76010620D01*
X62198956Y-76020657D01*
X62172282Y-76028769D01*
X62145356Y-76034965D01*
X62118305Y-76039260D01*
X62091267Y-76041660D01*
X62064372Y-76042182D01*
X62037756Y-76040833D01*
X62011549Y-76037626D01*
X61985887Y-76032575D01*
X61960902Y-76025682D01*
X61936727Y-76016977D01*
X61913494Y-76006454D01*
X61902275Y-76000515D01*
X61891341Y-75994129D01*
X61880709Y-75987298D01*
X61870397Y-75980017D01*
X61860420Y-75972294D01*
X61850795Y-75964127D01*
X61839424Y-75953268D01*
X61828261Y-75941063D01*
X61817303Y-75927504D01*
X61806533Y-75912552D01*
X61795947Y-75896199D01*
X61785533Y-75878421D01*
X61775282Y-75859200D01*
X61765182Y-75838508D01*
X61755224Y-75816333D01*
X61745401Y-75792651D01*
X61735703Y-75767437D01*
X61726115Y-75740674D01*
X61707246Y-75682418D01*
X61688714Y-75617716D01*
X61671321Y-75556151D01*
X61654086Y-75500816D01*
X61645501Y-75475461D01*
X61636922Y-75451631D01*
X61628336Y-75429317D01*
X61619734Y-75408503D01*
X61611104Y-75389190D01*
X61602433Y-75371358D01*
X61593711Y-75355002D01*
X61584925Y-75340107D01*
X61576067Y-75326667D01*
X61567122Y-75314666D01*
X61558082Y-75304102D01*
X61548932Y-75294956D01*
X61539662Y-75287222D01*
X61530261Y-75280891D01*
X61520719Y-75275947D01*
X61511021Y-75272386D01*
X61501161Y-75270194D01*
X61491121Y-75269361D01*
X61480895Y-75269877D01*
X61470470Y-75271730D01*
X61459833Y-75274912D01*
X61448976Y-75279411D01*
X61437883Y-75285215D01*
X61426547Y-75292318D01*
X61414952Y-75300704D01*
X61403091Y-75310368D01*
X61390950Y-75321297D01*
X61378519Y-75333480D01*
X61370857Y-75341866D01*
X61363634Y-75350929D01*
X61356854Y-75360638D01*
X61350517Y-75370929D01*
X61344624Y-75381755D01*
X61339182Y-75393074D01*
X61334189Y-75404831D01*
X61329650Y-75416975D01*
X61321937Y-75442231D01*
X61316065Y-75468447D01*
X61312045Y-75495228D01*
X61309899Y-75522175D01*
X61309643Y-75548897D01*
X61311295Y-75574991D01*
X61314873Y-75600065D01*
X61317392Y-75612095D01*
X61320397Y-75623726D01*
X61323893Y-75634898D01*
X61327882Y-75645567D01*
X61332365Y-75655685D01*
X61337345Y-75665204D01*
X61342825Y-75674067D01*
X61348806Y-75682231D01*
X61355289Y-75689645D01*
X61362280Y-75696257D01*
X61386408Y-75717049D01*
X61407964Y-75736001D01*
X61427087Y-75753324D01*
X61443918Y-75769210D01*
X61458596Y-75783874D01*
X61471264Y-75797508D01*
X61476887Y-75804007D01*
X61482059Y-75810323D01*
X61486798Y-75816486D01*
X61491121Y-75822522D01*
X61495047Y-75828454D01*
X61498593Y-75834304D01*
X61501776Y-75840103D01*
X61504614Y-75845874D01*
X61507123Y-75851645D01*
X61509323Y-75857438D01*
X61511233Y-75863281D01*
X61512863Y-75869198D01*
X61514237Y-75875213D01*
X61515372Y-75881357D01*
X61516283Y-75887646D01*
X61516990Y-75894117D01*
X61517859Y-75907683D01*
X61518117Y-75922258D01*
X61517681Y-75933503D01*
X61516395Y-75943973D01*
X61514291Y-75953671D01*
X61511400Y-75962611D01*
X61507754Y-75970773D01*
X61503384Y-75978178D01*
X61498321Y-75984823D01*
X61492597Y-75990699D01*
X61486245Y-75995820D01*
X61479297Y-76000180D01*
X61471780Y-76003788D01*
X61463733Y-76006638D01*
X61455179Y-76008739D01*
X61446157Y-76010087D01*
X61436695Y-76010682D01*
X61426826Y-76010532D01*
X61416578Y-76009633D01*
X61405988Y-76007991D01*
X61395084Y-76005607D01*
X61383901Y-76002478D01*
X61372463Y-75998617D01*
X61360811Y-75994012D01*
X61348972Y-75988667D01*
X61336975Y-75982593D01*
X61324858Y-75975784D01*
X61312646Y-75968243D01*
X61300376Y-75959972D01*
X61288077Y-75950977D01*
X61275781Y-75941252D01*
X61263520Y-75930801D01*
X61251324Y-75919624D01*
X61239226Y-75907729D01*
X61215326Y-75881043D01*
X61193729Y-75852092D01*
X61174460Y-75821071D01*
X61157551Y-75788172D01*
X61143030Y-75753587D01*
X61130929Y-75717511D01*
X61121271Y-75680133D01*
X61114093Y-75641649D01*
X61109419Y-75602250D01*
X61107280Y-75562128D01*
X61107707Y-75521477D01*
X61110725Y-75480490D01*
X61116367Y-75439355D01*
X61124661Y-75398273D01*
X61135640Y-75357431D01*
X61149327Y-75317024D01*
X61161661Y-75285024D01*
X61173625Y-75255994D01*
X61185415Y-75229729D01*
X61197219Y-75206034D01*
X61209238Y-75184711D01*
X61221663Y-75165562D01*
X61228090Y-75156740D01*
X61234690Y-75148383D01*
X61241490Y-75140473D01*
X61248512Y-75132987D01*
X61255779Y-75125890D01*
X61263320Y-75119163D01*
X61271160Y-75112782D01*
X61279316Y-75106722D01*
X61287818Y-75100954D01*
X61296688Y-75095458D01*
X61305951Y-75090213D01*
X61315632Y-75085186D01*
X61336341Y-75075692D01*
X61359013Y-75066790D01*
X61383835Y-75058273D01*
X61411012Y-75049947D01*
X61423919Y-75046480D01*
X61436972Y-75043554D01*
X61450145Y-75041170D01*
X61463415Y-75039312D01*
X61476751Y-75037974D01*
X61490135Y-75037152D01*
X61503536Y-75036834D01*
X61516933Y-75037012D01*
X61530297Y-75037675D01*
X61543605Y-75038823D01*
X61556832Y-75040436D01*
X61569950Y-75042514D01*
X61582936Y-75045050D01*
X61595765Y-75048028D01*
X61608411Y-75051444D01*
X61620850Y-75055293D01*
X61633053Y-75059560D01*
X61644999Y-75064241D01*
X61656661Y-75069325D01*
X61668015Y-75074805D01*
X61679031Y-75080672D01*
X61689691Y-75086924D01*
X61699965Y-75093539D01*
X61709828Y-75100522D01*
X61719254Y-75107861D01*
X61728222Y-75115543D01*
X61736702Y-75123567D01*
X61744670Y-75131916D01*
X61752104Y-75140590D01*
X61758975Y-75149575D01*
X61765258Y-75158865D01*
X61770930Y-75168453D01*
X61780800Y-75188758D01*
X61792800Y-75217363D01*
X61806464Y-75252950D01*
X61821335Y-75294199D01*
X61836948Y-75339801D01*
X61852839Y-75388427D01*
X61868552Y-75438771D01*
X61883618Y-75489516D01*
X61899738Y-75542677D01*
X61907835Y-75567386D01*
X61915963Y-75590856D01*
X61924131Y-75613093D01*
X61932344Y-75634099D01*
X61940604Y-75653881D01*
X61948924Y-75672449D01*
X61957305Y-75689803D01*
X61965752Y-75705951D01*
X61974276Y-75720895D01*
X61982881Y-75734646D01*
X61991571Y-75747206D01*
X62000351Y-75758584D01*
X62009230Y-75768783D01*
X62018212Y-75777807D01*
X62027307Y-75785663D01*
X62036515Y-75792357D01*
X62045847Y-75797898D01*
X62055304Y-75802283D01*
X62064897Y-75805527D01*
X62074632Y-75807628D01*
X62084507Y-75808595D01*
X62094536Y-75808436D01*
X62104725Y-75807152D01*
X62115074Y-75804751D01*
X62125595Y-75801237D01*
X62136293Y-75796620D01*
X62147170Y-75790900D01*
X62158234Y-75784084D01*
X62169494Y-75776182D01*
X62180948Y-75767189D01*
X62191867Y-75757751D01*
X62201833Y-75748173D01*
X62210880Y-75738364D01*
X62219045Y-75728227D01*
X62226359Y-75717667D01*
X62232857Y-75706594D01*
X62238576Y-75694904D01*
X62243546Y-75682511D01*
X62247804Y-75669315D01*
X62251383Y-75655227D01*
X62254318Y-75640144D01*
X62256641Y-75623974D01*
X62258390Y-75606626D01*
X62259597Y-75588000D01*
X62260298Y-75568004D01*
X62260520Y-75546547D01*
X62260292Y-75523350D01*
X62259551Y-75501987D01*
X62258219Y-75482268D01*
X62256217Y-75464015D01*
X62253466Y-75447039D01*
X62251784Y-75438970D01*
X62249884Y-75431156D01*
X62247759Y-75423570D01*
X62245397Y-75416184D01*
X62242788Y-75408983D01*
X62239921Y-75401938D01*
X62236790Y-75395027D01*
X62233381Y-75388231D01*
X62229682Y-75381521D01*
X62225692Y-75374881D01*
X62221393Y-75368281D01*
X62216780Y-75361703D01*
X62206562Y-75348513D01*
X62194961Y-75335123D01*
X62181897Y-75321354D01*
X62167292Y-75307017D01*
X62151063Y-75291931D01*
X62140406Y-75281744D01*
X62130199Y-75271014D01*
X62120451Y-75259795D01*
X62111173Y-75248146D01*
X62102381Y-75236125D01*
X62094083Y-75223785D01*
X62086288Y-75211182D01*
X62079011Y-75198380D01*
X62072264Y-75185429D01*
X62066055Y-75172392D01*
X62060397Y-75159322D01*
X62055301Y-75146278D01*
X62050777Y-75133313D01*
X62046839Y-75120489D01*
X62043497Y-75107855D01*
X62040762Y-75095475D01*
X62038645Y-75083408D01*
X62037159Y-75071705D01*
X62036313Y-75060427D01*
X62036118Y-75049625D01*
X62036589Y-75039363D01*
X62037734Y-75029692D01*
X62039564Y-75020676D01*
X62042095Y-75012366D01*
X62045333Y-75004819D01*
X62049290Y-74998096D01*
X62053979Y-74992248D01*
X62059412Y-74987338D01*
X62065598Y-74983418D01*
X62072549Y-74980552D01*
X62080278Y-74978786D01*
X62088796Y-74978186D01*
X62097935Y-74978656D01*
G37*
G36*
X62489385Y-71176781D02*
G01*
X62499949Y-71177604D01*
X62509592Y-71179029D01*
X62514080Y-71179984D01*
X62518355Y-71181111D01*
X62522421Y-71182410D01*
X62526283Y-71183890D01*
X62529951Y-71185557D01*
X62533427Y-71187419D01*
X62536715Y-71189478D01*
X62539826Y-71191742D01*
X62542760Y-71194214D01*
X62545530Y-71196907D01*
X62548134Y-71199820D01*
X62550579Y-71202960D01*
X62552876Y-71206337D01*
X62555027Y-71209953D01*
X62557035Y-71213815D01*
X62558909Y-71217931D01*
X62560656Y-71222302D01*
X62562278Y-71226937D01*
X62565176Y-71237022D01*
X62567652Y-71248232D01*
X62569747Y-71260616D01*
X62571506Y-71274226D01*
X62582548Y-71371930D01*
X63078256Y-71389696D01*
X63191305Y-71394435D01*
X63292266Y-71400090D01*
X63338054Y-71403243D01*
X63380629Y-71406604D01*
X63419928Y-71410167D01*
X63455885Y-71413922D01*
X63488438Y-71417862D01*
X63517524Y-71421983D01*
X63543082Y-71426274D01*
X63565043Y-71430732D01*
X63583347Y-71435347D01*
X63597930Y-71440112D01*
X63608727Y-71445019D01*
X63612684Y-71447526D01*
X63615678Y-71450067D01*
X63620039Y-71455106D01*
X63624502Y-71461381D01*
X63629035Y-71468795D01*
X63633604Y-71477263D01*
X63638177Y-71486691D01*
X63642722Y-71496989D01*
X63647201Y-71508064D01*
X63651588Y-71519823D01*
X63655847Y-71532182D01*
X63659947Y-71545044D01*
X63667536Y-71571918D01*
X63670958Y-71585747D01*
X63674091Y-71599717D01*
X63676900Y-71613735D01*
X63679354Y-71627713D01*
X63679321Y-71627717D01*
X63682537Y-71648324D01*
X63685374Y-71668249D01*
X63687825Y-71687494D01*
X63689897Y-71706061D01*
X63691584Y-71723960D01*
X63692885Y-71741178D01*
X63693805Y-71757730D01*
X63694342Y-71773610D01*
X63694491Y-71788821D01*
X63694256Y-71803366D01*
X63693631Y-71817247D01*
X63692626Y-71830461D01*
X63691231Y-71843016D01*
X63689451Y-71854912D01*
X63687282Y-71866150D01*
X63684723Y-71876730D01*
X63681776Y-71886658D01*
X63678443Y-71895929D01*
X63674717Y-71904553D01*
X63670601Y-71912526D01*
X63666097Y-71919852D01*
X63661199Y-71926530D01*
X63655911Y-71932566D01*
X63650233Y-71937959D01*
X63644160Y-71942711D01*
X63637696Y-71946823D01*
X63630838Y-71950295D01*
X63623587Y-71953138D01*
X63615942Y-71955340D01*
X63607900Y-71956916D01*
X63599468Y-71957859D01*
X63590636Y-71958173D01*
X63578370Y-71957948D01*
X63567317Y-71957226D01*
X63557418Y-71955936D01*
X63552884Y-71955057D01*
X63548617Y-71954009D01*
X63544610Y-71952781D01*
X63540852Y-71951366D01*
X63537341Y-71949752D01*
X63534066Y-71947933D01*
X63531024Y-71945902D01*
X63528205Y-71943647D01*
X63525602Y-71941157D01*
X63523207Y-71938429D01*
X63521016Y-71935447D01*
X63519017Y-71932206D01*
X63517203Y-71928698D01*
X63515572Y-71924909D01*
X63514112Y-71920836D01*
X63512814Y-71916462D01*
X63511679Y-71911791D01*
X63510694Y-71906801D01*
X63509144Y-71895843D01*
X63508107Y-71883519D01*
X63507528Y-71869758D01*
X63507348Y-71854489D01*
X63506320Y-71783380D01*
X63503962Y-71754587D01*
X63499423Y-71729881D01*
X63496112Y-71718965D01*
X63491989Y-71708954D01*
X63486964Y-71699808D01*
X63480952Y-71691490D01*
X63473851Y-71683959D01*
X63465587Y-71677174D01*
X63456062Y-71671102D01*
X63445189Y-71665695D01*
X63432877Y-71660924D01*
X63419039Y-71656744D01*
X63386423Y-71649996D01*
X63346633Y-71645150D01*
X63298950Y-71641884D01*
X63242662Y-71639893D01*
X63177055Y-71638859D01*
X63015023Y-71638404D01*
X62565066Y-71638404D01*
X62564565Y-71753876D01*
X62564002Y-71776379D01*
X62562565Y-71797615D01*
X62560310Y-71817580D01*
X62557286Y-71836261D01*
X62553557Y-71853645D01*
X62549170Y-71869721D01*
X62544179Y-71884478D01*
X62538647Y-71897903D01*
X62532620Y-71909985D01*
X62526156Y-71920716D01*
X62519312Y-71930083D01*
X62512138Y-71938073D01*
X62504693Y-71944674D01*
X62497029Y-71949879D01*
X62489201Y-71953671D01*
X62481264Y-71956043D01*
X62473272Y-71956982D01*
X62465282Y-71956478D01*
X62457350Y-71954516D01*
X62449524Y-71951089D01*
X62441864Y-71946180D01*
X62434421Y-71939785D01*
X62427256Y-71931890D01*
X62420417Y-71922478D01*
X62413962Y-71911545D01*
X62407944Y-71899078D01*
X62402420Y-71885062D01*
X62397444Y-71869489D01*
X62393067Y-71852346D01*
X62389349Y-71833625D01*
X62386343Y-71813309D01*
X62384102Y-71791390D01*
X62373153Y-71656168D01*
X62181205Y-71638404D01*
X62150113Y-71635424D01*
X62122544Y-71632499D01*
X62098288Y-71629522D01*
X62077136Y-71626372D01*
X62067660Y-71624695D01*
X62058878Y-71622937D01*
X62050772Y-71621078D01*
X62043309Y-71619106D01*
X62036463Y-71617004D01*
X62030213Y-71614758D01*
X62024527Y-71612358D01*
X62019387Y-71609785D01*
X62014758Y-71607025D01*
X62010615Y-71604073D01*
X62006935Y-71600900D01*
X62003693Y-71597500D01*
X62000861Y-71593859D01*
X61998412Y-71589963D01*
X61996318Y-71585793D01*
X61994559Y-71581340D01*
X61993103Y-71576586D01*
X61991926Y-71571518D01*
X61991002Y-71566123D01*
X61990305Y-71560384D01*
X61989809Y-71554292D01*
X61989486Y-71547826D01*
X61989260Y-71533726D01*
X61989545Y-71519985D01*
X61990521Y-71507600D01*
X61992377Y-71496456D01*
X61995299Y-71486432D01*
X61997218Y-71481801D01*
X61999472Y-71477400D01*
X62002085Y-71473221D01*
X62005081Y-71469249D01*
X62008486Y-71465463D01*
X62012319Y-71461852D01*
X62016601Y-71458399D01*
X62021362Y-71455087D01*
X62032401Y-71448840D01*
X62045622Y-71442984D01*
X62061211Y-71437402D01*
X62079358Y-71431974D01*
X62100244Y-71426576D01*
X62124056Y-71421093D01*
X62181205Y-71409373D01*
X62211836Y-71403267D01*
X62239105Y-71397498D01*
X62263222Y-71391923D01*
X62284384Y-71386404D01*
X62293928Y-71383624D01*
X62302813Y-71380804D01*
X62311063Y-71377931D01*
X62318708Y-71374985D01*
X62325772Y-71371950D01*
X62332280Y-71368807D01*
X62338259Y-71365540D01*
X62343737Y-71362133D01*
X62348739Y-71358562D01*
X62353288Y-71354819D01*
X62357412Y-71350883D01*
X62361140Y-71346735D01*
X62364493Y-71342360D01*
X62367497Y-71337739D01*
X62370185Y-71332854D01*
X62372574Y-71327690D01*
X62374695Y-71322228D01*
X62376572Y-71316453D01*
X62378233Y-71310348D01*
X62379704Y-71303892D01*
X62381008Y-71297066D01*
X62382177Y-71289861D01*
X62384196Y-71274226D01*
X62385956Y-71260616D01*
X62388050Y-71248232D01*
X62390525Y-71237022D01*
X62391917Y-71231840D01*
X62393422Y-71226936D01*
X62395045Y-71222301D01*
X62396793Y-71217931D01*
X62398668Y-71213814D01*
X62400677Y-71209951D01*
X62402826Y-71206337D01*
X62405123Y-71202959D01*
X62407568Y-71199820D01*
X62410175Y-71196907D01*
X62412940Y-71194214D01*
X62415876Y-71191742D01*
X62418985Y-71189478D01*
X62422277Y-71187418D01*
X62425752Y-71185557D01*
X62429418Y-71183890D01*
X62433282Y-71182410D01*
X62437347Y-71181111D01*
X62441623Y-71179984D01*
X62446110Y-71179029D01*
X62450817Y-71178240D01*
X62455752Y-71177604D01*
X62466316Y-71176781D01*
X62477853Y-71176519D01*
X62489385Y-71176781D01*
G37*
G36*
X63821474Y-63662006D02*
G01*
X63821474Y-63787928D01*
X63167112Y-63778260D01*
X62512749Y-63768595D01*
X62512749Y-63662006D01*
X62512749Y-63555417D01*
X63167112Y-63545752D01*
X63821474Y-63536085D01*
X63821474Y-63662006D01*
G37*
G36*
X64390102Y-72917775D02*
G01*
X64402210Y-72918681D01*
X64414445Y-72920172D01*
X64426785Y-72922229D01*
X64439201Y-72924836D01*
X64451675Y-72927979D01*
X64464172Y-72931631D01*
X64476675Y-72935789D01*
X64489159Y-72940432D01*
X64501592Y-72945537D01*
X64526223Y-72957083D01*
X64550365Y-72970288D01*
X64573820Y-72985026D01*
X64596390Y-73001156D01*
X64617870Y-73018545D01*
X64638061Y-73037062D01*
X64656763Y-73056572D01*
X64665491Y-73066655D01*
X64673776Y-73076936D01*
X64681586Y-73087398D01*
X64688899Y-73098025D01*
X64695689Y-73108795D01*
X64701933Y-73119700D01*
X64707603Y-73130714D01*
X64712680Y-73141826D01*
X64712679Y-73141826D01*
X64726091Y-73176003D01*
X64737379Y-73210650D01*
X64746549Y-73245651D01*
X64753601Y-73280881D01*
X64758555Y-73316223D01*
X64761410Y-73351558D01*
X64762178Y-73386763D01*
X64760869Y-73421720D01*
X64757488Y-73456309D01*
X64752043Y-73490403D01*
X64744545Y-73523892D01*
X64734999Y-73556650D01*
X64723414Y-73588557D01*
X64709797Y-73619494D01*
X64694161Y-73649340D01*
X64676507Y-73677975D01*
X64641926Y-73730309D01*
X64628255Y-73751656D01*
X64616967Y-73770075D01*
X64612212Y-73778257D01*
X64608042Y-73785784D01*
X64604456Y-73792689D01*
X64601453Y-73798998D01*
X64599029Y-73804737D01*
X64597179Y-73809932D01*
X64595902Y-73814611D01*
X64595194Y-73818799D01*
X64595055Y-73822524D01*
X64595482Y-73825820D01*
X64596465Y-73828697D01*
X64598012Y-73831201D01*
X64600112Y-73833347D01*
X64602765Y-73835165D01*
X64605968Y-73836683D01*
X64609717Y-73837926D01*
X64614009Y-73838923D01*
X64618844Y-73839700D01*
X64624219Y-73840282D01*
X64630128Y-73840696D01*
X64643540Y-73841141D01*
X64659060Y-73841239D01*
X64668790Y-73841523D01*
X64677646Y-73842419D01*
X64685659Y-73843969D01*
X64689362Y-73845010D01*
X64692868Y-73846234D01*
X64696181Y-73847648D01*
X64699304Y-73849261D01*
X64702241Y-73851078D01*
X64705000Y-73853104D01*
X64707583Y-73855349D01*
X64709996Y-73857812D01*
X64712237Y-73860511D01*
X64714316Y-73863442D01*
X64716238Y-73866618D01*
X64718004Y-73870048D01*
X64719619Y-73873726D01*
X64721089Y-73877670D01*
X64723604Y-73886369D01*
X64725587Y-73896197D01*
X64727068Y-73907207D01*
X64728089Y-73919442D01*
X64728670Y-73932969D01*
X64728859Y-73947827D01*
X64728859Y-74054415D01*
X64203634Y-74054415D01*
X64095166Y-74054071D01*
X63998336Y-74052874D01*
X63912357Y-74050573D01*
X63836442Y-74046921D01*
X63802014Y-74044504D01*
X63769806Y-74041657D01*
X63739723Y-74038350D01*
X63711666Y-74034546D01*
X63685533Y-74030214D01*
X63661230Y-74025324D01*
X63638657Y-74019848D01*
X63617715Y-74013753D01*
X63598310Y-74007002D01*
X63580337Y-73999572D01*
X63563702Y-73991427D01*
X63548309Y-73982537D01*
X63534054Y-73972873D01*
X63520843Y-73962398D01*
X63508579Y-73951086D01*
X63497155Y-73938900D01*
X63486483Y-73925819D01*
X63476460Y-73911801D01*
X63466988Y-73896817D01*
X63457971Y-73880840D01*
X63449305Y-73863838D01*
X63440897Y-73845777D01*
X63424460Y-73806356D01*
X63413947Y-73777816D01*
X63404683Y-73748953D01*
X63396654Y-73719834D01*
X63389847Y-73690514D01*
X63384238Y-73661060D01*
X63379817Y-73631530D01*
X63376564Y-73601989D01*
X63374464Y-73572495D01*
X63373503Y-73543114D01*
X63373658Y-73513904D01*
X63374919Y-73484932D01*
X63377269Y-73456255D01*
X63380685Y-73427939D01*
X63385158Y-73400044D01*
X63390670Y-73372628D01*
X63397201Y-73345761D01*
X63404742Y-73319499D01*
X63413268Y-73293906D01*
X63422768Y-73269047D01*
X63433223Y-73244975D01*
X63444618Y-73221763D01*
X63456936Y-73199459D01*
X63470160Y-73178138D01*
X63484277Y-73157859D01*
X63499269Y-73138679D01*
X63515114Y-73120665D01*
X63531802Y-73103875D01*
X63549316Y-73088374D01*
X63567640Y-73074225D01*
X63586753Y-73061482D01*
X63606641Y-73050216D01*
X63627292Y-73040485D01*
X63680161Y-73018196D01*
X63701519Y-73009634D01*
X63719809Y-73002894D01*
X63727878Y-73000228D01*
X63735270Y-72998051D01*
X63742012Y-72996368D01*
X63748136Y-72995190D01*
X63753674Y-72994523D01*
X63758650Y-72994381D01*
X63763099Y-72994771D01*
X63767050Y-72995706D01*
X63770528Y-72997190D01*
X63773569Y-72999242D01*
X63776198Y-73001861D01*
X63778448Y-73005064D01*
X63780345Y-73008857D01*
X63781922Y-73013253D01*
X63783207Y-73018255D01*
X63784233Y-73023882D01*
X63785025Y-73030138D01*
X63785616Y-73037034D01*
X63786308Y-73052784D01*
X63786579Y-73092383D01*
X63786155Y-73105189D01*
X63784892Y-73118091D01*
X63782792Y-73131080D01*
X63779864Y-73144145D01*
X63776107Y-73157272D01*
X63771532Y-73170454D01*
X63766143Y-73183676D01*
X63759944Y-73196935D01*
X63752940Y-73210210D01*
X63745142Y-73223500D01*
X63736549Y-73236782D01*
X63727169Y-73250059D01*
X63717005Y-73263312D01*
X63706067Y-73276530D01*
X63694357Y-73289707D01*
X63681879Y-73302828D01*
X63669113Y-73316337D01*
X63657141Y-73330046D01*
X63645965Y-73343933D01*
X63635593Y-73357981D01*
X63626018Y-73372164D01*
X63617239Y-73386469D01*
X63609262Y-73400871D01*
X63602083Y-73415350D01*
X63595703Y-73429887D01*
X63590128Y-73444463D01*
X63585354Y-73459054D01*
X63581379Y-73473640D01*
X63578208Y-73488207D01*
X63575842Y-73502727D01*
X63574277Y-73517186D01*
X63573515Y-73531560D01*
X63573560Y-73545831D01*
X63574411Y-73559975D01*
X63576063Y-73573978D01*
X63578526Y-73587816D01*
X63581791Y-73601469D01*
X63585867Y-73614912D01*
X63590751Y-73628135D01*
X63596439Y-73641112D01*
X63602939Y-73653819D01*
X63610246Y-73666245D01*
X63618363Y-73678361D01*
X63627290Y-73690154D01*
X63637027Y-73701598D01*
X63647575Y-73712676D01*
X63658936Y-73723369D01*
X63671109Y-73733649D01*
X63681050Y-73741259D01*
X63691444Y-73748546D01*
X63702204Y-73755482D01*
X63713248Y-73762029D01*
X63724490Y-73768159D01*
X63735843Y-73773835D01*
X63747225Y-73779026D01*
X63758549Y-73783695D01*
X63769732Y-73787818D01*
X63780687Y-73791350D01*
X63791329Y-73794267D01*
X63801575Y-73796532D01*
X63811337Y-73798109D01*
X63820532Y-73798970D01*
X63829074Y-73799081D01*
X63836882Y-73798404D01*
X63848100Y-73796334D01*
X63858212Y-73793384D01*
X63867307Y-73789287D01*
X63875473Y-73783782D01*
X63882798Y-73776607D01*
X63889372Y-73767496D01*
X63895283Y-73756186D01*
X63900622Y-73742414D01*
X63905474Y-73725912D01*
X63909929Y-73706425D01*
X63914077Y-73683684D01*
X63918004Y-73657424D01*
X63925087Y-73597323D01*
X64100669Y-73597323D01*
X64100669Y-73805710D01*
X64218110Y-73805710D01*
X64230534Y-73805343D01*
X64243509Y-73804264D01*
X64256930Y-73802510D01*
X64270693Y-73800117D01*
X64284689Y-73797127D01*
X64298818Y-73793565D01*
X64312971Y-73789478D01*
X64327041Y-73784897D01*
X64340926Y-73779860D01*
X64354518Y-73774404D01*
X64367710Y-73768564D01*
X64380403Y-73762372D01*
X64392485Y-73755869D01*
X64403851Y-73749096D01*
X64414399Y-73742080D01*
X64424020Y-73734862D01*
X64424018Y-73734862D01*
X64444268Y-73717404D01*
X64463041Y-73698695D01*
X64480298Y-73678845D01*
X64496000Y-73657956D01*
X64510114Y-73636135D01*
X64522605Y-73613488D01*
X64533432Y-73590115D01*
X64542568Y-73566126D01*
X64549968Y-73541627D01*
X64555604Y-73516721D01*
X64559435Y-73491515D01*
X64561427Y-73466106D01*
X64561545Y-73440607D01*
X64559751Y-73415122D01*
X64556010Y-73389757D01*
X64550288Y-73364618D01*
X64543894Y-73342665D01*
X64536980Y-73322589D01*
X64529465Y-73304322D01*
X64521264Y-73287802D01*
X64516882Y-73280176D01*
X64512295Y-73272964D01*
X64507494Y-73266157D01*
X64502470Y-73259742D01*
X64497213Y-73253717D01*
X64491709Y-73248074D01*
X64485949Y-73242801D01*
X64479928Y-73237893D01*
X64473623Y-73233338D01*
X64467035Y-73229138D01*
X64460148Y-73225269D01*
X64452955Y-73221740D01*
X64445441Y-73218524D01*
X64437602Y-73215630D01*
X64429420Y-73213038D01*
X64420890Y-73210753D01*
X64402735Y-73207042D01*
X64383052Y-73204430D01*
X64361760Y-73202856D01*
X64338773Y-73202249D01*
X64324909Y-73202598D01*
X64311410Y-73203801D01*
X64298280Y-73205852D01*
X64285527Y-73208746D01*
X64273157Y-73212465D01*
X64261170Y-73217007D01*
X64249569Y-73222369D01*
X64238366Y-73228534D01*
X64227563Y-73235496D01*
X64217164Y-73243250D01*
X64207176Y-73251787D01*
X64197599Y-73261096D01*
X64188444Y-73271174D01*
X64179711Y-73282010D01*
X64163542Y-73305916D01*
X64149125Y-73332762D01*
X64136508Y-73362469D01*
X64125718Y-73394984D01*
X64116805Y-73430234D01*
X64109804Y-73468158D01*
X64104755Y-73508692D01*
X64101696Y-73551769D01*
X64100669Y-73597323D01*
X63925087Y-73597323D01*
X63925562Y-73593295D01*
X63933306Y-73511937D01*
X63936194Y-73482388D01*
X63939581Y-73452844D01*
X63943434Y-73423468D01*
X63947709Y-73394421D01*
X63952376Y-73365867D01*
X63957397Y-73337967D01*
X63962731Y-73310885D01*
X63968347Y-73284777D01*
X63974211Y-73259810D01*
X63980279Y-73236145D01*
X63986521Y-73213943D01*
X63992896Y-73193369D01*
X63999370Y-73174579D01*
X64005907Y-73157743D01*
X64012469Y-73143016D01*
X64019019Y-73130566D01*
X64032410Y-73109702D01*
X64048043Y-73089230D01*
X64065698Y-73069282D01*
X64085152Y-73049986D01*
X64106183Y-73031477D01*
X64128574Y-73013885D01*
X64152094Y-72997347D01*
X64176527Y-72981985D01*
X64201649Y-72967939D01*
X64227237Y-72955343D01*
X64253072Y-72944319D01*
X64278930Y-72935005D01*
X64304590Y-72927532D01*
X64329825Y-72922027D01*
X64338773Y-72920794D01*
X64354421Y-72918630D01*
X64378150Y-72917466D01*
X64390102Y-72917775D01*
G37*
G36*
X60442013Y-139372971D02*
G01*
X60428062Y-139375283D01*
X60414477Y-139377759D01*
X60401265Y-139380394D01*
X60388422Y-139383199D01*
X60375949Y-139386168D01*
X60363849Y-139389299D01*
X60352120Y-139392597D01*
X60340761Y-139396059D01*
X60329776Y-139399688D01*
X60319156Y-139403481D01*
X60308913Y-139407442D01*
X60299039Y-139411563D01*
X60289537Y-139415851D01*
X60280405Y-139420302D01*
X60271642Y-139424919D01*
X60263254Y-139429703D01*
X60255309Y-139434719D01*
X60247875Y-139440039D01*
X60240959Y-139445667D01*
X60234557Y-139451595D01*
X60228668Y-139457826D01*
X60223292Y-139464366D01*
X60218432Y-139471208D01*
X60214084Y-139478352D01*
X60210248Y-139485801D01*
X60206926Y-139493552D01*
X60204114Y-139501611D01*
X60201814Y-139509974D01*
X60200027Y-139518639D01*
X60198751Y-139527608D01*
X60197985Y-139536883D01*
X60197729Y-139546460D01*
X60197876Y-139553517D01*
X60198316Y-139560499D01*
X60199047Y-139567409D01*
X60200075Y-139574250D01*
X60201389Y-139581020D01*
X60202994Y-139587718D01*
X60204890Y-139594348D01*
X60207072Y-139600909D01*
X60209548Y-139607399D01*
X60212309Y-139613819D01*
X60215356Y-139620170D01*
X60218693Y-139626449D01*
X60222315Y-139632664D01*
X60226221Y-139638813D01*
X60230414Y-139644893D01*
X60234890Y-139650904D01*
X60244277Y-139662886D01*
X60253966Y-139674935D01*
X60263951Y-139687039D01*
X60274221Y-139699194D01*
X60284770Y-139711399D01*
X60295590Y-139723661D01*
X60306669Y-139735961D01*
X60318005Y-139748309D01*
X60329331Y-139760984D01*
X60340392Y-139774281D01*
X60351180Y-139788185D01*
X60361705Y-139802703D01*
X60371960Y-139817830D01*
X60381950Y-139833561D01*
X60391670Y-139849892D01*
X60401118Y-139866824D01*
X60405630Y-139875599D01*
X60409849Y-139884596D01*
X60413774Y-139893825D01*
X60417407Y-139903283D01*
X60420749Y-139912969D01*
X60423796Y-139922889D01*
X60426552Y-139933041D01*
X60429015Y-139943429D01*
X60431190Y-139954048D01*
X60433073Y-139964903D01*
X60434665Y-139975994D01*
X60435966Y-139987325D01*
X60436981Y-139998891D01*
X60437702Y-140010699D01*
X60438133Y-140022747D01*
X60438278Y-140035036D01*
X60438071Y-140050376D01*
X60437444Y-140065402D01*
X60436402Y-140080103D01*
X60434945Y-140094485D01*
X60433070Y-140108547D01*
X60430775Y-140122295D01*
X60428071Y-140135721D01*
X60424947Y-140148822D01*
X60421415Y-140161608D01*
X60417459Y-140174075D01*
X60413096Y-140186225D01*
X60408315Y-140198048D01*
X60403124Y-140209558D01*
X60397520Y-140220744D01*
X60391500Y-140231614D01*
X60385069Y-140242163D01*
X60378184Y-140252416D01*
X60370896Y-140262396D01*
X60363195Y-140272100D01*
X60355085Y-140281532D01*
X60346569Y-140290689D01*
X60337644Y-140299571D01*
X60328305Y-140308177D01*
X60318553Y-140316510D01*
X60308391Y-140324566D01*
X60297817Y-140332345D01*
X60286828Y-140339850D01*
X60275424Y-140347075D01*
X60263605Y-140354027D01*
X60251367Y-140360700D01*
X60238719Y-140367092D01*
X60225656Y-140373211D01*
X60212185Y-140379048D01*
X60198330Y-140384592D01*
X60184087Y-140389847D01*
X60169460Y-140394809D01*
X60154447Y-140399487D01*
X60139043Y-140403875D01*
X60107084Y-140411775D01*
X60073575Y-140418508D01*
X60038522Y-140424075D01*
X60001922Y-140428474D01*
X59963775Y-140431700D01*
X59963885Y-140431592D01*
X59963992Y-140431478D01*
X59963992Y-140208522D01*
X59977992Y-140206211D01*
X59991607Y-140203739D01*
X60004849Y-140201098D01*
X60017716Y-140198295D01*
X60030204Y-140195328D01*
X60042319Y-140192195D01*
X60054056Y-140188896D01*
X60065414Y-140185435D01*
X60076399Y-140181805D01*
X60087008Y-140178014D01*
X60097240Y-140174054D01*
X60107095Y-140169932D01*
X60116577Y-140165645D01*
X60125678Y-140161193D01*
X60134407Y-140156575D01*
X60142759Y-140151792D01*
X60150707Y-140146759D01*
X60158141Y-140141401D01*
X60165054Y-140135711D01*
X60171457Y-140129689D01*
X60177344Y-140123336D01*
X60182720Y-140116653D01*
X60187583Y-140109637D01*
X60191929Y-140102292D01*
X60195763Y-140094612D01*
X60199089Y-140086600D01*
X60201901Y-140078251D01*
X60204198Y-140069574D01*
X60205987Y-140060560D01*
X60207262Y-140051215D01*
X60208029Y-140041533D01*
X60208285Y-140031516D01*
X60208140Y-140024907D01*
X60207706Y-140018346D01*
X60206982Y-140011836D01*
X60205973Y-140005384D01*
X60204670Y-139998987D01*
X60203079Y-139992642D01*
X60201195Y-139986351D01*
X60199020Y-139980119D01*
X60196556Y-139973944D01*
X60193799Y-139967825D01*
X60190751Y-139961763D01*
X60187411Y-139955760D01*
X60183780Y-139949815D01*
X60179854Y-139943935D01*
X60175633Y-139938111D01*
X60171122Y-139932351D01*
X60152076Y-139908937D01*
X60131874Y-139884886D01*
X60110520Y-139860214D01*
X60088007Y-139834944D01*
X60076682Y-139821873D01*
X60065621Y-139808234D01*
X60054831Y-139794026D01*
X60044305Y-139779257D01*
X60034052Y-139763934D01*
X60024064Y-139748057D01*
X60014347Y-139731632D01*
X60004891Y-139714669D01*
X60000381Y-139705911D01*
X59996163Y-139696951D01*
X59992236Y-139687786D01*
X59988603Y-139678424D01*
X59985264Y-139668852D01*
X59982218Y-139659082D01*
X59979460Y-139649102D01*
X59976995Y-139638920D01*
X59974822Y-139628531D01*
X59972940Y-139617935D01*
X59971349Y-139607131D01*
X59970046Y-139596118D01*
X59969036Y-139584897D01*
X59968311Y-139573468D01*
X59967881Y-139561827D01*
X59967734Y-139549980D01*
X59968203Y-139526870D01*
X59969608Y-139504472D01*
X59971959Y-139482779D01*
X59975241Y-139461792D01*
X59979465Y-139441512D01*
X59984628Y-139421933D01*
X59990731Y-139403067D01*
X59997777Y-139384901D01*
X60005758Y-139367443D01*
X60014684Y-139350693D01*
X60024551Y-139334648D01*
X60035358Y-139319309D01*
X60047108Y-139304675D01*
X60059799Y-139290750D01*
X60073429Y-139277526D01*
X60088007Y-139265011D01*
X60103501Y-139253161D01*
X60119876Y-139241934D01*
X60137138Y-139231330D01*
X60155291Y-139221351D01*
X60174323Y-139211991D01*
X60194239Y-139203250D01*
X60215043Y-139195136D01*
X60236732Y-139187640D01*
X60259302Y-139180767D01*
X60282756Y-139174516D01*
X60307095Y-139168884D01*
X60332314Y-139163870D01*
X60358415Y-139159481D01*
X60385400Y-139155704D01*
X60413269Y-139152552D01*
X60442013Y-139150014D01*
X60442013Y-139372971D01*
G37*
G36*
X62502303Y-139281283D02*
G01*
X61560551Y-139281283D01*
X61532587Y-139281609D01*
X61505349Y-139282583D01*
X61478826Y-139284206D01*
X61453028Y-139286478D01*
X61427944Y-139289402D01*
X61403585Y-139292970D01*
X61379946Y-139297191D01*
X61357024Y-139302061D01*
X61334822Y-139307582D01*
X61313337Y-139313750D01*
X61292572Y-139320565D01*
X61272522Y-139328037D01*
X61253190Y-139336153D01*
X61234580Y-139344918D01*
X61216686Y-139354334D01*
X61199508Y-139364396D01*
X61183013Y-139374963D01*
X61167101Y-139385876D01*
X61151766Y-139397141D01*
X61137005Y-139408754D01*
X61122823Y-139420712D01*
X61109217Y-139433017D01*
X61096191Y-139445672D01*
X61083738Y-139458673D01*
X61071867Y-139472017D01*
X61060569Y-139485706D01*
X61049850Y-139499739D01*
X61039708Y-139514117D01*
X61030143Y-139528836D01*
X61021156Y-139543897D01*
X61012744Y-139559302D01*
X61004912Y-139575042D01*
X60997604Y-139590960D01*
X60990767Y-139606883D01*
X60984408Y-139622806D01*
X60978524Y-139638732D01*
X60973105Y-139654665D01*
X60968166Y-139670598D01*
X60963696Y-139686531D01*
X60959698Y-139702466D01*
X60956170Y-139718399D01*
X60953119Y-139734333D01*
X60950532Y-139750265D01*
X60948421Y-139766194D01*
X60946778Y-139782125D01*
X60945603Y-139798048D01*
X60944899Y-139813971D01*
X60944664Y-139829888D01*
X60945114Y-139852663D01*
X60946458Y-139874989D01*
X60948703Y-139896858D01*
X60951843Y-139918274D01*
X60955881Y-139939236D01*
X60960816Y-139959745D01*
X60966651Y-139979792D01*
X60973385Y-139999387D01*
X60981020Y-140018527D01*
X60989554Y-140037208D01*
X60998988Y-140055432D01*
X61009317Y-140073200D01*
X61020552Y-140090508D01*
X61032689Y-140107365D01*
X61045724Y-140123761D01*
X61059662Y-140139696D01*
X61074747Y-140154918D01*
X61091233Y-140169155D01*
X61109112Y-140182414D01*
X61128388Y-140194692D01*
X61149061Y-140205991D01*
X61171130Y-140216308D01*
X61194599Y-140225646D01*
X61219460Y-140233999D01*
X61245720Y-140241374D01*
X61273377Y-140247763D01*
X61302429Y-140253173D01*
X61332879Y-140257599D01*
X61364721Y-140261043D01*
X61397967Y-140263500D01*
X61432606Y-140264977D01*
X61468643Y-140265467D01*
X62502303Y-140265467D01*
X62502303Y-140548675D01*
X61369476Y-140548675D01*
X61341018Y-140548307D01*
X61313196Y-140547202D01*
X61286018Y-140545363D01*
X61259478Y-140542789D01*
X61233572Y-140539480D01*
X61208303Y-140535433D01*
X61183673Y-140530657D01*
X61159682Y-140525150D01*
X61136324Y-140518909D01*
X61113603Y-140511935D01*
X61091516Y-140504234D01*
X61070068Y-140495803D01*
X61049255Y-140486640D01*
X61029073Y-140476750D01*
X61009531Y-140466133D01*
X60990622Y-140454787D01*
X60972322Y-140442799D01*
X60954628Y-140430329D01*
X60937528Y-140417381D01*
X60921025Y-140403951D01*
X60905117Y-140390042D01*
X60889806Y-140375648D01*
X60875091Y-140360775D01*
X60860973Y-140345425D01*
X60847450Y-140329588D01*
X60834521Y-140313268D01*
X60822182Y-140296473D01*
X60810443Y-140279188D01*
X60799297Y-140261423D01*
X60788746Y-140243173D01*
X60778788Y-140224440D01*
X60769420Y-140205221D01*
X60760634Y-140185589D01*
X60752415Y-140165685D01*
X60744758Y-140145510D01*
X60737675Y-140125064D01*
X60731157Y-140104348D01*
X60725203Y-140083358D01*
X60719816Y-140062099D01*
X60714999Y-140040561D01*
X60710746Y-140018746D01*
X60707062Y-139996655D01*
X60703944Y-139974290D01*
X60701394Y-139951640D01*
X60699412Y-139928713D01*
X60697992Y-139905509D01*
X60697142Y-139882022D01*
X60696861Y-139858252D01*
X60697468Y-139824753D01*
X60699293Y-139791539D01*
X60702333Y-139758613D01*
X60706590Y-139725964D01*
X60712061Y-139693594D01*
X60718750Y-139661503D01*
X60726656Y-139629682D01*
X60735779Y-139598132D01*
X60740829Y-139582540D01*
X60746252Y-139567191D01*
X60752045Y-139552072D01*
X60758211Y-139537194D01*
X60764749Y-139522551D01*
X60771657Y-139508140D01*
X60778941Y-139493967D01*
X60786598Y-139480029D01*
X60794626Y-139466326D01*
X60803033Y-139452854D01*
X60811811Y-139439617D01*
X60820964Y-139426612D01*
X60830493Y-139413846D01*
X60840395Y-139401308D01*
X60850674Y-139389003D01*
X60861330Y-139376932D01*
X60872386Y-139365128D01*
X60883870Y-139353626D01*
X60895783Y-139342433D01*
X60908124Y-139331544D01*
X60920892Y-139320959D01*
X60934086Y-139310679D01*
X60947710Y-139300706D01*
X60961763Y-139291041D01*
X60976241Y-139281680D01*
X60991146Y-139272627D01*
X61006477Y-139263883D01*
X61007817Y-139263166D01*
X60732041Y-139245881D01*
X60732041Y-138998076D01*
X62502078Y-138998076D01*
X62502303Y-138998076D01*
X62502303Y-139281283D01*
G37*
G36*
X60191472Y-134406972D02*
G01*
X60202960Y-134407661D01*
X60214167Y-134408807D01*
X60225083Y-134410409D01*
X60235716Y-134412470D01*
X60246063Y-134414987D01*
X60256121Y-134417963D01*
X60265893Y-134421393D01*
X60275372Y-134425279D01*
X60284566Y-134429621D01*
X60293471Y-134434419D01*
X60302083Y-134439671D01*
X60310403Y-134445381D01*
X60318433Y-134451544D01*
X60326171Y-134458163D01*
X60333616Y-134465231D01*
X60340687Y-134472671D01*
X60347303Y-134480402D01*
X60353467Y-134488424D01*
X60359175Y-134496732D01*
X60364426Y-134505332D01*
X60369220Y-134514221D01*
X60373567Y-134523403D01*
X60377455Y-134532872D01*
X60380885Y-134542636D01*
X60383859Y-134552688D01*
X60386379Y-134563034D01*
X60388436Y-134573671D01*
X60390040Y-134584600D01*
X60391187Y-134595821D01*
X60391873Y-134607336D01*
X60392104Y-134619144D01*
X60391873Y-134630922D01*
X60391187Y-134642409D01*
X60390040Y-134653615D01*
X60388436Y-134664531D01*
X60386379Y-134675167D01*
X60383859Y-134685512D01*
X60380885Y-134695569D01*
X60377455Y-134705340D01*
X60373567Y-134714822D01*
X60369220Y-134724016D01*
X60364427Y-134732919D01*
X60359176Y-134741529D01*
X60353467Y-134749852D01*
X60347303Y-134757883D01*
X60340687Y-134765622D01*
X60333616Y-134773065D01*
X60326171Y-134780134D01*
X60318433Y-134786752D01*
X60310403Y-134792915D01*
X60302083Y-134798623D01*
X60293471Y-134803875D01*
X60284566Y-134808673D01*
X60275372Y-134813017D01*
X60265893Y-134816903D01*
X60256121Y-134820334D01*
X60246063Y-134823308D01*
X60235716Y-134825827D01*
X60225083Y-134827887D01*
X60214167Y-134829488D01*
X60202960Y-134830637D01*
X60191472Y-134831324D01*
X60179698Y-134831552D01*
X60167926Y-134831324D01*
X60156438Y-134830637D01*
X60145233Y-134829488D01*
X60134312Y-134827887D01*
X60123681Y-134825827D01*
X60113332Y-134823308D01*
X60103273Y-134820334D01*
X60093506Y-134816903D01*
X60084024Y-134813017D01*
X60074831Y-134808673D01*
X60065926Y-134803875D01*
X60057314Y-134798623D01*
X60048995Y-134792915D01*
X60040960Y-134786752D01*
X60033225Y-134780134D01*
X60025781Y-134773065D01*
X60018674Y-134765622D01*
X60012031Y-134757883D01*
X60005852Y-134749852D01*
X60000133Y-134741529D01*
X59994874Y-134732919D01*
X59990076Y-134724016D01*
X59985740Y-134714822D01*
X59981861Y-134705340D01*
X59978441Y-134695569D01*
X59975480Y-134685512D01*
X59972975Y-134675167D01*
X59970928Y-134664531D01*
X59969337Y-134653615D01*
X59968202Y-134642409D01*
X59967522Y-134630922D01*
X59967293Y-134619144D01*
X59967525Y-134607374D01*
X59968210Y-134595886D01*
X59969356Y-134584682D01*
X59970959Y-134573765D01*
X59973019Y-134563129D01*
X59975538Y-134552782D01*
X59978511Y-134542727D01*
X59981941Y-134532956D01*
X59985828Y-134523469D01*
X59990177Y-134514281D01*
X59994972Y-134505377D01*
X60000222Y-134496764D01*
X60005932Y-134488440D01*
X60012096Y-134480413D01*
X60018712Y-134472677D01*
X60025781Y-134465231D01*
X60033225Y-134458163D01*
X60040960Y-134451544D01*
X60048995Y-134445381D01*
X60057314Y-134439671D01*
X60065926Y-134434419D01*
X60074831Y-134429621D01*
X60084024Y-134425279D01*
X60093506Y-134421393D01*
X60103273Y-134417963D01*
X60113332Y-134414987D01*
X60123681Y-134412470D01*
X60134312Y-134410409D01*
X60145233Y-134408807D01*
X60156438Y-134407661D01*
X60167926Y-134406972D01*
X60179698Y-134406741D01*
X60191472Y-134406972D01*
G37*
G36*
X62502078Y-134760750D02*
G01*
X60732041Y-134760750D01*
X60732041Y-134477542D01*
X62502078Y-134477542D01*
X62502078Y-134760750D01*
G37*
G36*
X61652579Y-136941519D02*
G01*
X61687477Y-136942801D01*
X61721757Y-136944940D01*
X61755418Y-136947936D01*
X61788457Y-136951790D01*
X61820878Y-136956500D01*
X61852679Y-136962067D01*
X61883859Y-136968494D01*
X61914416Y-136975775D01*
X61944355Y-136983919D01*
X61973672Y-136992918D01*
X62002364Y-137002774D01*
X62030436Y-137013495D01*
X62057885Y-137025074D01*
X62084711Y-137037511D01*
X62110915Y-137050813D01*
X62136423Y-137064877D01*
X62161169Y-137079619D01*
X62185156Y-137095035D01*
X62208376Y-137111129D01*
X62230841Y-137127900D01*
X62252540Y-137145347D01*
X62273483Y-137163474D01*
X62293662Y-137182271D01*
X62313081Y-137201751D01*
X62331741Y-137221907D01*
X62349644Y-137242743D01*
X62366782Y-137264257D01*
X62383167Y-137286453D01*
X62398788Y-137309321D01*
X62413656Y-137332873D01*
X62427762Y-137357103D01*
X62441062Y-137381889D01*
X62453500Y-137407105D01*
X62465078Y-137432746D01*
X62475794Y-137458812D01*
X62485654Y-137485308D01*
X62494654Y-137512236D01*
X62502797Y-137539586D01*
X62510080Y-137567366D01*
X62516504Y-137595575D01*
X62522071Y-137624207D01*
X62526781Y-137653269D01*
X62530635Y-137682764D01*
X62533628Y-137712680D01*
X62535770Y-137743026D01*
X62537056Y-137773804D01*
X62537484Y-137805001D01*
X62536741Y-137847849D01*
X62534510Y-137889645D01*
X62530792Y-137930384D01*
X62528372Y-137950362D01*
X62525580Y-137970079D01*
X62522415Y-137989530D01*
X62518877Y-138008720D01*
X62514962Y-138027645D01*
X62510676Y-138046308D01*
X62506010Y-138064707D01*
X62500973Y-138082842D01*
X62495557Y-138100721D01*
X62489767Y-138118333D01*
X62483629Y-138135673D01*
X62477174Y-138152739D01*
X62470397Y-138169525D01*
X62463305Y-138186029D01*
X62455891Y-138202262D01*
X62448162Y-138218217D01*
X62440113Y-138233897D01*
X62431746Y-138249299D01*
X62423065Y-138264425D01*
X62414065Y-138279279D01*
X62404752Y-138293852D01*
X62395118Y-138308154D01*
X62385171Y-138322183D01*
X62374911Y-138335935D01*
X62364333Y-138349413D01*
X62353442Y-138362619D01*
X62342267Y-138375543D01*
X62330843Y-138388172D01*
X62319159Y-138400507D01*
X62307228Y-138412550D01*
X62295049Y-138424304D01*
X62282613Y-138435760D01*
X62269931Y-138446928D01*
X62256997Y-138457800D01*
X62243814Y-138468383D01*
X62230380Y-138478678D01*
X62216695Y-138488679D01*
X62202765Y-138498391D01*
X62188585Y-138507816D01*
X62174156Y-138516948D01*
X62159479Y-138525795D01*
X62144555Y-138534349D01*
X62013507Y-138311384D01*
X62029254Y-138301924D01*
X62044582Y-138292083D01*
X62059491Y-138281869D01*
X62073988Y-138271276D01*
X62088061Y-138260311D01*
X62101722Y-138248970D01*
X62114964Y-138237255D01*
X62127790Y-138225168D01*
X62140196Y-138212705D01*
X62152188Y-138199869D01*
X62163757Y-138186659D01*
X62174913Y-138173080D01*
X62185648Y-138159125D01*
X62195970Y-138144798D01*
X62205869Y-138130102D01*
X62215355Y-138115033D01*
X62224344Y-138099494D01*
X62232754Y-138083379D01*
X62240585Y-138066701D01*
X62247841Y-138049447D01*
X62254516Y-138031625D01*
X62260612Y-138013237D01*
X62266131Y-137994277D01*
X62271071Y-137974748D01*
X62275427Y-137954656D01*
X62279209Y-137933997D01*
X62282404Y-137912773D01*
X62285021Y-137890983D01*
X62287057Y-137868627D01*
X62288510Y-137845711D01*
X62289383Y-137822229D01*
X62289678Y-137798183D01*
X62289367Y-137775795D01*
X62288431Y-137753813D01*
X62286872Y-137732239D01*
X62284691Y-137711064D01*
X62281889Y-137690296D01*
X62278464Y-137669933D01*
X62274419Y-137649972D01*
X62269753Y-137630418D01*
X62264460Y-137611263D01*
X62258552Y-137592509D01*
X62252021Y-137574153D01*
X62244871Y-137556202D01*
X62237101Y-137538647D01*
X62228713Y-137521490D01*
X62219704Y-137504736D01*
X62210077Y-137488374D01*
X62199826Y-137472441D01*
X62188999Y-137456966D01*
X62177616Y-137441954D01*
X62165670Y-137427395D01*
X62153159Y-137413294D01*
X62140085Y-137399650D01*
X62126440Y-137386465D01*
X62112231Y-137373733D01*
X62097456Y-137361460D01*
X62082115Y-137349639D01*
X62066205Y-137338275D01*
X62049726Y-137327367D01*
X62032673Y-137316916D01*
X62015054Y-137306917D01*
X61996868Y-137297375D01*
X61978107Y-137288281D01*
X61958903Y-137279693D01*
X61939297Y-137271667D01*
X61919282Y-137264194D01*
X61898841Y-137257274D01*
X61877974Y-137250914D01*
X61856659Y-137245105D01*
X61834899Y-137239852D01*
X61812672Y-137235152D01*
X61789976Y-137231007D01*
X61766798Y-137227416D01*
X61743128Y-137224376D01*
X61718959Y-137221893D01*
X61698637Y-137220304D01*
X61698637Y-138555457D01*
X61688743Y-138557136D01*
X61678513Y-138558714D01*
X61667949Y-138560188D01*
X61657054Y-138561558D01*
X61645812Y-138562825D01*
X61634230Y-138563989D01*
X61622301Y-138565054D01*
X61610025Y-138566007D01*
X61584623Y-138567486D01*
X61557886Y-138568594D01*
X61529784Y-138569289D01*
X61500303Y-138569528D01*
X61472153Y-138569167D01*
X61444345Y-138568082D01*
X61416887Y-138566284D01*
X61389772Y-138563760D01*
X61363002Y-138560516D01*
X61336580Y-138556554D01*
X61310500Y-138551870D01*
X61284765Y-138546468D01*
X61259378Y-138540348D01*
X61234335Y-138533507D01*
X61209636Y-138525949D01*
X61185284Y-138517675D01*
X61161274Y-138508680D01*
X61137614Y-138498968D01*
X61114296Y-138488542D01*
X61091325Y-138477397D01*
X61068825Y-138465532D01*
X61046924Y-138453023D01*
X61025616Y-138439866D01*
X61004909Y-138426068D01*
X60984799Y-138411620D01*
X60965279Y-138396528D01*
X60946359Y-138380789D01*
X60928037Y-138364409D01*
X60910305Y-138347377D01*
X60893172Y-138329700D01*
X60876633Y-138311373D01*
X60860687Y-138292400D01*
X60845337Y-138272778D01*
X60830579Y-138252509D01*
X60816412Y-138231590D01*
X60802843Y-138210022D01*
X60789981Y-138187819D01*
X60777951Y-138164996D01*
X60766751Y-138141565D01*
X60756377Y-138117545D01*
X60746835Y-138092940D01*
X60738122Y-138067761D01*
X60730244Y-138042021D01*
X60723189Y-138015733D01*
X60716965Y-137988901D01*
X60711573Y-137961547D01*
X60707009Y-137933676D01*
X60703277Y-137905298D01*
X60700373Y-137876429D01*
X60698300Y-137847076D01*
X60697055Y-137817253D01*
X60696640Y-137786971D01*
X60696733Y-137780375D01*
X60944664Y-137780375D01*
X60945203Y-137808322D01*
X60946821Y-137835599D01*
X60949512Y-137862204D01*
X60953285Y-137888138D01*
X60958138Y-137913401D01*
X60964065Y-137937986D01*
X60971072Y-137961897D01*
X60979158Y-137985141D01*
X60988324Y-138007705D01*
X60998575Y-138029593D01*
X61009899Y-138050803D01*
X61022306Y-138071341D01*
X61035799Y-138091197D01*
X61050366Y-138110376D01*
X61066019Y-138128876D01*
X61082748Y-138146698D01*
X61100445Y-138163631D01*
X61119052Y-138179474D01*
X61138577Y-138194221D01*
X61159017Y-138207878D01*
X61180378Y-138220444D01*
X61202650Y-138231916D01*
X61225839Y-138242293D01*
X61249940Y-138251580D01*
X61274960Y-138259775D01*
X61300895Y-138266878D01*
X61327742Y-138272884D01*
X61355503Y-138277798D01*
X61384175Y-138281627D01*
X61413764Y-138284356D01*
X61444266Y-138285994D01*
X61447312Y-138286046D01*
X61447312Y-137230081D01*
X61443075Y-137230720D01*
X61420157Y-137234769D01*
X61397720Y-137239355D01*
X61375777Y-137244482D01*
X61354312Y-137250145D01*
X61333332Y-137256347D01*
X61312835Y-137263085D01*
X61292826Y-137270361D01*
X61273301Y-137278174D01*
X61254258Y-137286525D01*
X61235733Y-137295399D01*
X61217763Y-137304716D01*
X61200340Y-137314468D01*
X61183475Y-137324661D01*
X61167158Y-137335294D01*
X61151396Y-137346364D01*
X61136185Y-137357877D01*
X61121533Y-137369826D01*
X61107431Y-137382220D01*
X61093885Y-137395054D01*
X61080890Y-137408333D01*
X61068455Y-137422049D01*
X61056573Y-137436209D01*
X61045246Y-137450805D01*
X61034474Y-137465850D01*
X61024263Y-137481337D01*
X61014638Y-137497194D01*
X61005628Y-137513434D01*
X60997238Y-137530049D01*
X60989469Y-137547046D01*
X60982319Y-137564424D01*
X60975789Y-137582176D01*
X60969881Y-137600307D01*
X60964589Y-137618819D01*
X60959924Y-137637703D01*
X60955877Y-137656963D01*
X60952451Y-137676597D01*
X60949651Y-137696606D01*
X60947472Y-137716992D01*
X60945912Y-137737746D01*
X60944974Y-137758876D01*
X60944664Y-137780375D01*
X60696733Y-137780375D01*
X60697068Y-137756671D01*
X60698348Y-137726777D01*
X60700490Y-137697302D01*
X60703485Y-137668236D01*
X60707338Y-137639584D01*
X60712049Y-137611341D01*
X60717616Y-137583513D01*
X60724042Y-137556096D01*
X60731326Y-137529092D01*
X60739468Y-137502498D01*
X60748466Y-137476320D01*
X60758326Y-137450555D01*
X60769046Y-137425199D01*
X60780623Y-137400258D01*
X60793061Y-137375726D01*
X60806359Y-137351608D01*
X60820469Y-137328053D01*
X60835334Y-137305134D01*
X60850958Y-137282847D01*
X60867339Y-137261196D01*
X60884481Y-137240176D01*
X60902380Y-137219793D01*
X60921041Y-137200044D01*
X60940462Y-137180926D01*
X60960639Y-137162442D01*
X60981579Y-137144594D01*
X61003281Y-137127378D01*
X61025741Y-137110799D01*
X61048967Y-137094853D01*
X61072953Y-137079536D01*
X61097698Y-137064855D01*
X61123208Y-137050813D01*
X61149413Y-137037511D01*
X61176233Y-137025074D01*
X61203685Y-137013495D01*
X61231759Y-137002774D01*
X61260453Y-136992918D01*
X61289766Y-136983919D01*
X61319704Y-136975775D01*
X61350264Y-136968494D01*
X61381444Y-136962067D01*
X61413244Y-136956500D01*
X61445663Y-136951790D01*
X61447312Y-136951597D01*
X61478703Y-136947936D01*
X61512363Y-136944940D01*
X61546643Y-136942801D01*
X61581545Y-136941519D01*
X61617064Y-136941092D01*
X61652579Y-136941519D01*
G37*
G36*
X62236247Y-132105688D02*
G01*
X62502300Y-132105688D01*
X62502300Y-132859659D01*
X62501120Y-132927304D01*
X62497570Y-132993114D01*
X62491657Y-133057087D01*
X62483379Y-133119227D01*
X62472733Y-133179528D01*
X62459722Y-133237998D01*
X62444347Y-133294626D01*
X62426605Y-133349421D01*
X62406499Y-133402375D01*
X62384030Y-133453490D01*
X62359191Y-133502769D01*
X62331988Y-133550215D01*
X62302422Y-133595817D01*
X62270486Y-133639583D01*
X62236188Y-133681510D01*
X62199525Y-133721595D01*
X62160704Y-133759536D01*
X62119845Y-133795028D01*
X62076947Y-133828079D01*
X62032016Y-133858677D01*
X61985052Y-133886829D01*
X61936051Y-133912530D01*
X61885013Y-133935786D01*
X61831941Y-133956590D01*
X61776830Y-133974951D01*
X61719686Y-133990864D01*
X61660506Y-134004330D01*
X61599291Y-134015342D01*
X61536040Y-134023909D01*
X61470752Y-134030026D01*
X61403431Y-134033700D01*
X61334074Y-134034924D01*
X61264714Y-134033700D01*
X61197395Y-134030026D01*
X61132104Y-134023909D01*
X61068851Y-134015342D01*
X61007633Y-134004330D01*
X60948451Y-133990864D01*
X60891298Y-133974951D01*
X60836182Y-133956590D01*
X60783097Y-133935786D01*
X60732045Y-133912530D01*
X60683027Y-133886829D01*
X60636037Y-133858677D01*
X60591083Y-133828079D01*
X60548157Y-133795028D01*
X60507265Y-133759536D01*
X60468403Y-133721595D01*
X60431738Y-133681549D01*
X60397440Y-133639653D01*
X60365504Y-133595915D01*
X60335938Y-133550336D01*
X60308739Y-133502914D01*
X60283897Y-133453645D01*
X60261429Y-133402536D01*
X60241322Y-133349584D01*
X60223579Y-133294786D01*
X60208207Y-133238151D01*
X60195195Y-133179670D01*
X60184548Y-133119348D01*
X60176271Y-133057189D01*
X60170357Y-132993186D01*
X60166812Y-132927343D01*
X60165626Y-132859659D01*
X60165846Y-132859659D01*
X60165846Y-132388896D01*
X60430800Y-132388896D01*
X60430800Y-132888024D01*
X60431736Y-132937351D01*
X60434534Y-132985303D01*
X60439199Y-133031887D01*
X60445730Y-133077099D01*
X60454130Y-133120942D01*
X60464396Y-133163417D01*
X60476527Y-133204522D01*
X60490529Y-133244258D01*
X60506394Y-133282629D01*
X60524133Y-133319628D01*
X60543740Y-133355262D01*
X60565214Y-133389526D01*
X60588559Y-133422427D01*
X60613776Y-133453959D01*
X60640859Y-133484125D01*
X60669813Y-133512927D01*
X60700427Y-133540128D01*
X60732490Y-133565575D01*
X60766003Y-133589268D01*
X60800960Y-133611209D01*
X60837370Y-133631397D01*
X60875232Y-133649833D01*
X60914541Y-133666514D01*
X60955303Y-133681440D01*
X60997512Y-133694611D01*
X61041174Y-133706027D01*
X61086286Y-133715686D01*
X61132852Y-133723588D01*
X61180868Y-133729735D01*
X61230338Y-133734132D01*
X61281258Y-133736767D01*
X61333634Y-133737644D01*
X61386009Y-133736767D01*
X61436931Y-133734132D01*
X61486402Y-133729735D01*
X61534415Y-133723588D01*
X61580982Y-133715686D01*
X61626093Y-133706027D01*
X61669753Y-133694611D01*
X61711964Y-133681440D01*
X61752725Y-133666514D01*
X61792035Y-133649833D01*
X61829895Y-133631397D01*
X61866306Y-133611209D01*
X61901266Y-133589268D01*
X61934775Y-133565575D01*
X61966840Y-133540128D01*
X61997452Y-133512927D01*
X62026409Y-133484125D01*
X62053490Y-133453959D01*
X62078709Y-133422427D01*
X62102055Y-133389526D01*
X62123528Y-133355262D01*
X62143135Y-133319628D01*
X62160870Y-133282629D01*
X62176737Y-133244258D01*
X62190740Y-133204522D01*
X62202875Y-133163417D01*
X62213139Y-133120942D01*
X62221538Y-133077099D01*
X62228070Y-133031887D01*
X62232735Y-132985303D01*
X62235532Y-132937351D01*
X62236465Y-132888024D01*
X62236247Y-132888024D01*
X62236247Y-132388896D01*
X60430800Y-132388896D01*
X60165846Y-132388896D01*
X60165846Y-132105688D01*
X62236247Y-132105688D01*
G37*
G36*
X58156796Y-146516247D02*
G01*
X59779294Y-146516247D01*
X59779294Y-146979534D01*
X58848758Y-146979534D01*
X58848758Y-146986570D01*
X58884022Y-147017084D01*
X58915949Y-147047646D01*
X58944687Y-147078303D01*
X58970377Y-147109112D01*
X58993173Y-147140115D01*
X59013215Y-147171374D01*
X59030653Y-147202932D01*
X59045637Y-147234842D01*
X59058305Y-147267161D01*
X59068809Y-147299932D01*
X59077295Y-147333213D01*
X59083912Y-147367052D01*
X59088801Y-147401500D01*
X59092113Y-147436603D01*
X59093991Y-147472427D01*
X59094585Y-147509009D01*
X59093280Y-147560185D01*
X59089415Y-147609299D01*
X59083064Y-147656383D01*
X59074302Y-147701463D01*
X59063207Y-147744573D01*
X59049852Y-147785735D01*
X59034316Y-147824979D01*
X59016669Y-147862334D01*
X58996990Y-147897828D01*
X58975355Y-147931496D01*
X58951839Y-147963353D01*
X58926514Y-147993440D01*
X58899456Y-148021780D01*
X58870745Y-148048400D01*
X58840456Y-148073340D01*
X58808657Y-148096616D01*
X58775433Y-148118254D01*
X58740851Y-148138293D01*
X58704993Y-148156758D01*
X58667934Y-148173678D01*
X58629743Y-148189081D01*
X58590503Y-148202990D01*
X58550282Y-148215445D01*
X58509161Y-148226462D01*
X58424520Y-148244322D01*
X58337173Y-148256793D01*
X58247733Y-148264111D01*
X58156796Y-148266500D01*
X58065976Y-148264112D01*
X57976877Y-148256815D01*
X57890062Y-148244392D01*
X57806107Y-148226624D01*
X57725585Y-148203306D01*
X57649062Y-148174222D01*
X57612480Y-148157449D01*
X57577117Y-148139162D01*
X57543039Y-148119320D01*
X57510316Y-148097907D01*
X57479025Y-148074889D01*
X57449233Y-148050243D01*
X57421014Y-148023942D01*
X57394440Y-147995965D01*
X57369581Y-147966278D01*
X57346509Y-147934852D01*
X57325295Y-147901666D01*
X57306010Y-147866694D01*
X57288727Y-147829906D01*
X57273514Y-147791276D01*
X57260449Y-147750778D01*
X57249597Y-147708386D01*
X57241033Y-147664076D01*
X57234826Y-147617813D01*
X57231048Y-147569579D01*
X57229775Y-147519344D01*
X57231179Y-147469227D01*
X57235319Y-147421347D01*
X57238754Y-147398191D01*
X57589500Y-147398191D01*
X57590450Y-147425794D01*
X57593253Y-147452144D01*
X57597824Y-147477259D01*
X57604093Y-147501172D01*
X57611981Y-147523903D01*
X57621410Y-147545481D01*
X57632307Y-147565920D01*
X57644591Y-147585259D01*
X57658190Y-147603515D01*
X57673023Y-147620712D01*
X57689014Y-147636879D01*
X57706093Y-147652042D01*
X57724175Y-147666220D01*
X57743181Y-147679438D01*
X57763044Y-147691726D01*
X57783684Y-147703110D01*
X57805020Y-147713604D01*
X57826980Y-147723245D01*
X57849484Y-147732056D01*
X57872460Y-147740055D01*
X57895826Y-147747276D01*
X57919507Y-147753731D01*
X57967508Y-147764477D01*
X58015852Y-147772484D01*
X58063924Y-147777960D01*
X58111108Y-147781099D01*
X58156796Y-147782101D01*
X58202602Y-147781053D01*
X58250119Y-147777791D01*
X58298710Y-147772126D01*
X58347729Y-147763848D01*
X58396532Y-147752781D01*
X58444470Y-147738720D01*
X58490900Y-147721488D01*
X58535181Y-147700884D01*
X58556314Y-147689256D01*
X58576667Y-147676714D01*
X58596159Y-147663230D01*
X58614712Y-147648789D01*
X58632243Y-147633356D01*
X58648673Y-147616913D01*
X58663916Y-147599435D01*
X58677899Y-147580901D01*
X58690543Y-147561282D01*
X58701757Y-147540552D01*
X58711470Y-147518693D01*
X58719595Y-147495678D01*
X58726059Y-147471487D01*
X58730772Y-147446090D01*
X58733661Y-147419467D01*
X58734641Y-147391594D01*
X58733701Y-147363664D01*
X58730930Y-147336890D01*
X58726393Y-147311252D01*
X58720175Y-147286730D01*
X58712339Y-147263307D01*
X58702964Y-147240966D01*
X58692121Y-147219695D01*
X58679881Y-147199468D01*
X58666319Y-147180271D01*
X58651506Y-147162090D01*
X58635515Y-147144900D01*
X58618421Y-147128688D01*
X58600296Y-147113445D01*
X58581211Y-147099137D01*
X58561243Y-147085756D01*
X58540458Y-147073288D01*
X58518937Y-147061704D01*
X58496748Y-147050998D01*
X58473959Y-147041146D01*
X58450653Y-147032135D01*
X58426898Y-147023944D01*
X58402764Y-147016555D01*
X58353669Y-147004122D01*
X58303936Y-146994697D01*
X58254159Y-146988136D01*
X58204917Y-146984300D01*
X58156796Y-146983054D01*
X58108790Y-146984446D01*
X58059881Y-146988689D01*
X58010625Y-146995869D01*
X57961570Y-147006081D01*
X57913271Y-147019417D01*
X57866275Y-147035962D01*
X57821135Y-147055813D01*
X57778406Y-147079058D01*
X57758116Y-147091984D01*
X57738637Y-147105792D01*
X57720035Y-147120497D01*
X57702382Y-147136104D01*
X57685745Y-147152624D01*
X57670189Y-147170077D01*
X57655791Y-147188469D01*
X57642614Y-147207814D01*
X57630728Y-147228120D01*
X57620205Y-147249405D01*
X57611109Y-147271671D01*
X57603517Y-147294935D01*
X57597488Y-147319209D01*
X57593098Y-147344500D01*
X57590412Y-147370822D01*
X57589500Y-147398191D01*
X57238754Y-147398191D01*
X57242095Y-147375670D01*
X57251408Y-147332156D01*
X57263148Y-147290774D01*
X57277225Y-147251490D01*
X57293526Y-147214256D01*
X57311957Y-147179048D01*
X57332411Y-147145829D01*
X57354793Y-147114558D01*
X57378991Y-147085205D01*
X57404912Y-147057728D01*
X57432448Y-147032094D01*
X57461504Y-147008270D01*
X57491975Y-146986219D01*
X57523756Y-146965904D01*
X57523756Y-146959087D01*
X57271115Y-146959087D01*
X57271115Y-146516247D01*
X58156796Y-146516247D01*
G37*
G36*
X62141062Y-135151073D02*
G01*
X62165208Y-135166854D01*
X62188638Y-135183418D01*
X62211348Y-135200775D01*
X62233333Y-135218918D01*
X62254603Y-135237850D01*
X62275151Y-135257567D01*
X62294983Y-135278077D01*
X62314092Y-135299374D01*
X62332485Y-135321456D01*
X62350158Y-135344330D01*
X62367114Y-135367994D01*
X62383349Y-135392446D01*
X62398873Y-135417683D01*
X62413676Y-135443713D01*
X62427762Y-135470526D01*
X62441062Y-135497893D01*
X62453500Y-135525578D01*
X62465078Y-135553578D01*
X62475794Y-135581891D01*
X62485654Y-135610521D01*
X62494654Y-135639469D01*
X62502797Y-135668736D01*
X62510080Y-135698324D01*
X62516504Y-135728229D01*
X62522071Y-135758454D01*
X62526781Y-135789004D01*
X62530635Y-135819871D01*
X62533628Y-135851058D01*
X62535770Y-135882572D01*
X62537056Y-135914408D01*
X62537484Y-135946571D01*
X62537262Y-135946788D01*
X62536999Y-135972693D01*
X62536211Y-135998210D01*
X62534897Y-136023344D01*
X62533057Y-136048083D01*
X62530689Y-136072441D01*
X62527802Y-136096414D01*
X62524383Y-136119999D01*
X62520441Y-136143198D01*
X62515974Y-136166010D01*
X62510979Y-136188432D01*
X62505460Y-136210474D01*
X62499414Y-136232128D01*
X62492845Y-136253390D01*
X62485748Y-136274270D01*
X62478127Y-136294762D01*
X62469979Y-136314871D01*
X62461378Y-136334505D01*
X62452313Y-136353591D01*
X62442786Y-136372126D01*
X62432798Y-136390105D01*
X62422347Y-136407536D01*
X62411437Y-136424409D01*
X62400066Y-136440732D01*
X62388239Y-136456498D01*
X62375950Y-136471714D01*
X62363205Y-136486374D01*
X62350002Y-136500477D01*
X62336339Y-136514029D01*
X62322221Y-136527024D01*
X62307649Y-136539463D01*
X62292622Y-136551345D01*
X62277144Y-136562675D01*
X62261253Y-136573417D01*
X62244995Y-136583464D01*
X62228397Y-136592818D01*
X62211448Y-136601475D01*
X62194173Y-136609438D01*
X62176578Y-136616706D01*
X62158670Y-136623279D01*
X62140460Y-136629161D01*
X62121960Y-136634350D01*
X62103177Y-136638844D01*
X62084125Y-136642646D01*
X62064812Y-136645759D01*
X62045242Y-136648177D01*
X62025437Y-136649904D01*
X62005402Y-136650941D01*
X61985142Y-136651285D01*
X61964971Y-136650900D01*
X61945190Y-136649729D01*
X61925800Y-136647788D01*
X61906804Y-136645067D01*
X61888191Y-136641573D01*
X61869968Y-136637304D01*
X61852136Y-136632256D01*
X61834686Y-136626438D01*
X61817628Y-136619846D01*
X61800952Y-136612484D01*
X61784663Y-136604349D01*
X61768759Y-136595441D01*
X61753236Y-136585766D01*
X61738099Y-136575321D01*
X61723342Y-136564105D01*
X61708970Y-136552122D01*
X61695079Y-136539132D01*
X61681679Y-136524982D01*
X61668778Y-136509675D01*
X61656366Y-136493205D01*
X61644458Y-136475579D01*
X61633041Y-136456791D01*
X61622121Y-136436845D01*
X61611700Y-136415740D01*
X61601776Y-136393473D01*
X61592351Y-136370050D01*
X61583422Y-136345463D01*
X61574989Y-136319719D01*
X61567059Y-136292816D01*
X61559625Y-136264752D01*
X61552695Y-136235528D01*
X61546260Y-136205150D01*
X61454129Y-135762746D01*
X61450439Y-135744928D01*
X61446461Y-135727835D01*
X61442192Y-135711468D01*
X61437635Y-135695829D01*
X61432788Y-135680911D01*
X61427648Y-135666716D01*
X61422222Y-135653242D01*
X61416503Y-135640496D01*
X61410489Y-135628463D01*
X61404187Y-135617158D01*
X61397594Y-135606570D01*
X61390712Y-135596699D01*
X61383532Y-135587555D01*
X61376059Y-135579123D01*
X61368297Y-135571411D01*
X61360238Y-135564415D01*
X61352025Y-135557946D01*
X61343709Y-135551901D01*
X61335288Y-135546274D01*
X61326769Y-135541074D01*
X61318151Y-135536290D01*
X61309427Y-135531925D01*
X61300608Y-135527977D01*
X61291691Y-135524452D01*
X61282673Y-135521339D01*
X61273561Y-135518649D01*
X61264355Y-135516370D01*
X61255046Y-135514508D01*
X61245646Y-135513063D01*
X61236150Y-135512029D01*
X61226561Y-135511411D01*
X61216878Y-135511201D01*
X61207210Y-135511388D01*
X61197667Y-135511945D01*
X61188243Y-135512871D01*
X61178950Y-135514177D01*
X61169774Y-135515846D01*
X61160724Y-135517893D01*
X61151801Y-135520310D01*
X61142997Y-135523105D01*
X61134320Y-135526271D01*
X61125767Y-135529806D01*
X61117335Y-135533726D01*
X61109027Y-135538011D01*
X61100844Y-135542676D01*
X61092782Y-135547711D01*
X61084848Y-135553126D01*
X61077035Y-135558920D01*
X61069386Y-135565062D01*
X61061947Y-135571533D01*
X61054709Y-135578338D01*
X61047683Y-135585471D01*
X61040862Y-135592937D01*
X61034252Y-135600734D01*
X61027850Y-135608864D01*
X61021651Y-135617323D01*
X61015664Y-135626117D01*
X61009886Y-135635240D01*
X61004319Y-135644701D01*
X60998959Y-135654494D01*
X60993811Y-135664618D01*
X60988869Y-135675080D01*
X60984146Y-135685874D01*
X60979628Y-135697003D01*
X60975352Y-135708444D01*
X60971351Y-135720175D01*
X60967623Y-135732189D01*
X60964171Y-135744497D01*
X60960991Y-135757092D01*
X60958089Y-135769973D01*
X60955458Y-135783146D01*
X60953105Y-135796607D01*
X60949221Y-135824397D01*
X60946449Y-135853338D01*
X60944781Y-135883433D01*
X60944226Y-135914686D01*
X60944508Y-135932783D01*
X60945361Y-135950800D01*
X60946778Y-135968732D01*
X60948762Y-135986586D01*
X60951311Y-136004355D01*
X60954430Y-136022039D01*
X60958114Y-136039647D01*
X60962365Y-136057166D01*
X60967186Y-136074607D01*
X60972570Y-136091962D01*
X60978524Y-136109240D01*
X60985041Y-136126431D01*
X60992126Y-136143541D01*
X60999782Y-136160568D01*
X61008001Y-136177511D01*
X61016787Y-136194375D01*
X61026182Y-136210902D01*
X61036224Y-136226853D01*
X61046918Y-136242216D01*
X61058263Y-136257001D01*
X61070252Y-136271206D01*
X61082895Y-136284827D01*
X61096184Y-136297869D01*
X61110127Y-136310337D01*
X61124716Y-136322216D01*
X61139954Y-136333520D01*
X61155841Y-136344243D01*
X61172381Y-136354388D01*
X61189565Y-136363952D01*
X61207402Y-136372943D01*
X61225887Y-136381355D01*
X61245023Y-136389183D01*
X61089347Y-136626437D01*
X61066221Y-136614990D01*
X61043760Y-136602827D01*
X61021964Y-136589945D01*
X61000832Y-136576348D01*
X60980366Y-136562032D01*
X60960563Y-136547003D01*
X60941428Y-136531257D01*
X60922952Y-136514793D01*
X60905147Y-136497617D01*
X60888002Y-136479722D01*
X60871525Y-136461109D01*
X60855710Y-136441778D01*
X60840562Y-136421734D01*
X60826078Y-136400975D01*
X60812259Y-136379498D01*
X60799104Y-136357306D01*
X60786681Y-136334432D01*
X60775058Y-136310924D01*
X60764236Y-136286775D01*
X60754213Y-136261990D01*
X60744987Y-136236567D01*
X60736562Y-136210505D01*
X60728940Y-136183805D01*
X60722120Y-136156470D01*
X60716101Y-136128500D01*
X60710879Y-136099894D01*
X60706463Y-136070648D01*
X60702850Y-136040770D01*
X60700038Y-136010255D01*
X60698027Y-135979107D01*
X60696823Y-135947324D01*
X60696422Y-135914904D01*
X60696702Y-135889019D01*
X60697552Y-135863567D01*
X60698972Y-135838536D01*
X60700956Y-135813936D01*
X60703506Y-135789763D01*
X60706623Y-135766022D01*
X60710309Y-135742704D01*
X60714560Y-135719814D01*
X60719381Y-135697352D01*
X60724765Y-135675321D01*
X60730716Y-135653713D01*
X60737235Y-135632535D01*
X60744320Y-135611785D01*
X60751971Y-135591462D01*
X60760195Y-135571569D01*
X60768981Y-135552101D01*
X60778237Y-135533124D01*
X60787861Y-135514697D01*
X60797862Y-135496824D01*
X60808230Y-135479503D01*
X60818975Y-135462733D01*
X60830093Y-135446518D01*
X60841578Y-135430860D01*
X60853442Y-135415750D01*
X60865678Y-135401193D01*
X60878288Y-135387195D01*
X60891272Y-135373747D01*
X60904630Y-135360855D01*
X60918362Y-135348520D01*
X60932472Y-135336738D01*
X60946955Y-135325516D01*
X60961815Y-135314848D01*
X60976961Y-135304785D01*
X60992302Y-135295368D01*
X61007837Y-135286602D01*
X61023571Y-135278485D01*
X61039497Y-135271018D01*
X61055617Y-135264202D01*
X61071931Y-135258032D01*
X61088441Y-135252512D01*
X61105141Y-135247645D01*
X61122035Y-135243422D01*
X61139121Y-135239851D01*
X61156402Y-135236926D01*
X61173872Y-135234657D01*
X61191533Y-135233035D01*
X61209386Y-135232056D01*
X61227431Y-135231736D01*
X61250240Y-135232171D01*
X61272568Y-135233478D01*
X61294418Y-135235654D01*
X61315794Y-135238700D01*
X61336690Y-135242622D01*
X61357120Y-135247412D01*
X61377068Y-135253070D01*
X61396548Y-135259602D01*
X61415556Y-135267009D01*
X61434089Y-135275284D01*
X61452159Y-135284424D01*
X61469758Y-135294441D01*
X61486889Y-135305331D01*
X61503551Y-135317086D01*
X61519750Y-135329714D01*
X61535487Y-135343214D01*
X61550708Y-135357722D01*
X61565374Y-135373371D01*
X61579487Y-135390171D01*
X61593043Y-135408114D01*
X61606044Y-135427206D01*
X61618487Y-135447440D01*
X61630379Y-135468825D01*
X61641714Y-135491362D01*
X61652496Y-135515042D01*
X61662724Y-135539875D01*
X61672402Y-135565855D01*
X61681523Y-135592993D01*
X61690094Y-135621281D01*
X61698109Y-135650719D01*
X61705575Y-135681312D01*
X61712489Y-135713054D01*
X61801100Y-136137860D01*
X61804780Y-136154346D01*
X61808718Y-136170146D01*
X61812920Y-136185269D01*
X61817384Y-136199710D01*
X61822113Y-136213474D01*
X61827106Y-136226557D01*
X61832356Y-136238963D01*
X61837871Y-136250691D01*
X61843656Y-136261740D01*
X61849696Y-136272114D01*
X61856004Y-136281809D01*
X61862570Y-136290833D01*
X61869400Y-136299172D01*
X61876499Y-136306839D01*
X61883853Y-136313830D01*
X61891472Y-136320147D01*
X61899269Y-136325937D01*
X61907167Y-136331351D01*
X61915165Y-136336388D01*
X61923254Y-136341049D01*
X61931444Y-136345339D01*
X61939729Y-136349253D01*
X61948109Y-136352791D01*
X61956582Y-136355961D01*
X61965156Y-136358751D01*
X61973822Y-136361169D01*
X61982580Y-136363213D01*
X61991438Y-136364889D01*
X62000386Y-136366187D01*
X62009432Y-136367117D01*
X62018569Y-136367673D01*
X62027800Y-136367859D01*
X62042222Y-136367444D01*
X62056299Y-136366201D01*
X62070030Y-136364126D01*
X62083414Y-136361222D01*
X62089980Y-136359458D01*
X62096454Y-136357487D01*
X62102845Y-136355310D01*
X62109150Y-136352926D01*
X62115369Y-136350335D01*
X62121499Y-136347535D01*
X62127546Y-136344525D01*
X62133509Y-136341309D01*
X62145166Y-136334257D01*
X62156480Y-136326374D01*
X62167450Y-136317663D01*
X62178073Y-136308123D01*
X62188350Y-136297750D01*
X62198286Y-136286549D01*
X62207873Y-136274518D01*
X62217116Y-136261658D01*
X62225902Y-136248064D01*
X62234122Y-136233839D01*
X62241774Y-136218982D01*
X62248861Y-136203481D01*
X62255380Y-136187350D01*
X62261332Y-136170584D01*
X62266718Y-136153182D01*
X62271536Y-136135145D01*
X62275787Y-136116470D01*
X62279471Y-136097157D01*
X62282589Y-136077208D01*
X62285143Y-136056624D01*
X62287125Y-136035399D01*
X62288542Y-136013537D01*
X62289392Y-135991036D01*
X62289677Y-135967899D01*
X62289316Y-135941589D01*
X62288234Y-135915766D01*
X62286431Y-135890425D01*
X62283906Y-135865570D01*
X62280663Y-135841201D01*
X62276698Y-135817314D01*
X62272018Y-135793910D01*
X62266615Y-135770992D01*
X62260496Y-135748561D01*
X62253656Y-135726612D01*
X62246098Y-135705147D01*
X62237821Y-135684169D01*
X62228830Y-135663673D01*
X62219117Y-135643661D01*
X62208691Y-135624136D01*
X62197545Y-135605094D01*
X62185767Y-135586579D01*
X62173439Y-135568628D01*
X62160556Y-135551244D01*
X62147119Y-135534427D01*
X62133134Y-135518181D01*
X62118595Y-135502497D01*
X62103501Y-135487382D01*
X62087852Y-135472835D01*
X62071653Y-135458854D01*
X62054895Y-135445439D01*
X62037586Y-135432592D01*
X62019721Y-135420311D01*
X62001302Y-135408595D01*
X61982325Y-135397450D01*
X61962792Y-135386872D01*
X61942703Y-135376858D01*
X62116190Y-135136088D01*
X62141062Y-135151073D01*
G37*
G36*
X58248494Y-144553118D02*
G01*
X58338341Y-144560425D01*
X58425963Y-144572860D01*
X58510776Y-144590635D01*
X58592183Y-144613964D01*
X58669602Y-144643064D01*
X58706632Y-144659841D01*
X58742444Y-144678140D01*
X58776961Y-144697986D01*
X58810116Y-144719406D01*
X58841831Y-144742430D01*
X58872031Y-144767078D01*
X58900649Y-144793381D01*
X58927601Y-144821361D01*
X58952824Y-144851052D01*
X58976237Y-144882473D01*
X58997774Y-144915660D01*
X59017353Y-144950629D01*
X59034906Y-144987407D01*
X59050356Y-145026035D01*
X59063631Y-145066520D01*
X59074657Y-145108905D01*
X59083362Y-145153207D01*
X59089670Y-145199451D01*
X59093509Y-145247670D01*
X59094804Y-145297884D01*
X59093986Y-145338414D01*
X59091492Y-145378260D01*
X59087275Y-145417394D01*
X59081276Y-145455769D01*
X59073454Y-145493357D01*
X59063756Y-145530121D01*
X59052126Y-145566018D01*
X59038517Y-145601017D01*
X59022879Y-145635084D01*
X59005158Y-145668180D01*
X58985306Y-145700260D01*
X58963268Y-145731301D01*
X58938997Y-145761261D01*
X58912443Y-145790103D01*
X58883554Y-145817792D01*
X58852277Y-145844292D01*
X58852277Y-145851106D01*
X59053029Y-145851106D01*
X59053029Y-145851327D01*
X59053029Y-146301197D01*
X56529014Y-146299664D01*
X56529014Y-145835933D01*
X57478902Y-145837469D01*
X57478902Y-145830656D01*
X57448206Y-145804390D01*
X57419598Y-145777498D01*
X57393060Y-145749912D01*
X57368582Y-145721561D01*
X57346148Y-145692385D01*
X57325743Y-145662315D01*
X57307350Y-145631288D01*
X57290958Y-145599234D01*
X57276550Y-145566084D01*
X57264108Y-145531775D01*
X57253627Y-145496245D01*
X57245078Y-145459421D01*
X57238455Y-145421244D01*
X57238167Y-145418819D01*
X57589500Y-145418819D01*
X57590421Y-145446481D01*
X57593136Y-145473054D01*
X57597576Y-145498566D01*
X57603667Y-145523025D01*
X57611343Y-145546452D01*
X57620524Y-145568846D01*
X57631146Y-145590232D01*
X57643141Y-145610618D01*
X57656429Y-145630020D01*
X57670944Y-145648441D01*
X57686612Y-145665909D01*
X57703369Y-145682425D01*
X57721133Y-145698011D01*
X57739844Y-145712679D01*
X57759425Y-145726435D01*
X57779808Y-145739298D01*
X57800921Y-145751278D01*
X57822689Y-145762392D01*
X57845045Y-145772648D01*
X57867917Y-145782065D01*
X57891235Y-145790650D01*
X57914925Y-145798426D01*
X57963148Y-145811574D01*
X58012013Y-145821621D01*
X58060955Y-145828667D01*
X58109405Y-145832814D01*
X58156796Y-145834177D01*
X58204302Y-145832972D01*
X58253085Y-145829257D01*
X58302550Y-145822873D01*
X58352090Y-145813667D01*
X58401108Y-145801475D01*
X58449008Y-145786145D01*
X58495193Y-145767526D01*
X58539056Y-145745450D01*
X58559933Y-145733072D01*
X58580007Y-145719774D01*
X58599196Y-145705535D01*
X58617437Y-145690332D01*
X58634646Y-145674148D01*
X58650754Y-145656967D01*
X58665680Y-145638764D01*
X58679355Y-145619523D01*
X58691701Y-145599222D01*
X58702644Y-145577849D01*
X58712109Y-145555375D01*
X58720020Y-145531785D01*
X58726305Y-145507054D01*
X58730887Y-145481171D01*
X58733691Y-145454109D01*
X58734641Y-145425859D01*
X58733679Y-145397651D01*
X58730848Y-145370739D01*
X58726226Y-145345094D01*
X58719886Y-145320686D01*
X58711904Y-145297492D01*
X58702362Y-145275490D01*
X58691332Y-145254646D01*
X58678892Y-145234937D01*
X58665116Y-145216341D01*
X58650088Y-145198828D01*
X58633880Y-145182370D01*
X58616568Y-145166949D01*
X58598228Y-145152528D01*
X58578938Y-145139093D01*
X58558782Y-145126610D01*
X58537820Y-145115053D01*
X58516144Y-145104397D01*
X58493823Y-145094623D01*
X58470936Y-145085694D01*
X58447559Y-145077589D01*
X58423773Y-145070282D01*
X58399648Y-145063748D01*
X58350698Y-145052891D01*
X58301325Y-145044804D01*
X58252139Y-145039290D01*
X58203761Y-145036133D01*
X58156796Y-145035126D01*
X58111108Y-145036131D01*
X58063924Y-145039276D01*
X58015852Y-145044759D01*
X57967508Y-145052777D01*
X57919507Y-145063532D01*
X57872460Y-145077218D01*
X57826980Y-145094031D01*
X57783684Y-145114175D01*
X57763044Y-145125554D01*
X57743181Y-145137844D01*
X57724175Y-145151060D01*
X57706093Y-145165230D01*
X57689014Y-145180385D01*
X57673023Y-145196541D01*
X57658190Y-145213726D01*
X57644591Y-145231970D01*
X57632307Y-145251287D01*
X57621410Y-145271714D01*
X57611981Y-145293265D01*
X57604093Y-145315972D01*
X57597824Y-145339854D01*
X57593253Y-145364940D01*
X57590450Y-145391253D01*
X57589500Y-145418819D01*
X57238167Y-145418819D01*
X57233747Y-145381635D01*
X57230930Y-145340537D01*
X57229998Y-145297884D01*
X57231261Y-145247647D01*
X57235009Y-145199411D01*
X57241170Y-145153150D01*
X57249681Y-145108839D01*
X57260464Y-145066448D01*
X57273451Y-145025952D01*
X57288576Y-144987321D01*
X57305766Y-144950535D01*
X57324951Y-144915560D01*
X57346065Y-144882377D01*
X57369035Y-144850954D01*
X57393791Y-144821268D01*
X57420266Y-144793288D01*
X57448389Y-144766984D01*
X57478088Y-144742340D01*
X57509299Y-144719322D01*
X57541948Y-144697911D01*
X57575967Y-144678070D01*
X57611286Y-144659778D01*
X57647838Y-144643006D01*
X57685544Y-144627730D01*
X57724344Y-144613922D01*
X57764162Y-144601557D01*
X57804935Y-144590605D01*
X57846594Y-144581042D01*
X57889058Y-144572840D01*
X57976151Y-144560416D01*
X58065654Y-144553115D01*
X58156796Y-144550738D01*
X58157013Y-144550733D01*
X58248494Y-144553118D01*
G37*
G36*
X59070179Y-135752197D02*
G01*
X58422630Y-136000000D01*
X58422630Y-137058065D01*
X59070179Y-137305872D01*
X59070179Y-137606449D01*
X56734386Y-136700542D01*
X56734386Y-136527274D01*
X57006817Y-136527274D01*
X58157013Y-136955605D01*
X58157013Y-136102685D01*
X57006817Y-136527274D01*
X56734386Y-136527274D01*
X56734386Y-136364342D01*
X58157013Y-135810451D01*
X59070179Y-135454916D01*
X59070179Y-135752197D01*
G37*
G36*
X58469383Y-142746786D02*
G01*
X58540688Y-142753322D01*
X58608986Y-142764314D01*
X58674001Y-142779846D01*
X58735449Y-142799990D01*
X58764748Y-142811823D01*
X58793045Y-142824842D01*
X58820309Y-142839057D01*
X58846503Y-142854479D01*
X58871591Y-142871111D01*
X58895540Y-142888980D01*
X58918311Y-142908082D01*
X58939870Y-142928426D01*
X58960182Y-142950031D01*
X58979213Y-142972905D01*
X58996923Y-142997053D01*
X59013282Y-143022492D01*
X59028249Y-143049226D01*
X59041795Y-143077272D01*
X59053878Y-143106635D01*
X59064464Y-143137327D01*
X59073521Y-143169358D01*
X59081012Y-143202741D01*
X59086898Y-143237480D01*
X59091145Y-143273589D01*
X59093720Y-143311081D01*
X59094587Y-143349959D01*
X59093301Y-143394863D01*
X59089486Y-143438772D01*
X59083218Y-143481657D01*
X59074567Y-143523499D01*
X59063602Y-143564261D01*
X59050397Y-143603931D01*
X59035022Y-143642474D01*
X59017549Y-143679863D01*
X58998044Y-143716077D01*
X58976582Y-143751087D01*
X58953240Y-143784865D01*
X58928080Y-143817389D01*
X58901174Y-143848632D01*
X58872600Y-143878562D01*
X58842424Y-143907165D01*
X58810720Y-143934403D01*
X58810720Y-143941441D01*
X59052810Y-143941441D01*
X59052810Y-144380761D01*
X57271115Y-144380761D01*
X57271115Y-143917032D01*
X58143162Y-143917032D01*
X58187379Y-143916133D01*
X58234043Y-143913261D01*
X58282418Y-143908123D01*
X58331777Y-143900450D01*
X58381384Y-143889961D01*
X58430513Y-143876379D01*
X58478427Y-143859421D01*
X58524409Y-143838808D01*
X58546441Y-143827048D01*
X58567712Y-143814264D01*
X58588135Y-143800432D01*
X58607616Y-143785511D01*
X58626061Y-143769467D01*
X58643384Y-143752265D01*
X58659489Y-143733875D01*
X58674289Y-143714254D01*
X58687687Y-143693372D01*
X58699593Y-143671193D01*
X58709925Y-143647682D01*
X58718580Y-143622804D01*
X58725470Y-143596527D01*
X58730505Y-143568810D01*
X58733593Y-143539626D01*
X58734641Y-143508935D01*
X58733789Y-143481894D01*
X58731283Y-143456527D01*
X58727190Y-143432772D01*
X58721575Y-143410582D01*
X58714505Y-143389902D01*
X58706055Y-143370684D01*
X58696284Y-143352864D01*
X58685268Y-143336389D01*
X58673069Y-143321216D01*
X58659756Y-143307289D01*
X58645399Y-143294553D01*
X58630065Y-143282951D01*
X58613817Y-143272437D01*
X58596732Y-143262950D01*
X58578871Y-143254443D01*
X58560304Y-143246863D01*
X58541099Y-143240152D01*
X58521322Y-143234260D01*
X58501042Y-143229129D01*
X58480329Y-143224719D01*
X58459247Y-143220960D01*
X58437869Y-143217811D01*
X58394483Y-143213114D01*
X58350714Y-143210202D01*
X58307107Y-143208648D01*
X58222537Y-143207914D01*
X57271115Y-143207914D01*
X57271115Y-142744628D01*
X58395365Y-142744628D01*
X58469383Y-142746786D01*
G37*
G36*
X61652578Y-140956106D02*
G01*
X61687477Y-140957387D01*
X61721756Y-140959529D01*
X61755416Y-140962523D01*
X61788457Y-140966377D01*
X61820877Y-140971088D01*
X61852679Y-140976656D01*
X61883859Y-140983079D01*
X61914415Y-140990363D01*
X61944355Y-140998503D01*
X61973669Y-141007504D01*
X62002363Y-141017365D01*
X62030435Y-141028082D01*
X62057882Y-141039659D01*
X62084710Y-141052098D01*
X62110912Y-141065398D01*
X62136422Y-141079460D01*
X62161169Y-141094185D01*
X62185155Y-141109574D01*
X62208376Y-141125627D01*
X62230839Y-141142344D01*
X62252540Y-141159727D01*
X62273481Y-141177768D01*
X62293662Y-141196472D01*
X62313081Y-141215840D01*
X62331741Y-141235871D01*
X62349643Y-141256563D01*
X62366781Y-141277915D01*
X62383166Y-141299929D01*
X62398787Y-141322603D01*
X62413656Y-141345937D01*
X62427762Y-141369932D01*
X62441060Y-141394439D01*
X62453498Y-141419317D01*
X62465076Y-141444574D01*
X62475794Y-141470224D01*
X62485652Y-141496281D01*
X62494652Y-141522743D01*
X62502796Y-141549630D01*
X62510080Y-141576951D01*
X62516503Y-141604715D01*
X62522071Y-141632930D01*
X62526780Y-141661610D01*
X62530635Y-141690767D01*
X62533628Y-141720404D01*
X62535770Y-141750541D01*
X62537056Y-141781180D01*
X62537482Y-141812333D01*
X62537056Y-141843523D01*
X62535770Y-141874252D01*
X62533628Y-141904537D01*
X62530635Y-141934365D01*
X62526780Y-141963734D01*
X62522071Y-141992653D01*
X62516503Y-142021111D01*
X62510080Y-142049116D01*
X62502796Y-142076665D01*
X62494652Y-142103760D01*
X62485652Y-142130395D01*
X62475794Y-142156576D01*
X62465076Y-142182294D01*
X62453498Y-142207559D01*
X62441060Y-142232364D01*
X62427762Y-142256711D01*
X62413654Y-142280505D01*
X62398786Y-142303650D01*
X62383165Y-142326145D01*
X62366781Y-142347990D01*
X62349640Y-142369187D01*
X62331739Y-142389733D01*
X62313081Y-142409631D01*
X62293662Y-142428880D01*
X62273481Y-142447479D01*
X62252540Y-142465427D01*
X62230839Y-142482729D01*
X62208376Y-142499378D01*
X62185155Y-142515380D01*
X62161169Y-142530734D01*
X62136422Y-142545435D01*
X62110912Y-142559491D01*
X62084710Y-142572749D01*
X62057882Y-142585161D01*
X62030435Y-142596721D01*
X62002363Y-142607429D01*
X61973669Y-142617285D01*
X61944355Y-142626286D01*
X61914415Y-142634433D01*
X61883859Y-142641721D01*
X61852679Y-142648161D01*
X61820877Y-142653741D01*
X61788457Y-142658465D01*
X61755416Y-142662330D01*
X61721756Y-142665341D01*
X61687477Y-142667490D01*
X61652578Y-142668781D01*
X61617064Y-142669212D01*
X61581545Y-142668781D01*
X61546643Y-142667498D01*
X61512362Y-142665360D01*
X61478702Y-142662361D01*
X61445663Y-142658508D01*
X61413242Y-142653800D01*
X61381443Y-142648231D01*
X61350263Y-142641807D01*
X61319704Y-142634523D01*
X61289764Y-142626383D01*
X61260452Y-142617381D01*
X61231756Y-142607520D01*
X61203685Y-142596803D01*
X61176233Y-142585230D01*
X61149410Y-142572788D01*
X61123207Y-142559491D01*
X61097698Y-142545435D01*
X61072953Y-142530734D01*
X61048963Y-142515380D01*
X61025740Y-142499378D01*
X61003278Y-142482728D01*
X60981576Y-142465426D01*
X60960638Y-142447477D01*
X60940459Y-142428880D01*
X60921040Y-142409629D01*
X60902380Y-142389733D01*
X60884481Y-142369187D01*
X60867338Y-142347990D01*
X60850957Y-142326145D01*
X60835332Y-142303650D01*
X60820466Y-142280505D01*
X60806359Y-142256711D01*
X60793096Y-142232329D01*
X60780685Y-142207495D01*
X60769127Y-142182214D01*
X60758419Y-142156479D01*
X60748564Y-142130299D01*
X60739566Y-142103661D01*
X60731416Y-142076574D01*
X60724124Y-142049034D01*
X60717690Y-142021039D01*
X60712107Y-141992593D01*
X60707385Y-141963689D01*
X60703517Y-141934333D01*
X60700506Y-141904518D01*
X60698356Y-141874245D01*
X60697070Y-141843519D01*
X60696639Y-141812333D01*
X60940927Y-141812333D01*
X60941244Y-141834715D01*
X60942195Y-141856684D01*
X60943780Y-141878232D01*
X60946002Y-141899368D01*
X60948858Y-141920080D01*
X60952348Y-141940376D01*
X60956477Y-141960254D01*
X60961239Y-141979713D01*
X60966637Y-141998763D01*
X60972675Y-142017387D01*
X60979348Y-142035600D01*
X60986659Y-142053391D01*
X60994608Y-142070765D01*
X61003196Y-142087720D01*
X61012420Y-142104264D01*
X61022281Y-142120386D01*
X61032697Y-142136110D01*
X61043660Y-142151379D01*
X61055166Y-142166186D01*
X61067216Y-142180539D01*
X61079808Y-142194427D01*
X61092944Y-142207860D01*
X61106626Y-142220833D01*
X61120845Y-142233348D01*
X61135605Y-142245402D01*
X61150909Y-142257005D01*
X61166750Y-142268143D01*
X61183135Y-142278824D01*
X61200052Y-142289046D01*
X61217511Y-142298809D01*
X61235506Y-142308112D01*
X61254037Y-142316959D01*
X61273108Y-142325307D01*
X61292706Y-142333124D01*
X61312824Y-142340395D01*
X61333454Y-142347137D01*
X61354578Y-142353337D01*
X61376195Y-142359001D01*
X61398287Y-142364125D01*
X61420843Y-142368714D01*
X61443862Y-142372763D01*
X61467322Y-142376273D01*
X61491214Y-142379246D01*
X61515534Y-142381679D01*
X61540268Y-142383569D01*
X61565403Y-142384919D01*
X61590933Y-142385734D01*
X61616843Y-142386001D01*
X61642721Y-142385734D01*
X61668158Y-142384919D01*
X61693157Y-142383569D01*
X61717721Y-142381679D01*
X61741836Y-142379246D01*
X61765517Y-142376273D01*
X61788752Y-142372763D01*
X61811545Y-142368714D01*
X61833896Y-142364125D01*
X61855804Y-142359001D01*
X61877269Y-142353337D01*
X61898282Y-142347137D01*
X61918854Y-142340395D01*
X61938979Y-142333124D01*
X61958655Y-142325307D01*
X61977885Y-142316959D01*
X61996654Y-142308073D01*
X62014867Y-142298737D01*
X62032526Y-142288946D01*
X62049626Y-142278701D01*
X62066171Y-142268002D01*
X62082164Y-142256849D01*
X62097602Y-142245247D01*
X62112480Y-142233186D01*
X62126808Y-142220670D01*
X62140582Y-142207707D01*
X62153805Y-142194288D01*
X62166473Y-142180412D01*
X62178589Y-142166086D01*
X62190149Y-142151303D01*
X62201161Y-142136070D01*
X62211618Y-142120386D01*
X62221484Y-142104227D01*
X62230708Y-142087658D01*
X62239296Y-142070683D01*
X62247244Y-142053299D01*
X62254556Y-142035499D01*
X62261225Y-142017292D01*
X62267262Y-141998668D01*
X62272664Y-141979637D01*
X62277428Y-141960184D01*
X62281554Y-141940317D01*
X62285047Y-141920035D01*
X62287902Y-141899330D01*
X62290122Y-141878214D01*
X62291710Y-141856674D01*
X62292660Y-141834713D01*
X62292974Y-141812333D01*
X62292660Y-141789949D01*
X62291710Y-141767983D01*
X62290122Y-141746433D01*
X62287902Y-141725302D01*
X62285047Y-141704585D01*
X62281554Y-141684290D01*
X62277428Y-141664411D01*
X62272664Y-141644949D01*
X62267262Y-141625902D01*
X62261225Y-141607277D01*
X62254556Y-141589066D01*
X62247244Y-141571275D01*
X62239296Y-141553899D01*
X62230708Y-141536941D01*
X62221484Y-141520401D01*
X62211618Y-141504279D01*
X62201161Y-141488556D01*
X62190149Y-141473287D01*
X62178589Y-141458478D01*
X62166473Y-141444126D01*
X62153805Y-141430237D01*
X62140582Y-141416804D01*
X62126808Y-141403829D01*
X62112480Y-141391316D01*
X62097602Y-141379260D01*
X62082164Y-141367663D01*
X62066171Y-141356522D01*
X62049626Y-141345841D01*
X62032526Y-141335619D01*
X62014867Y-141325856D01*
X61996654Y-141316549D01*
X61977885Y-141307704D01*
X61958682Y-141299357D01*
X61939079Y-141291545D01*
X61919060Y-141284267D01*
X61898623Y-141277529D01*
X61877752Y-141271327D01*
X61856443Y-141265664D01*
X61834677Y-141260540D01*
X61812453Y-141255952D01*
X61789757Y-141251902D01*
X61766579Y-141248394D01*
X61742910Y-141245421D01*
X61718738Y-141242989D01*
X61694056Y-141241096D01*
X61668853Y-141239744D01*
X61643116Y-141238931D01*
X61616843Y-141238662D01*
X61590536Y-141238931D01*
X61564707Y-141239744D01*
X61539369Y-141241096D01*
X61514511Y-141242989D01*
X61490144Y-141245423D01*
X61466258Y-141248394D01*
X61442854Y-141251902D01*
X61419939Y-141255952D01*
X61397504Y-141260540D01*
X61375557Y-141265664D01*
X61354092Y-141271327D01*
X61333113Y-141277533D01*
X61312617Y-141284268D01*
X61292607Y-141291545D01*
X61273080Y-141299358D01*
X61254037Y-141307704D01*
X61235511Y-141316589D01*
X61217520Y-141325929D01*
X61200072Y-141335720D01*
X61183165Y-141345963D01*
X61166795Y-141356664D01*
X61150968Y-141367815D01*
X61135680Y-141379420D01*
X61120927Y-141391479D01*
X61106715Y-141403993D01*
X61093042Y-141416958D01*
X61079902Y-141430379D01*
X61067309Y-141444252D01*
X61055244Y-141458577D01*
X61043722Y-141473360D01*
X61032737Y-141488592D01*
X61022281Y-141504279D01*
X61012420Y-141520438D01*
X61003196Y-141537014D01*
X60994608Y-141554000D01*
X60986659Y-141571399D01*
X60979348Y-141589208D01*
X60972675Y-141607432D01*
X60966637Y-141626065D01*
X60961239Y-141645112D01*
X60956477Y-141664573D01*
X60952348Y-141684445D01*
X60948858Y-141704729D01*
X60946002Y-141725425D01*
X60943780Y-141746535D01*
X60942195Y-141768054D01*
X60941244Y-141789988D01*
X60940927Y-141812333D01*
X60696639Y-141812333D01*
X60697067Y-141781578D01*
X60698348Y-141751233D01*
X60700490Y-141721304D01*
X60703485Y-141691786D01*
X60707337Y-141662682D01*
X60712047Y-141633993D01*
X60717614Y-141605719D01*
X60724042Y-141577856D01*
X60731323Y-141550413D01*
X60739468Y-141523381D01*
X60748466Y-141496766D01*
X60758326Y-141470562D01*
X60769046Y-141444781D01*
X60780623Y-141419415D01*
X60793061Y-141394465D01*
X60806359Y-141369932D01*
X60820466Y-141345899D01*
X60835334Y-141322542D01*
X60850957Y-141299847D01*
X60867339Y-141277823D01*
X60884481Y-141256464D01*
X60902380Y-141235776D01*
X60921041Y-141215752D01*
X60940459Y-141196390D01*
X60960638Y-141177696D01*
X60981577Y-141159668D01*
X61003278Y-141142301D01*
X61025741Y-141125596D01*
X61048964Y-141109556D01*
X61072953Y-141094176D01*
X61097698Y-141079457D01*
X61123207Y-141065398D01*
X61149410Y-141052098D01*
X61176233Y-141039659D01*
X61203685Y-141028082D01*
X61231756Y-141017365D01*
X61260452Y-141007504D01*
X61289764Y-140998503D01*
X61319704Y-140990363D01*
X61350263Y-140983079D01*
X61381443Y-140976656D01*
X61413242Y-140971088D01*
X61445663Y-140966377D01*
X61478702Y-140962523D01*
X61512362Y-140959529D01*
X61546643Y-140957387D01*
X61581545Y-140956106D01*
X61616843Y-140955679D01*
X61617064Y-140955678D01*
X61652578Y-140956106D01*
G37*
G36*
X58643971Y-133765222D02*
G01*
X58663284Y-133766158D01*
X58682193Y-133767716D01*
X58700696Y-133769895D01*
X58718802Y-133772699D01*
X58736504Y-133776124D01*
X58753806Y-133780170D01*
X58770700Y-133784838D01*
X58787199Y-133790124D01*
X58803295Y-133796035D01*
X58818985Y-133802565D01*
X58834275Y-133809715D01*
X58849165Y-133817479D01*
X58863651Y-133825875D01*
X58877734Y-133834881D01*
X58891417Y-133844507D01*
X58904685Y-133854693D01*
X58917524Y-133865308D01*
X58929938Y-133876341D01*
X58941922Y-133887805D01*
X58953477Y-133899688D01*
X58964604Y-133911999D01*
X58975306Y-133924738D01*
X58985583Y-133937903D01*
X58995427Y-133951495D01*
X59004845Y-133965515D01*
X59013832Y-133979964D01*
X59022395Y-133994842D01*
X59030532Y-134010153D01*
X59038240Y-134025895D01*
X59045518Y-134042067D01*
X59052370Y-134058674D01*
X59058801Y-134075572D01*
X59064820Y-134092634D01*
X59070425Y-134109855D01*
X59075620Y-134127243D01*
X59080399Y-134144794D01*
X59084762Y-134162507D01*
X59088712Y-134180386D01*
X59092249Y-134198433D01*
X59095372Y-134216647D01*
X59098080Y-134235029D01*
X59100371Y-134253581D01*
X59102246Y-134272305D01*
X59103704Y-134291196D01*
X59104743Y-134310260D01*
X59105373Y-134329503D01*
X59105581Y-134348917D01*
X59104942Y-134379897D01*
X59103027Y-134411004D01*
X59099840Y-134442234D01*
X59095383Y-134473585D01*
X59089661Y-134505061D01*
X59082669Y-134536664D01*
X59074417Y-134568390D01*
X59064901Y-134600239D01*
X59059650Y-134616058D01*
X59054040Y-134631685D01*
X59048068Y-134647118D01*
X59041732Y-134662363D01*
X59035035Y-134677422D01*
X59027983Y-134692279D01*
X59020567Y-134706949D01*
X59012790Y-134721419D01*
X59004656Y-134735702D01*
X58996155Y-134749789D01*
X58987297Y-134763684D01*
X58978078Y-134777386D01*
X58968496Y-134790888D01*
X58958556Y-134804201D01*
X58948253Y-134817316D01*
X58937592Y-134830234D01*
X58931954Y-134836622D01*
X58925536Y-134843338D01*
X58918497Y-134850295D01*
X58910993Y-134857375D01*
X58895224Y-134871513D01*
X58879487Y-134884931D01*
X58865052Y-134896799D01*
X58853178Y-134906299D01*
X58842164Y-134914889D01*
X58842078Y-134915737D01*
X58841805Y-134918214D01*
X58841596Y-134920033D01*
X58841328Y-134922215D01*
X58841005Y-134924757D01*
X58840625Y-134927642D01*
X59066001Y-134955568D01*
X59066001Y-135177429D01*
X57296839Y-135180283D01*
X57296839Y-134443464D01*
X57513644Y-134443464D01*
X57513644Y-133912231D01*
X57739680Y-133912231D01*
X57739680Y-134454456D01*
X57522876Y-134454456D01*
X57522876Y-134939294D01*
X57782502Y-134920742D01*
X57880074Y-134914156D01*
X57927018Y-134911585D01*
X57994740Y-134911585D01*
X58228697Y-134911585D01*
X58415153Y-134911585D01*
X58415374Y-134911585D01*
X58429435Y-134911425D01*
X58443255Y-134910926D01*
X58456833Y-134910104D01*
X58470175Y-134908948D01*
X58483273Y-134907459D01*
X58496134Y-134905640D01*
X58508752Y-134903490D01*
X58521137Y-134901010D01*
X58533284Y-134898194D01*
X58545193Y-134895045D01*
X58556868Y-134891564D01*
X58568308Y-134887750D01*
X58579511Y-134883602D01*
X58590485Y-134879119D01*
X58601222Y-134874305D01*
X58611728Y-134869152D01*
X58622008Y-134863710D01*
X58632074Y-134858022D01*
X58641921Y-134852086D01*
X58651548Y-134845899D01*
X58660956Y-134839468D01*
X58670144Y-134832791D01*
X58679113Y-134825865D01*
X58687859Y-134818692D01*
X58696389Y-134811269D01*
X58704692Y-134803601D01*
X58712769Y-134795686D01*
X58720634Y-134787524D01*
X58728263Y-134779112D01*
X58735670Y-134770452D01*
X58742855Y-134761551D01*
X58749814Y-134752396D01*
X58756584Y-134743041D01*
X58763131Y-134733538D01*
X58769448Y-134723871D01*
X58775544Y-134714053D01*
X58781411Y-134704083D01*
X58787053Y-134693956D01*
X58792473Y-134683672D01*
X58797662Y-134673238D01*
X58802633Y-134662650D01*
X58807379Y-134651901D01*
X58811900Y-134641004D01*
X58816200Y-134629950D01*
X58820275Y-134618741D01*
X58824128Y-134607378D01*
X58827760Y-134595860D01*
X58831170Y-134584187D01*
X58837362Y-134560625D01*
X58842747Y-134536779D01*
X58847317Y-134512649D01*
X58851066Y-134488237D01*
X58853995Y-134463549D01*
X58856090Y-134438582D01*
X58857352Y-134413342D01*
X58857775Y-134387834D01*
X58857504Y-134368205D01*
X58856702Y-134349138D01*
X58855359Y-134330646D01*
X58853480Y-134312718D01*
X58851061Y-134295357D01*
X58848103Y-134278560D01*
X58844606Y-134262331D01*
X58840567Y-134246671D01*
X58835990Y-134231574D01*
X58830869Y-134217049D01*
X58825206Y-134203086D01*
X58818999Y-134189693D01*
X58812250Y-134176867D01*
X58804956Y-134164610D01*
X58797116Y-134152911D01*
X58788732Y-134141788D01*
X58779954Y-134131280D01*
X58770860Y-134121458D01*
X58761445Y-134112319D01*
X58751709Y-134103853D01*
X58741653Y-134096071D01*
X58731281Y-134088963D01*
X58720589Y-134082536D01*
X58709577Y-134076785D01*
X58698243Y-134071713D01*
X58686590Y-134067317D01*
X58674618Y-134063603D01*
X58662328Y-134060558D01*
X58649718Y-134058190D01*
X58636787Y-134056505D01*
X58623536Y-134055490D01*
X58609967Y-134055152D01*
X58596381Y-134055486D01*
X58583083Y-134056483D01*
X58570080Y-134058145D01*
X58557389Y-134060468D01*
X58545020Y-134063453D01*
X58532975Y-134067110D01*
X58521276Y-134071425D01*
X58509923Y-134076396D01*
X58498933Y-134082039D01*
X58488311Y-134088339D01*
X58478074Y-134095303D01*
X58468229Y-134102925D01*
X58458784Y-134111212D01*
X58449749Y-134120156D01*
X58441142Y-134129762D01*
X58432964Y-134140027D01*
X58425118Y-134150969D01*
X58417494Y-134162608D01*
X58410087Y-134174944D01*
X58402908Y-134187972D01*
X58395943Y-134201695D01*
X58389200Y-134216111D01*
X58382678Y-134231224D01*
X58376373Y-134247026D01*
X58370287Y-134263528D01*
X58364423Y-134280714D01*
X58358775Y-134298596D01*
X58353344Y-134317170D01*
X58348129Y-134336437D01*
X58343138Y-134356398D01*
X58338358Y-134377048D01*
X58333798Y-134398389D01*
X58228697Y-134911585D01*
X57994740Y-134911585D01*
X58121613Y-134267559D01*
X58127707Y-134238327D01*
X58134446Y-134209910D01*
X58141832Y-134182316D01*
X58149863Y-134155537D01*
X58158540Y-134129576D01*
X58167863Y-134104430D01*
X58177839Y-134080097D01*
X58188454Y-134056583D01*
X58199729Y-134033882D01*
X58211648Y-134011997D01*
X58224219Y-133990919D01*
X58237442Y-133970654D01*
X58251317Y-133951206D01*
X58265846Y-133932568D01*
X58281026Y-133914739D01*
X58296859Y-133897720D01*
X58313290Y-133881663D01*
X58330255Y-133866635D01*
X58347756Y-133852640D01*
X58365793Y-133839676D01*
X58384373Y-133827749D01*
X58403486Y-133816852D01*
X58423137Y-133806990D01*
X58443327Y-133798168D01*
X58464056Y-133790377D01*
X58485322Y-133783626D01*
X58507128Y-133777910D01*
X58529475Y-133773234D01*
X58552362Y-133769594D01*
X58575788Y-133766992D01*
X58599753Y-133765431D01*
X58609967Y-133765216D01*
X58624261Y-133764910D01*
X58643971Y-133765222D01*
G37*
G36*
X58805004Y-140292736D02*
G01*
X59069960Y-140292736D01*
X59069960Y-141046487D01*
X59068777Y-141114130D01*
X59065231Y-141179929D01*
X59059315Y-141243894D01*
X59051038Y-141306021D01*
X59040400Y-141366304D01*
X59027393Y-141424751D01*
X59012026Y-141481363D01*
X58994292Y-141536132D01*
X58974200Y-141589069D01*
X58951742Y-141640167D01*
X58926921Y-141689431D01*
X58899743Y-141736855D01*
X58870200Y-141782445D01*
X58838294Y-141826200D01*
X58804029Y-141868115D01*
X58767404Y-141908201D01*
X58728578Y-141946104D01*
X58687720Y-141981563D01*
X58644827Y-142014584D01*
X58599899Y-142045156D01*
X58552937Y-142073287D01*
X58503939Y-142098970D01*
X58452908Y-142122210D01*
X58399846Y-142143004D01*
X58344747Y-142161354D01*
X58287618Y-142177261D01*
X58228455Y-142190718D01*
X58167261Y-142201733D01*
X58104036Y-142210294D01*
X58038780Y-142216413D01*
X57971489Y-142220085D01*
X57902172Y-142221311D01*
X57832853Y-142220090D01*
X57765565Y-142216423D01*
X57700307Y-142210314D01*
X57637083Y-142201763D01*
X57575888Y-142190762D01*
X57516726Y-142177319D01*
X57459595Y-142161427D01*
X57404501Y-142143088D01*
X57351435Y-142122301D01*
X57300405Y-142099067D01*
X57251408Y-142073383D01*
X57204446Y-142045248D01*
X57159515Y-142014663D01*
X57116623Y-141981627D01*
X57075763Y-141946137D01*
X57036940Y-141908201D01*
X57000314Y-141868115D01*
X56966048Y-141826200D01*
X56934148Y-141782445D01*
X56904601Y-141736855D01*
X56877420Y-141689431D01*
X56852604Y-141640167D01*
X56830146Y-141589070D01*
X56810052Y-141536134D01*
X56792321Y-141481363D01*
X56776953Y-141424751D01*
X56763945Y-141366305D01*
X56753304Y-141306021D01*
X56745027Y-141243895D01*
X56739115Y-141179933D01*
X56735566Y-141114130D01*
X56734386Y-141046487D01*
X56734165Y-141046487D01*
X56734165Y-140575940D01*
X57000000Y-140575940D01*
X57000000Y-141074851D01*
X57000934Y-141124173D01*
X57003733Y-141172119D01*
X57008396Y-141218692D01*
X57014928Y-141263893D01*
X57023322Y-141307718D01*
X57033582Y-141350175D01*
X57045705Y-141391261D01*
X57059701Y-141430974D01*
X57075557Y-141469324D01*
X57093278Y-141506306D01*
X57112865Y-141541921D01*
X57134321Y-141576170D01*
X57157641Y-141609055D01*
X57182822Y-141640577D01*
X57209874Y-141670737D01*
X57238790Y-141699535D01*
X57269367Y-141726734D01*
X57301394Y-141752178D01*
X57334879Y-141775876D01*
X57369812Y-141797815D01*
X57406201Y-141818004D01*
X57444045Y-141836438D01*
X57483339Y-141853119D01*
X57524087Y-141868046D01*
X57566291Y-141881216D01*
X57609943Y-141892631D01*
X57655051Y-141902287D01*
X57701616Y-141910196D01*
X57749628Y-141916342D01*
X57799096Y-141920736D01*
X57850018Y-141923372D01*
X57902393Y-141924251D01*
X57954766Y-141923372D01*
X58005688Y-141920736D01*
X58055156Y-141916342D01*
X58103172Y-141910196D01*
X58149733Y-141902287D01*
X58194840Y-141892631D01*
X58238497Y-141881216D01*
X58280698Y-141868046D01*
X58321444Y-141853119D01*
X58360742Y-141836438D01*
X58398585Y-141818004D01*
X58434966Y-141797815D01*
X58469907Y-141775876D01*
X58503388Y-141752178D01*
X58535419Y-141726734D01*
X58565991Y-141699535D01*
X58594909Y-141670735D01*
X58621958Y-141640568D01*
X58647148Y-141609036D01*
X58670462Y-141576138D01*
X58691917Y-141541877D01*
X58711505Y-141506246D01*
X58729230Y-141469254D01*
X58745084Y-141430893D01*
X58759077Y-141391169D01*
X58771203Y-141350078D01*
X58781464Y-141307622D01*
X58789858Y-141263797D01*
X58796389Y-141218610D01*
X58801052Y-141172054D01*
X58803851Y-141124134D01*
X58804783Y-141074851D01*
X58805004Y-141074851D01*
X58805004Y-140575940D01*
X57000000Y-140575940D01*
X56734165Y-140575940D01*
X56734165Y-140292736D01*
X58805004Y-140292736D01*
G37*
G36*
X59070179Y-138145380D02*
G01*
X58422630Y-138393184D01*
X58422630Y-139451252D01*
X59070179Y-139699056D01*
X59070179Y-139999638D01*
X56734386Y-139093726D01*
X56734386Y-138920459D01*
X57006817Y-138920459D01*
X58157013Y-139348787D01*
X58157013Y-138495870D01*
X57006817Y-138920459D01*
X56734386Y-138920459D01*
X56734386Y-138757527D01*
X58157013Y-138203636D01*
X59070179Y-137848101D01*
X59070179Y-138145380D01*
G37*
G36*
X59070179Y-132382516D02*
G01*
X58018928Y-132382516D01*
X58018928Y-133437070D01*
X57753534Y-133437070D01*
X57753534Y-132382516D01*
X56999782Y-132382516D01*
X56999782Y-133734344D01*
X56734386Y-133734344D01*
X56734386Y-132099310D01*
X59070179Y-132099310D01*
X59070179Y-132382516D01*
G37*
M02*
